<svg width="172" height="43" viewBox="0 0 172 43" fill="none" xmlns="http://www.w3.org/2000/svg">
<rect width="172" height="43" rx="8" fill="#1E77C9"/>
<g clip-path="url(#clip0_455_432)">
<path d="M20.6316 9.63668C20.4336 9.54713 20.2215 9.5 20 9.5C19.7785 9.5 19.5664 9.54713 19.3684 9.63668L10.4933 13.4026C9.4564 13.8409 8.68342 14.8637 8.68813 16.0986C8.7117 20.7742 10.6347 29.3288 18.7557 33.2172C19.5428 33.5943 20.4572 33.5943 21.2443 33.2172C29.3653 29.3288 31.2883 20.7742 31.3119 16.0986C31.3166 14.8637 30.5436 13.8409 29.5067 13.4026L20.6316 9.63668ZM20 15.533C20.6269 15.533 21.1312 16.0373 21.1312 16.6642V21.943C21.1312 22.5699 20.6269 23.0742 20 23.0742C19.3731 23.0742 18.8688 22.5699 18.8688 21.943V16.6642C18.8688 16.0373 19.3731 15.533 20 15.533ZM21.5082 26.0907C21.5082 26.925 20.8342 27.599 20 27.599C19.1657 27.599 18.4917 26.925 18.4917 26.0907C18.4917 25.2565 19.1657 24.5825 20 24.5825C20.8342 24.5825 21.5082 25.2565 21.5082 26.0907Z" fill="white"/>
</g>
<path d="M58.746 19.432C58.746 20.164 58.578 20.836 58.242 21.448C57.906 22.048 57.39 22.534 56.694 22.906C55.998 23.278 55.134 23.464 54.102 23.464H52.194V28H49.116V15.364H54.102C55.11 15.364 55.962 15.538 56.658 15.886C57.354 16.234 57.876 16.714 58.224 17.326C58.572 17.938 58.746 18.64 58.746 19.432ZM53.868 21.016C54.456 21.016 54.894 20.878 55.182 20.602C55.47 20.326 55.614 19.936 55.614 19.432C55.614 18.928 55.47 18.538 55.182 18.262C54.894 17.986 54.456 17.848 53.868 17.848H52.194V21.016H53.868ZM59.7364 22.96C59.7364 21.928 59.9284 21.022 60.3124 20.242C60.7084 19.462 61.2424 18.862 61.9144 18.442C62.5864 18.022 63.3364 17.812 64.1644 17.812C64.8724 17.812 65.4904 17.956 66.0184 18.244C66.5584 18.532 66.9724 18.91 67.2604 19.378V17.956H70.3384V28H67.2604V26.578C66.9604 27.046 66.5404 27.424 66.0004 27.712C65.4724 28 64.8544 28.144 64.1464 28.144C63.3304 28.144 62.5864 27.934 61.9144 27.514C61.2424 27.082 60.7084 26.476 60.3124 25.696C59.9284 24.904 59.7364 23.992 59.7364 22.96ZM67.2604 22.978C67.2604 22.21 67.0444 21.604 66.6124 21.16C66.1924 20.716 65.6764 20.494 65.0644 20.494C64.4524 20.494 63.9304 20.716 63.4984 21.16C63.0784 21.592 62.8684 22.192 62.8684 22.96C62.8684 23.728 63.0784 24.34 63.4984 24.796C63.9304 25.24 64.4524 25.462 65.0644 25.462C65.6764 25.462 66.1924 25.24 66.6124 24.796C67.0444 24.352 67.2604 23.746 67.2604 22.978ZM75.6432 19.63C76.0032 19.078 76.4532 18.646 76.9932 18.334C77.5332 18.01 78.1332 17.848 78.7932 17.848V21.106H77.9472C77.1792 21.106 76.6032 21.274 76.2192 21.61C75.8352 21.934 75.6432 22.51 75.6432 23.338V28H72.5652V17.956H75.6432V19.63ZM79.6524 22.96C79.6524 21.928 79.8444 21.022 80.2284 20.242C80.6244 19.462 81.1584 18.862 81.8304 18.442C82.5024 18.022 83.2524 17.812 84.0804 17.812C84.7884 17.812 85.4064 17.956 85.9344 18.244C86.4744 18.532 86.8884 18.91 87.1764 19.378V17.956H90.2544V28H87.1764V26.578C86.8764 27.046 86.4564 27.424 85.9164 27.712C85.3884 28 84.7704 28.144 84.0624 28.144C83.2464 28.144 82.5024 27.934 81.8304 27.514C81.1584 27.082 80.6244 26.476 80.2284 25.696C79.8444 24.904 79.6524 23.992 79.6524 22.96ZM87.1764 22.978C87.1764 22.21 86.9604 21.604 86.5284 21.16C86.1084 20.716 85.5924 20.494 84.9804 20.494C84.3684 20.494 83.8464 20.716 83.4144 21.16C82.9944 21.592 82.7844 22.192 82.7844 22.96C82.7844 23.728 82.9944 24.34 83.4144 24.796C83.8464 25.24 84.3684 25.462 84.9804 25.462C85.5924 25.462 86.1084 25.24 86.5284 24.796C86.9604 24.352 87.1764 23.746 87.1764 22.978ZM95.6837 22.96C95.6837 21.928 95.8757 21.022 96.2597 20.242C96.6557 19.462 97.1897 18.862 97.8617 18.442C98.5337 18.022 99.2837 17.812 100.112 17.812C100.82 17.812 101.438 17.956 101.966 18.244C102.506 18.532 102.92 18.91 103.208 19.378V17.956H106.286V28H103.208V26.578C102.908 27.046 102.488 27.424 101.948 27.712C101.42 28 100.802 28.144 100.094 28.144C99.2777 28.144 98.5337 27.934 97.8617 27.514C97.1897 27.082 96.6557 26.476 96.2597 25.696C95.8757 24.904 95.6837 23.992 95.6837 22.96ZM103.208 22.978C103.208 22.21 102.992 21.604 102.56 21.16C102.14 20.716 101.624 20.494 101.012 20.494C100.4 20.494 99.8777 20.716 99.4457 21.16C99.0257 21.592 98.8157 22.192 98.8157 22.96C98.8157 23.728 99.0257 24.34 99.4457 24.796C99.8777 25.24 100.4 25.462 101.012 25.462C101.624 25.462 102.14 25.24 102.56 24.796C102.992 24.352 103.208 23.746 103.208 22.978ZM114.632 17.848C115.808 17.848 116.744 18.232 117.44 19C118.148 19.756 118.502 20.8 118.502 22.132V28H115.442V22.546C115.442 21.874 115.268 21.352 114.92 20.98C114.572 20.608 114.104 20.422 113.516 20.422C112.928 20.422 112.46 20.608 112.112 20.98C111.764 21.352 111.59 21.874 111.59 22.546V28H108.512V17.956H111.59V19.288C111.902 18.844 112.322 18.496 112.85 18.244C113.378 17.98 113.972 17.848 114.632 17.848ZM120.029 22.96C120.029 21.928 120.221 21.022 120.605 20.242C121.001 19.462 121.535 18.862 122.207 18.442C122.879 18.022 123.629 17.812 124.457 17.812C125.165 17.812 125.783 17.956 126.311 18.244C126.851 18.532 127.265 18.91 127.553 19.378V17.956H130.631V28H127.553V26.578C127.253 27.046 126.833 27.424 126.293 27.712C125.765 28 125.147 28.144 124.439 28.144C123.623 28.144 122.879 27.934 122.207 27.514C121.535 27.082 121.001 26.476 120.605 25.696C120.221 24.904 120.029 23.992 120.029 22.96ZM127.553 22.978C127.553 22.21 127.337 21.604 126.905 21.16C126.485 20.716 125.969 20.494 125.357 20.494C124.745 20.494 124.223 20.716 123.791 21.16C123.371 21.592 123.161 22.192 123.161 22.96C123.161 23.728 123.371 24.34 123.791 24.796C124.223 25.24 124.745 25.462 125.357 25.462C125.969 25.462 126.485 25.24 126.905 24.796C127.337 24.352 127.553 23.746 127.553 22.978ZM127.787 15.454L123.449 17.272V15.148L127.787 13.06V15.454ZM135.936 14.68V28H132.858V14.68H135.936ZM139.715 16.912C139.175 16.912 138.731 16.756 138.383 16.444C138.047 16.12 137.879 15.724 137.879 15.256C137.879 14.776 138.047 14.38 138.383 14.068C138.731 13.744 139.175 13.582 139.715 13.582C140.243 13.582 140.675 13.744 141.011 14.068C141.359 14.38 141.533 14.776 141.533 15.256C141.533 15.724 141.359 16.12 141.011 16.444C140.675 16.756 140.243 16.912 139.715 16.912ZM141.245 17.956V28H138.167V17.956H141.245ZM147.561 28.144C146.685 28.144 145.905 27.994 145.221 27.694C144.537 27.394 143.997 26.986 143.601 26.47C143.205 25.942 142.983 25.354 142.935 24.706H145.977C146.013 25.054 146.175 25.336 146.463 25.552C146.751 25.768 147.105 25.876 147.525 25.876C147.909 25.876 148.203 25.804 148.407 25.66C148.623 25.504 148.731 25.306 148.731 25.066C148.731 24.778 148.581 24.568 148.281 24.436C147.981 24.292 147.495 24.136 146.823 23.968C146.103 23.8 145.503 23.626 145.023 23.446C144.543 23.254 144.129 22.96 143.781 22.564C143.433 22.156 143.259 21.61 143.259 20.926C143.259 20.35 143.415 19.828 143.727 19.36C144.051 18.88 144.519 18.502 145.131 18.226C145.755 17.95 146.493 17.812 147.345 17.812C148.605 17.812 149.595 18.124 150.315 18.748C151.047 19.372 151.467 20.2 151.575 21.232H148.731C148.683 20.884 148.527 20.608 148.263 20.404C148.011 20.2 147.675 20.098 147.255 20.098C146.895 20.098 146.619 20.17 146.427 20.314C146.235 20.446 146.139 20.632 146.139 20.872C146.139 21.16 146.289 21.376 146.589 21.52C146.901 21.664 147.381 21.808 148.029 21.952C148.773 22.144 149.379 22.336 149.847 22.528C150.315 22.708 150.723 23.008 151.071 23.428C151.431 23.836 151.617 24.388 151.629 25.084C151.629 25.672 151.461 26.2 151.125 26.668C150.801 27.124 150.327 27.484 149.703 27.748C149.091 28.012 148.377 28.144 147.561 28.144ZM162.98 22.816C162.98 23.104 162.962 23.404 162.926 23.716H155.96C156.008 24.34 156.206 24.82 156.554 25.156C156.914 25.48 157.352 25.642 157.868 25.642C158.636 25.642 159.17 25.318 159.47 24.67H162.746C162.578 25.33 162.272 25.924 161.828 26.452C161.396 26.98 160.85 27.394 160.19 27.694C159.53 27.994 158.792 28.144 157.976 28.144C156.992 28.144 156.116 27.934 155.348 27.514C154.58 27.094 153.98 26.494 153.548 25.714C153.116 24.934 152.9 24.022 152.9 22.978C152.9 21.934 153.11 21.022 153.53 20.242C153.962 19.462 154.562 18.862 155.33 18.442C156.098 18.022 156.98 17.812 157.976 17.812C158.948 17.812 159.812 18.016 160.568 18.424C161.324 18.832 161.912 19.414 162.332 20.17C162.764 20.926 162.98 21.808 162.98 22.816ZM159.83 22.006C159.83 21.478 159.65 21.058 159.29 20.746C158.93 20.434 158.48 20.278 157.94 20.278C157.424 20.278 156.986 20.428 156.626 20.728C156.278 21.028 156.062 21.454 155.978 22.006H159.83Z" fill="white"/>
<defs>
<clipPath id="clip0_455_432">
<rect width="24" height="24" fill="white" transform="translate(8 9.5)"/>
</clipPath>
</defs>
</svg>
