<svg width="149" height="43" viewBox="0 0 149 43" fill="none" xmlns="http://www.w3.org/2000/svg">
<rect width="149" height="43" rx="8" fill="#117F5A"/>
<g clip-path="url(#clip0_274_393)">
<path d="M20.6316 9.63668C20.4336 9.54713 20.2215 9.5 20 9.5C19.7785 9.5 19.5664 9.54713 19.3684 9.63668L10.4933 13.4026C9.4564 13.8409 8.68342 14.8637 8.68813 16.0986C8.7117 20.7742 10.6347 29.3288 18.7557 33.2172C19.5428 33.5943 20.4572 33.5943 21.2443 33.2172C29.3653 29.3288 31.2883 20.7742 31.3119 16.0986C31.3166 14.8637 30.5436 13.8409 29.5067 13.4026L20.6316 9.63668ZM25.326 19.3507L19.293 25.3837C18.85 25.8268 18.1335 25.8268 17.6952 25.3837L14.6787 22.3672C14.2357 21.9242 14.2357 21.2078 14.6787 20.7694C15.1218 20.3311 15.8382 20.3264 16.2765 20.7694L18.4917 22.9847L23.7235 17.7482C24.1665 17.3052 24.8829 17.3052 25.3213 17.7482C25.7596 18.1913 25.7643 18.9077 25.3213 19.346L25.326 19.3507Z" fill="white"/>
</g>
<path d="M56.982 25.768H52.266L51.51 28H48.288L52.86 15.364H56.424L60.996 28H57.738L56.982 25.768ZM56.19 23.392L54.624 18.766L53.076 23.392H56.19ZM65.4655 19.378C65.7655 18.91 66.1795 18.532 66.7075 18.244C67.2355 17.956 67.8535 17.812 68.5615 17.812C69.3895 17.812 70.1395 18.022 70.8115 18.442C71.4835 18.862 72.0115 19.462 72.3955 20.242C72.7915 21.022 72.9895 21.928 72.9895 22.96C72.9895 23.992 72.7915 24.904 72.3955 25.696C72.0115 26.476 71.4835 27.082 70.8115 27.514C70.1395 27.934 69.3895 28.144 68.5615 28.144C67.8655 28.144 67.2475 28 66.7075 27.712C66.1795 27.424 65.7655 27.052 65.4655 26.596V32.788H62.3875V17.956H65.4655V19.378ZM69.8575 22.96C69.8575 22.192 69.6415 21.592 69.2095 21.16C68.7895 20.716 68.2675 20.494 67.6435 20.494C67.0315 20.494 66.5095 20.716 66.0775 21.16C65.6575 21.604 65.4475 22.21 65.4475 22.978C65.4475 23.746 65.6575 24.352 66.0775 24.796C66.5095 25.24 67.0315 25.462 67.6435 25.462C68.2555 25.462 68.7775 25.24 69.2095 24.796C69.6415 24.34 69.8575 23.728 69.8575 22.96ZM77.6823 19.63C78.0423 19.078 78.4923 18.646 79.0323 18.334C79.5723 18.01 80.1723 17.848 80.8323 17.848V21.106H79.9863C79.2183 21.106 78.6423 21.274 78.2583 21.61C77.8743 21.934 77.6823 22.51 77.6823 23.338V28H74.6043V17.956H77.6823V19.63ZM86.8755 28.144C85.8915 28.144 85.0035 27.934 84.2115 27.514C83.4315 27.094 82.8135 26.494 82.3575 25.714C81.9135 24.934 81.6915 24.022 81.6915 22.978C81.6915 21.946 81.9195 21.04 82.3755 20.26C82.8315 19.468 83.4555 18.862 84.2475 18.442C85.0395 18.022 85.9275 17.812 86.9115 17.812C87.8955 17.812 88.7835 18.022 89.5755 18.442C90.3675 18.862 90.9915 19.468 91.4475 20.26C91.9035 21.04 92.1315 21.946 92.1315 22.978C92.1315 24.01 91.8975 24.922 91.4295 25.714C90.9735 26.494 90.3435 27.094 89.5395 27.514C88.7475 27.934 87.8595 28.144 86.8755 28.144ZM86.8755 25.48C87.4635 25.48 87.9615 25.264 88.3695 24.832C88.7895 24.4 88.9995 23.782 88.9995 22.978C88.9995 22.174 88.7955 21.556 88.3875 21.124C87.9915 20.692 87.4995 20.476 86.9115 20.476C86.3115 20.476 85.8135 20.692 85.4175 21.124C85.0215 21.544 84.8235 22.162 84.8235 22.978C84.8235 23.782 85.0155 24.4 85.3995 24.832C85.7955 25.264 86.2875 25.48 86.8755 25.48ZM98.2824 25.12L100.46 17.956H103.736L100.172 28H96.3744L92.8104 17.956H96.1044L98.2824 25.12ZM104.42 22.96C104.42 21.928 104.612 21.022 104.996 20.242C105.392 19.462 105.926 18.862 106.598 18.442C107.27 18.022 108.02 17.812 108.848 17.812C109.556 17.812 110.174 17.956 110.702 18.244C111.242 18.532 111.656 18.91 111.944 19.378V17.956H115.022V28H111.944V26.578C111.644 27.046 111.224 27.424 110.684 27.712C110.156 28 109.538 28.144 108.83 28.144C108.014 28.144 107.27 27.934 106.598 27.514C105.926 27.082 105.392 26.476 104.996 25.696C104.612 24.904 104.42 23.992 104.42 22.96ZM111.944 22.978C111.944 22.21 111.728 21.604 111.296 21.16C110.876 20.716 110.36 20.494 109.748 20.494C109.136 20.494 108.614 20.716 108.182 21.16C107.762 21.592 107.552 22.192 107.552 22.96C107.552 23.728 107.762 24.34 108.182 24.796C108.614 25.24 109.136 25.462 109.748 25.462C110.36 25.462 110.876 25.24 111.296 24.796C111.728 24.352 111.944 23.746 111.944 22.978ZM116.637 22.96C116.637 21.928 116.829 21.022 117.213 20.242C117.609 19.462 118.143 18.862 118.815 18.442C119.487 18.022 120.237 17.812 121.065 17.812C121.725 17.812 122.325 17.95 122.865 18.226C123.417 18.502 123.849 18.874 124.161 19.342V14.68H127.239V28H124.161V26.56C123.873 27.04 123.459 27.424 122.919 27.712C122.391 28 121.773 28.144 121.065 28.144C120.237 28.144 119.487 27.934 118.815 27.514C118.143 27.082 117.609 26.476 117.213 25.696C116.829 24.904 116.637 23.992 116.637 22.96ZM124.161 22.978C124.161 22.21 123.945 21.604 123.513 21.16C123.093 20.716 122.577 20.494 121.965 20.494C121.353 20.494 120.831 20.716 120.399 21.16C119.979 21.592 119.769 22.192 119.769 22.96C119.769 23.728 119.979 24.34 120.399 24.796C120.831 25.24 121.353 25.462 121.965 25.462C122.577 25.462 123.093 25.24 123.513 24.796C123.945 24.352 124.161 23.746 124.161 22.978ZM134.038 28.144C133.054 28.144 132.166 27.934 131.374 27.514C130.594 27.094 129.976 26.494 129.52 25.714C129.076 24.934 128.854 24.022 128.854 22.978C128.854 21.946 129.082 21.04 129.538 20.26C129.994 19.468 130.618 18.862 131.41 18.442C132.202 18.022 133.09 17.812 134.074 17.812C135.058 17.812 135.946 18.022 136.738 18.442C137.53 18.862 138.154 19.468 138.61 20.26C139.066 21.04 139.294 21.946 139.294 22.978C139.294 24.01 139.06 24.922 138.592 25.714C138.136 26.494 137.506 27.094 136.702 27.514C135.91 27.934 135.022 28.144 134.038 28.144ZM134.038 25.48C134.626 25.48 135.124 25.264 135.532 24.832C135.952 24.4 136.162 23.782 136.162 22.978C136.162 22.174 135.958 21.556 135.55 21.124C135.154 20.692 134.662 20.476 134.074 20.476C133.474 20.476 132.976 20.692 132.58 21.124C132.184 21.544 131.986 22.162 131.986 22.978C131.986 23.782 132.178 24.4 132.562 24.832C132.958 25.264 133.45 25.48 134.038 25.48Z" fill="white"/>
<defs>
<clipPath id="clip0_274_393">
<rect width="24" height="24" fill="white" transform="translate(8 9.5)"/>
</clipPath>
</defs>
</svg>
