<svg width="149" height="43" viewBox="0 0 149 43" fill="none" xmlns="http://www.w3.org/2000/svg">
<rect width="149" height="43" rx="8" fill="#BD493D"/>
<g clip-path="url(#clip0_328_423)">
<path d="M20.6316 9.63668C20.4336 9.54713 20.2215 9.5 20 9.5C19.7785 9.5 19.5664 9.54713 19.3684 9.63668L10.4933 13.4026C9.4564 13.8409 8.68342 14.8637 8.68813 16.0986C8.7117 20.7742 10.6347 29.3288 18.7557 33.2172C19.5428 33.5943 20.4572 33.5943 21.2443 33.2172C29.3653 29.3288 31.2883 20.7742 31.3119 16.0986C31.3166 14.8637 30.5436 13.8409 29.5067 13.4026L20.6316 9.63668ZM16.1822 17.7482C16.6253 17.3052 17.3417 17.3052 17.78 17.7482L19.9953 19.9635L22.2105 17.7482C22.6536 17.3052 23.37 17.3052 23.8083 17.7482C24.2467 18.1913 24.2514 18.9077 23.8083 19.346L21.5931 21.5613L23.8083 23.7765C24.2514 24.2196 24.2514 24.936 23.8083 25.3743C23.3653 25.8126 22.6489 25.8174 22.2105 25.3743L19.9953 23.1591L17.78 25.3743C17.337 25.8174 16.6206 25.8174 16.1822 25.3743C15.7439 24.9313 15.7392 24.2148 16.1822 23.7765L18.3975 21.5613L16.1822 19.346C15.7392 18.903 15.7392 18.1866 16.1822 17.7482Z" fill="white"/>
</g>
<path d="M60.42 28H57.342L52.194 20.206V28H49.116V15.364H52.194L57.342 23.194V15.364H60.42V28ZM72.1192 22.816C72.1192 23.104 72.1012 23.404 72.0652 23.716H65.0992C65.1472 24.34 65.3452 24.82 65.6932 25.156C66.0532 25.48 66.4912 25.642 67.0072 25.642C67.7752 25.642 68.3092 25.318 68.6092 24.67H71.8852C71.7172 25.33 71.4112 25.924 70.9672 26.452C70.5352 26.98 69.9892 27.394 69.3292 27.694C68.6692 27.994 67.9312 28.144 67.1152 28.144C66.1312 28.144 65.2552 27.934 64.4872 27.514C63.7192 27.094 63.1192 26.494 62.6872 25.714C62.2552 24.934 62.0392 24.022 62.0392 22.978C62.0392 21.934 62.2492 21.022 62.6692 20.242C63.1012 19.462 63.7012 18.862 64.4692 18.442C65.2372 18.022 66.1192 17.812 67.1152 17.812C68.0872 17.812 68.9512 18.016 69.7072 18.424C70.4632 18.832 71.0512 19.414 71.4712 20.17C71.9032 20.926 72.1192 21.808 72.1192 22.816ZM68.9692 22.006C68.9692 21.478 68.7892 21.058 68.4292 20.746C68.0692 20.434 67.6192 20.278 67.0792 20.278C66.5632 20.278 66.1252 20.428 65.7652 20.728C65.4172 21.028 65.2012 21.454 65.1172 22.006H68.9692ZM77.559 17.812C78.267 17.812 78.885 17.956 79.413 18.244C79.953 18.532 80.367 18.91 80.655 19.378V17.956H83.733V27.982C83.733 28.906 83.547 29.74 83.175 30.484C82.815 31.24 82.257 31.84 81.501 32.284C80.757 32.728 79.827 32.95 78.711 32.95C77.223 32.95 76.017 32.596 75.093 31.888C74.169 31.192 73.641 30.244 73.509 29.044H76.551C76.647 29.428 76.875 29.728 77.235 29.944C77.595 30.172 78.039 30.286 78.567 30.286C79.203 30.286 79.707 30.1 80.079 29.728C80.463 29.368 80.655 28.786 80.655 27.982V26.56C80.355 27.028 79.941 27.412 79.413 27.712C78.885 28 78.267 28.144 77.559 28.144C76.731 28.144 75.981 27.934 75.309 27.514C74.637 27.082 74.103 26.476 73.707 25.696C73.323 24.904 73.131 23.992 73.131 22.96C73.131 21.928 73.323 21.022 73.707 20.242C74.103 19.462 74.637 18.862 75.309 18.442C75.981 18.022 76.731 17.812 77.559 17.812ZM80.655 22.978C80.655 22.21 80.439 21.604 80.007 21.16C79.587 20.716 79.071 20.494 78.459 20.494C77.847 20.494 77.325 20.716 76.893 21.16C76.473 21.592 76.263 22.192 76.263 22.96C76.263 23.728 76.473 24.34 76.893 24.796C77.325 25.24 77.847 25.462 78.459 25.462C79.071 25.462 79.587 25.24 80.007 24.796C80.439 24.352 80.655 23.746 80.655 22.978ZM85.3478 22.96C85.3478 21.928 85.5398 21.022 85.9238 20.242C86.3198 19.462 86.8538 18.862 87.5258 18.442C88.1978 18.022 88.9478 17.812 89.7758 17.812C90.4838 17.812 91.1018 17.956 91.6298 18.244C92.1698 18.532 92.5838 18.91 92.8718 19.378V17.956H95.9498V28H92.8718V26.578C92.5718 27.046 92.1518 27.424 91.6118 27.712C91.0838 28 90.4658 28.144 89.7578 28.144C88.9418 28.144 88.1978 27.934 87.5258 27.514C86.8538 27.082 86.3198 26.476 85.9238 25.696C85.5398 24.904 85.3478 23.992 85.3478 22.96ZM92.8718 22.978C92.8718 22.21 92.6558 21.604 92.2238 21.16C91.8038 20.716 91.2878 20.494 90.6758 20.494C90.0638 20.494 89.5418 20.716 89.1098 21.16C88.6898 21.592 88.4798 22.192 88.4798 22.96C88.4798 23.728 88.6898 24.34 89.1098 24.796C89.5418 25.24 90.0638 25.462 90.6758 25.462C91.2878 25.462 91.8038 25.24 92.2238 24.796C92.6558 24.352 92.8718 23.746 92.8718 22.978ZM97.5645 22.96C97.5645 21.928 97.7565 21.022 98.1405 20.242C98.5365 19.462 99.0705 18.862 99.7425 18.442C100.415 18.022 101.165 17.812 101.993 17.812C102.653 17.812 103.253 17.95 103.793 18.226C104.345 18.502 104.777 18.874 105.089 19.342V14.68H108.167V28H105.089V26.56C104.801 27.04 104.387 27.424 103.847 27.712C103.319 28 102.701 28.144 101.993 28.144C101.165 28.144 100.415 27.934 99.7425 27.514C99.0705 27.082 98.5365 26.476 98.1405 25.696C97.7565 24.904 97.5645 23.992 97.5645 22.96ZM105.089 22.978C105.089 22.21 104.873 21.604 104.441 21.16C104.021 20.716 103.505 20.494 102.893 20.494C102.281 20.494 101.759 20.716 101.327 21.16C100.907 21.592 100.697 22.192 100.697 22.96C100.697 23.728 100.907 24.34 101.327 24.796C101.759 25.24 102.281 25.462 102.893 25.462C103.505 25.462 104.021 25.24 104.441 24.796C104.873 24.352 105.089 23.746 105.089 22.978ZM114.965 28.144C113.981 28.144 113.093 27.934 112.301 27.514C111.521 27.094 110.903 26.494 110.447 25.714C110.003 24.934 109.781 24.022 109.781 22.978C109.781 21.946 110.009 21.04 110.465 20.26C110.921 19.468 111.545 18.862 112.337 18.442C113.129 18.022 114.017 17.812 115.001 17.812C115.985 17.812 116.873 18.022 117.665 18.442C118.457 18.862 119.081 19.468 119.537 20.26C119.993 21.04 120.221 21.946 120.221 22.978C120.221 24.01 119.987 24.922 119.519 25.714C119.063 26.494 118.433 27.094 117.629 27.514C116.837 27.934 115.949 28.144 114.965 28.144ZM114.965 25.48C115.553 25.48 116.051 25.264 116.459 24.832C116.879 24.4 117.089 23.782 117.089 22.978C117.089 22.174 116.885 21.556 116.477 21.124C116.081 20.692 115.589 20.476 115.001 20.476C114.401 20.476 113.903 20.692 113.507 21.124C113.111 21.544 112.913 22.162 112.913 22.978C112.913 23.782 113.105 24.4 113.489 24.832C113.885 25.264 114.377 25.48 114.965 25.48Z" fill="white"/>
<defs>
<clipPath id="clip0_328_423">
<rect width="24" height="24" fill="white" transform="translate(8 9.5)"/>
</clipPath>
</defs>
</svg>
