<svg width="199" height="43" viewBox="0 0 199 43" fill="none" xmlns="http://www.w3.org/2000/svg">
<rect width="199" height="43" rx="8" fill="#FFB800"/>
<g clip-path="url(#clip0_455_427)">
<path d="M20.6316 9.63668C20.4336 9.54713 20.2215 9.5 20 9.5C19.7785 9.5 19.5664 9.54713 19.3684 9.63668L10.4933 13.4026C9.4564 13.8409 8.68342 14.8637 8.68813 16.0986C8.7117 20.7742 10.6347 29.3288 18.7557 33.2172C19.5428 33.5943 20.4572 33.5943 21.2443 33.2172C29.3653 29.3288 31.2883 20.7742 31.3119 16.0986C31.3166 14.8637 30.5436 13.8409 29.5067 13.4026L20.6316 9.63668ZM16.1822 17.7482C16.6253 17.3052 17.3417 17.3052 17.78 17.7482L19.9953 19.9635L22.2105 17.7482C22.6536 17.3052 23.37 17.3052 23.8083 17.7482C24.2467 18.1913 24.2514 18.9077 23.8083 19.346L21.5931 21.5613L23.8083 23.7765C24.2514 24.2196 24.2514 24.936 23.8083 25.3743C23.3653 25.8126 22.6489 25.8174 22.2105 25.3743L19.9953 23.1591L17.78 25.3743C17.337 25.8174 16.6206 25.8174 16.1822 25.3743C15.7439 24.9313 15.7392 24.2148 16.1822 23.7765L18.3975 21.5613L16.1822 19.346C15.7392 18.903 15.7392 18.1866 16.1822 17.7482Z" fill="white"/>
</g>
<path d="M52.194 17.83V20.386H56.316V22.762H52.194V25.534H56.856V28H49.116V15.364H56.856V17.83H52.194ZM71.6703 17.848C72.9183 17.848 73.9083 18.226 74.6403 18.982C75.3843 19.738 75.7563 20.788 75.7563 22.132V28H72.6963V22.546C72.6963 21.898 72.5223 21.4 72.1743 21.052C71.8383 20.692 71.3703 20.512 70.7703 20.512C70.1703 20.512 69.6963 20.692 69.3483 21.052C69.0123 21.4 68.8443 21.898 68.8443 22.546V28H65.7843V22.546C65.7843 21.898 65.6103 21.4 65.2623 21.052C64.9263 20.692 64.4583 20.512 63.8583 20.512C63.2583 20.512 62.7843 20.692 62.4363 21.052C62.1003 21.4 61.9323 21.898 61.9323 22.546V28H58.8543V17.956H61.9323V19.216C62.2443 18.796 62.6523 18.466 63.1563 18.226C63.6603 17.974 64.2303 17.848 64.8663 17.848C65.6223 17.848 66.2943 18.01 66.8823 18.334C67.4823 18.658 67.9503 19.12 68.2863 19.72C68.6343 19.168 69.1083 18.718 69.7083 18.37C70.3083 18.022 70.9623 17.848 71.6703 17.848ZM81.1114 22.96C81.1114 21.928 81.3034 21.022 81.6874 20.242C82.0834 19.462 82.6174 18.862 83.2894 18.442C83.9614 18.022 84.7114 17.812 85.5394 17.812C86.2474 17.812 86.8654 17.956 87.3934 18.244C87.9334 18.532 88.3474 18.91 88.6354 19.378V17.956H91.7134V28H88.6354V26.578C88.3354 27.046 87.9154 27.424 87.3754 27.712C86.8474 28 86.2294 28.144 85.5214 28.144C84.7054 28.144 83.9614 27.934 83.2894 27.514C82.6174 27.082 82.0834 26.476 81.6874 25.696C81.3034 24.904 81.1114 23.992 81.1114 22.96ZM88.6354 22.978C88.6354 22.21 88.4194 21.604 87.9874 21.16C87.5674 20.716 87.0514 20.494 86.4394 20.494C85.8274 20.494 85.3054 20.716 84.8734 21.16C84.4534 21.592 84.2434 22.192 84.2434 22.96C84.2434 23.728 84.4534 24.34 84.8734 24.796C85.3054 25.24 85.8274 25.462 86.4394 25.462C87.0514 25.462 87.5674 25.24 87.9874 24.796C88.4194 24.352 88.6354 23.746 88.6354 22.978ZM100.06 17.848C101.236 17.848 102.172 18.232 102.868 19C103.576 19.756 103.93 20.8 103.93 22.132V28H100.87V22.546C100.87 21.874 100.696 21.352 100.348 20.98C100 20.608 99.5322 20.422 98.9442 20.422C98.3562 20.422 97.8882 20.608 97.5402 20.98C97.1922 21.352 97.0182 21.874 97.0182 22.546V28H93.9402V17.956H97.0182V19.288C97.3302 18.844 97.7502 18.496 98.2782 18.244C98.8062 17.98 99.4002 17.848 100.06 17.848ZM105.457 22.96C105.457 21.928 105.649 21.022 106.033 20.242C106.429 19.462 106.963 18.862 107.635 18.442C108.307 18.022 109.057 17.812 109.885 17.812C110.545 17.812 111.145 17.95 111.685 18.226C112.237 18.502 112.669 18.874 112.981 19.342V14.68H116.059V28H112.981V26.56C112.693 27.04 112.279 27.424 111.739 27.712C111.211 28 110.593 28.144 109.885 28.144C109.057 28.144 108.307 27.934 107.635 27.514C106.963 27.082 106.429 26.476 106.033 25.696C105.649 24.904 105.457 23.992 105.457 22.96ZM112.981 22.978C112.981 22.21 112.765 21.604 112.333 21.16C111.913 20.716 111.397 20.494 110.785 20.494C110.173 20.494 109.651 20.716 109.219 21.16C108.799 21.592 108.589 22.192 108.589 22.96C108.589 23.728 108.799 24.34 109.219 24.796C109.651 25.24 110.173 25.462 110.785 25.462C111.397 25.462 111.913 25.24 112.333 24.796C112.765 24.352 112.981 23.746 112.981 22.978ZM117.674 22.96C117.674 21.928 117.866 21.022 118.25 20.242C118.646 19.462 119.18 18.862 119.852 18.442C120.524 18.022 121.274 17.812 122.102 17.812C122.81 17.812 123.428 17.956 123.956 18.244C124.496 18.532 124.91 18.91 125.198 19.378V17.956H128.276V28H125.198V26.578C124.898 27.046 124.478 27.424 123.938 27.712C123.41 28 122.792 28.144 122.084 28.144C121.268 28.144 120.524 27.934 119.852 27.514C119.18 27.082 118.646 26.476 118.25 25.696C117.866 24.904 117.674 23.992 117.674 22.96ZM125.198 22.978C125.198 22.21 124.982 21.604 124.55 21.16C124.13 20.716 123.614 20.494 123.002 20.494C122.39 20.494 121.868 20.716 121.436 21.16C121.016 21.592 120.806 22.192 120.806 22.96C120.806 23.728 121.016 24.34 121.436 24.796C121.868 25.24 122.39 25.462 123.002 25.462C123.614 25.462 124.13 25.24 124.55 24.796C124.982 24.352 125.198 23.746 125.198 22.978ZM143.319 17.848C144.567 17.848 145.557 18.226 146.289 18.982C147.033 19.738 147.405 20.788 147.405 22.132V28H144.345V22.546C144.345 21.898 144.171 21.4 143.823 21.052C143.487 20.692 143.019 20.512 142.419 20.512C141.819 20.512 141.345 20.692 140.997 21.052C140.661 21.4 140.493 21.898 140.493 22.546V28H137.433V22.546C137.433 21.898 137.259 21.4 136.911 21.052C136.575 20.692 136.107 20.512 135.507 20.512C134.907 20.512 134.433 20.692 134.085 21.052C133.749 21.4 133.581 21.898 133.581 22.546V28H130.503V17.956H133.581V19.216C133.893 18.796 134.301 18.466 134.805 18.226C135.309 17.974 135.879 17.848 136.515 17.848C137.271 17.848 137.943 18.01 138.531 18.334C139.131 18.658 139.599 19.12 139.935 19.72C140.283 19.168 140.757 18.718 141.357 18.37C141.957 18.022 142.611 17.848 143.319 17.848ZM159.025 22.816C159.025 23.104 159.007 23.404 158.971 23.716H152.005C152.053 24.34 152.251 24.82 152.599 25.156C152.959 25.48 153.397 25.642 153.913 25.642C154.681 25.642 155.215 25.318 155.515 24.67H158.791C158.623 25.33 158.317 25.924 157.873 26.452C157.441 26.98 156.895 27.394 156.235 27.694C155.575 27.994 154.837 28.144 154.021 28.144C153.037 28.144 152.161 27.934 151.393 27.514C150.625 27.094 150.025 26.494 149.593 25.714C149.161 24.934 148.945 24.022 148.945 22.978C148.945 21.934 149.155 21.022 149.575 20.242C150.007 19.462 150.607 18.862 151.375 18.442C152.143 18.022 153.025 17.812 154.021 17.812C154.993 17.812 155.857 18.016 156.613 18.424C157.369 18.832 157.957 19.414 158.377 20.17C158.809 20.926 159.025 21.808 159.025 22.816ZM155.875 22.006C155.875 21.478 155.695 21.058 155.335 20.746C154.975 20.434 154.525 20.278 153.985 20.278C153.469 20.278 153.031 20.428 152.671 20.728C152.323 21.028 152.107 21.454 152.023 22.006H155.875ZM166.769 17.848C167.945 17.848 168.881 18.232 169.577 19C170.285 19.756 170.639 20.8 170.639 22.132V28H167.579V22.546C167.579 21.874 167.405 21.352 167.057 20.98C166.709 20.608 166.241 20.422 165.653 20.422C165.065 20.422 164.597 20.608 164.249 20.98C163.901 21.352 163.727 21.874 163.727 22.546V28H160.649V17.956H163.727V19.288C164.039 18.844 164.459 18.496 164.987 18.244C165.515 17.98 166.109 17.848 166.769 17.848ZM178.376 25.39V28H176.81C175.694 28 174.824 27.73 174.2 27.19C173.576 26.638 173.264 25.744 173.264 24.508V20.512H172.04V17.956H173.264V15.508H176.342V17.956H178.358V20.512H176.342V24.544C176.342 24.844 176.414 25.06 176.558 25.192C176.702 25.324 176.942 25.39 177.278 25.39H178.376ZM184.663 28.144C183.679 28.144 182.791 27.934 181.999 27.514C181.219 27.094 180.601 26.494 180.145 25.714C179.701 24.934 179.479 24.022 179.479 22.978C179.479 21.946 179.707 21.04 180.163 20.26C180.619 19.468 181.243 18.862 182.035 18.442C182.827 18.022 183.715 17.812 184.699 17.812C185.683 17.812 186.571 18.022 187.363 18.442C188.155 18.862 188.779 19.468 189.235 20.26C189.691 21.04 189.919 21.946 189.919 22.978C189.919 24.01 189.685 24.922 189.217 25.714C188.761 26.494 188.131 27.094 187.327 27.514C186.535 27.934 185.647 28.144 184.663 28.144ZM184.663 25.48C185.251 25.48 185.749 25.264 186.157 24.832C186.577 24.4 186.787 23.782 186.787 22.978C186.787 22.174 186.583 21.556 186.175 21.124C185.779 20.692 185.287 20.476 184.699 20.476C184.099 20.476 183.601 20.692 183.205 21.124C182.809 21.544 182.611 22.162 182.611 22.978C182.611 23.782 182.803 24.4 183.187 24.832C183.583 25.264 184.075 25.48 184.663 25.48Z" fill="white"/>
<defs>
<clipPath id="clip0_455_427">
<rect width="24" height="24" fill="white" transform="translate(8 9.5)"/>
</clipPath>
</defs>
</svg>
