<svg width="489" height="402" viewBox="0 0 489 402" fill="none" xmlns="http://www.w3.org/2000/svg">
<g clip-path="url(#clip0_217_1193)">
<path d="M326.658 53.7126C329.445 48.7149 336.087 51.8814 339.37 54.4374C342.729 57.0317 345.897 59.7785 350.325 60.0837C358.074 60.656 364.945 54.9334 371.587 51.8814C375.71 49.9738 380.099 48.7912 384.604 49.8975C389.184 51.0039 393.154 53.5981 397.582 55.1242C401.399 56.4213 405.293 56.4976 408.881 54.5137C413.729 51.8432 417.203 47.5322 423.31 48.486C429.151 49.4016 433.884 53.4074 439.61 54.7045C443.732 55.6201 448.351 55.3531 451.252 51.9577C451.71 51.3854 450.909 50.5842 450.451 51.1565C447.168 55.0097 441.671 54.3993 437.358 52.8733C432.433 51.1565 428.12 47.8755 422.814 47.2651C417.661 46.6929 414.187 49.5542 410.217 52.301C408.156 53.7126 405.942 54.8571 403.384 54.9715C400.941 55.086 398.575 54.3611 396.323 53.4455C392.009 51.7288 387.925 49.1727 383.268 48.486C379.489 47.9137 375.824 48.8293 372.35 50.3172C365.174 53.3692 357.425 60.3508 349.104 58.8248C343.683 57.8328 340.591 52.797 335.667 50.8131C332.232 49.4397 327.651 49.5923 325.666 53.1403C325.322 53.7507 326.315 54.3611 326.658 53.7126Z" fill="#F2F2F2"/>
<path d="M383.191 40.8203C386.741 33.381 396.628 36.7764 402.239 39.1035C405.636 40.5151 409.186 41.8885 412.927 41.7359C416.019 41.6215 418.958 40.6296 421.745 39.4469C428.196 36.6619 434.8 32.122 442.167 34.1058C448.656 35.8989 454.306 41.2781 461.444 39.7521C465.566 38.8746 469.002 36.166 473.01 35.0214C478.316 33.5336 483.431 35.8989 488.126 38.1879C488.775 38.4931 489.386 37.5394 488.699 37.196C484.92 35.3648 480.95 33.4573 476.636 33.381C472.743 33.3428 469.384 35.2122 465.986 36.8145C461.94 38.7602 458.199 39.485 453.886 37.9209C450.336 36.6619 447.129 34.5255 443.541 33.3047C436.517 30.9393 430.181 34.144 423.921 37.1579C420.523 38.7602 416.973 40.3625 413.156 40.5533C408.843 40.7822 404.911 38.9509 401.017 37.3486C395.139 34.9451 385.634 32.9613 382.16 40.2099C381.893 40.8966 382.886 41.507 383.191 40.8203Z" fill="#F2F2F2"/>
<path d="M47.3911 309.397C47.811 307.261 49.8723 306.193 51.9336 306.154C54.3003 306.116 56.3616 307.642 58.0793 309.092C60.8277 311.457 63.6524 314.586 67.5842 314.7C70.8288 314.815 73.1191 312.526 75.2568 310.427C77.8525 307.833 80.5627 306.078 84.3417 306.689C90.4874 307.642 95.4498 312.22 101.596 313.098C104.649 313.518 107.283 312.678 109.726 310.847C111.291 309.664 112.665 308.253 114.46 307.452C116.788 306.383 119.422 306.383 121.903 306.803C129.767 308.138 139.195 314.815 146.753 309.054C147.326 308.596 146.753 307.604 146.181 308.062C138.737 313.708 129.194 306.65 121.407 305.582C117.361 305.048 113.963 305.964 110.795 308.52C109.192 309.817 107.627 311.228 105.604 311.839C103.924 312.297 102.168 312.182 100.45 311.801C94.4955 310.389 89.4568 305.849 83.1966 305.506C80.181 305.353 77.6616 306.65 75.4858 308.634C72.1648 311.686 69.1874 315.272 64.3014 312.678C60.446 310.618 57.9266 306.231 53.4605 305.239C50.5212 304.59 46.8949 305.964 46.246 309.168C46.1696 309.817 47.2766 310.122 47.3911 309.397Z" fill="#F2F2F2"/>
<path d="M110.451 298.143C111.329 295.434 114.421 294.824 116.941 295.091C119.88 295.396 122.437 297.151 125.224 298.028C127.781 298.83 130.148 298.791 132.629 297.761C135.149 296.731 137.821 294.633 140.684 295.129C143.241 295.587 144.844 297.99 147.287 298.791C149.463 299.478 151.601 298.753 153.586 297.723C156.563 296.197 159.083 294.557 162.556 294.633C166.259 294.709 169.809 296.235 173.13 297.723C173.817 298.028 174.39 297.036 173.703 296.731C170.649 295.396 167.557 294.061 164.236 293.641C160.991 293.221 158.205 293.946 155.342 295.472C152.059 297.227 149.12 299.02 145.646 296.617C143.547 295.167 141.791 293.641 139.08 293.946C136.218 294.251 133.889 296.197 131.217 297.075C127.438 298.295 124.041 296.35 120.605 294.938C116.864 293.45 110.833 293.069 109.306 297.838C109.115 298.524 110.222 298.83 110.451 298.143Z" fill="#F2F2F2"/>
<path d="M104.84 41.0111C105.298 43.7198 107.894 45.7036 110.642 45.6654C113.544 45.6273 115.49 43.1857 115.567 40.4388C115.643 37.7301 113.887 35.2503 111.101 34.9833C108.314 34.7162 105.527 36.5093 104.879 39.2943C104.726 40.0192 105.833 40.3244 105.985 39.5995C106.482 37.5394 108.429 36.1278 110.528 36.1278C112.933 36.1278 114.498 38.1879 114.422 40.477C114.231 45.7799 106.787 45.6654 105.947 40.7822C105.833 39.981 104.726 40.2862 104.84 41.0111Z" fill="#F2F2F2"/>
<path d="M104.306 220.316C106.203 220.316 107.741 218.779 107.741 216.883C107.741 214.986 106.203 213.449 104.306 213.449C102.408 213.449 100.87 214.986 100.87 216.883C100.87 218.779 102.408 220.316 104.306 220.316Z" stroke="#F2F2F2" stroke-miterlimit="10"/>
<path d="M207.065 398.747C213.516 398.747 218.746 393.52 218.746 387.073C218.746 380.625 213.516 375.398 207.065 375.398C200.614 375.398 195.385 380.625 195.385 387.073C195.385 393.52 200.614 398.747 207.065 398.747Z" stroke="#F2F2F2" stroke-miterlimit="10"/>
<path d="M448.618 135.587C452.223 135.587 455.146 132.666 455.146 129.063C455.146 125.46 452.223 122.539 448.618 122.539C445.013 122.539 442.091 125.46 442.091 129.063C442.091 132.666 445.013 135.587 448.618 135.587Z" stroke="#F2F2F2" stroke-miterlimit="10"/>
<path d="M169.504 9.99298C173.626 4.80451 180.994 9.19182 186.032 9.99298C191.376 10.8323 195.041 7.6658 199.278 4.95711C201.912 3.27849 204.431 2.43917 207.6 2.82068C210.31 3.12588 213.02 3.9652 215.768 3.39294C217.181 3.08773 218.479 2.40102 219.815 1.86692C221.685 1.14206 223.517 0.913152 225.502 1.29466C228.9 1.94322 231.953 3.8889 234.778 5.79642C235.389 6.21608 235.961 5.22416 235.351 4.80451C232.526 2.93513 229.51 0.989453 226.113 0.264593C223.212 -0.383967 220.769 0.226442 218.097 1.37096C214.471 2.93513 211.417 2.09582 207.676 1.67616C204.928 1.37096 202.485 1.82877 200.08 3.16403C197.675 4.4993 195.575 6.29238 193.132 7.62765C189.85 9.38258 186.605 9.15367 183.093 8.12361C178.512 6.78834 172.329 4.69006 168.702 9.19182C168.244 9.76408 169.046 10.5652 169.504 9.99298Z" fill="#F2F2F2"/>
<path d="M198.896 22.0864C202.141 16.2112 209.546 15.6008 215.501 16.669C218.784 17.2413 221.99 18.3095 225.273 18.9199C227.754 19.3777 229.739 19.1106 231.762 17.5846C234.244 15.6771 236.267 14.1129 239.55 14.1129C242.565 14.1129 245.504 15.1048 248.253 16.2112C253.597 18.3858 259.399 21.3615 265.163 18.9962C265.85 18.7291 265.545 17.6228 264.858 17.8898C258.216 20.5985 251.803 16.0204 245.657 14.0366C243.1 13.2355 240.351 12.6632 237.679 13.0828C234.74 13.5407 233.06 15.2574 230.77 16.8979C227.602 19.1488 223.441 17.3176 220.044 16.4782C216.799 15.6771 213.478 14.9522 210.119 15.0285C205.309 15.143 200.347 17.1268 197.904 21.5141C197.56 22.1627 198.553 22.7349 198.896 22.0864Z" fill="#F2F2F2"/>
<path d="M74.4552 370.478C78.5451 370.478 81.8606 367.165 81.8606 363.077C81.8606 358.989 78.5451 355.676 74.4552 355.676C70.3653 355.676 67.0498 358.989 67.0498 363.077C67.0498 367.165 70.3653 370.478 74.4552 370.478Z" stroke="#F2F2F2" stroke-miterlimit="10"/>
<path d="M95.3354 238.094C97.3593 238.094 98.9999 236.455 98.9999 234.432C98.9999 232.409 97.3593 230.77 95.3354 230.77C93.3116 230.77 91.6709 232.409 91.6709 234.432C91.6709 236.455 93.3116 238.094 95.3354 238.094Z" fill="#2E2640"/>
<path d="M430.83 309.895C432.221 309.895 433.349 308.768 433.349 307.377C433.349 305.987 432.221 304.859 430.83 304.859C429.438 304.859 428.311 305.987 428.311 307.377C428.311 308.768 429.438 309.895 430.83 309.895Z" fill="#2E2640"/>
<path d="M312.954 18.3879C315.379 18.3879 317.344 16.4236 317.344 14.0006C317.344 11.5775 315.379 9.61328 312.954 9.61328C310.53 9.61328 308.564 11.5775 308.564 14.0006C308.564 16.4236 310.53 18.3879 312.954 18.3879Z" fill="#2E2640"/>
<path d="M128.736 265.182C131.603 265.182 133.928 262.859 133.928 259.993C133.928 257.128 131.603 254.805 128.736 254.805C125.869 254.805 123.545 257.128 123.545 259.993C123.545 262.859 125.869 265.182 128.736 265.182Z" fill="#FF4545"/>
<path d="M404.224 103.537C406.733 103.537 408.767 101.504 408.767 98.9969C408.767 96.4896 406.733 94.457 404.224 94.457C401.715 94.457 399.682 96.4896 399.682 98.9969C399.682 101.504 401.715 103.537 404.224 103.537Z" fill="#FF4545"/>
<path d="M128.736 376.85C131.603 376.85 133.928 374.527 133.928 371.661C133.928 368.796 131.603 366.473 128.736 366.473C125.869 366.473 123.545 368.796 123.545 371.661C123.545 374.527 125.869 376.85 128.736 376.85Z" fill="#FF4545"/>
<path d="M351.852 353.003C352.997 350.638 355.822 349.379 358.379 350.142C360.593 350.791 361.509 353.194 363.532 354.148C367.121 355.865 369.296 351.401 371.854 349.837C375.786 347.433 378.839 353.309 382.886 352.393C385.252 351.859 386.474 349.341 388.879 348.654C390.177 348.273 391.589 348.311 392.887 348.692C394.337 349.15 395.483 350.218 396.857 350.791C397.773 351.21 398.727 351.401 399.681 351.058C401.018 350.6 401.781 349.303 403.155 348.845C406.362 347.815 409.95 349.989 412.545 351.668C413.156 352.088 413.729 351.096 413.118 350.676C410.942 349.265 408.576 347.929 405.98 347.548C404.949 347.395 403.842 347.395 402.85 347.739C401.552 348.12 400.865 349.226 399.72 349.722C397.697 350.6 396.208 348.998 394.566 348.158C393.574 347.662 392.543 347.319 391.398 347.243C389.108 347.052 386.97 347.853 385.214 349.379C383.993 350.447 383 351.592 381.206 351.21C380.023 350.981 378.954 350.18 377.923 349.57C376.358 348.654 374.564 347.7 372.694 348.196C370.862 348.692 369.602 350.218 368.304 351.477C367.541 352.24 366.663 353.118 365.556 353.309C363.914 353.614 362.845 352.24 361.853 351.172C358.723 347.853 353.073 348.006 350.898 352.431C350.554 353.08 351.546 353.652 351.852 353.003Z" fill="#F2F2F2"/>
<path d="M388.573 345.032C389.337 343.124 391.016 341.751 393.039 341.331C395.253 340.835 397.047 341.903 398.994 342.857C400.254 343.506 401.666 344.154 403.117 344.002C404.758 343.811 405.674 342.552 406.934 341.636C408.69 340.301 411.171 340.11 413.118 341.217C414.187 341.827 415.027 343.124 416.439 342.781C417.05 342.628 417.508 342.17 418.042 341.903C419.302 341.293 420.676 341.331 422.012 341.674C424.15 342.209 426.096 343.506 427.852 344.765C428.463 345.184 429.036 344.192 428.425 343.773C425.448 341.636 421.172 339.004 417.47 340.911C416.782 341.255 416.363 341.865 415.408 341.522C414.988 341.369 414.53 340.759 414.149 340.53C413.461 340.072 412.698 339.729 411.896 339.576C410.331 339.233 408.614 339.385 407.201 340.148C404.987 341.331 403.957 343.62 401.056 342.59C399.032 341.865 397.315 340.377 395.101 340.148C391.818 339.767 388.726 341.789 387.504 344.765C387.199 345.413 388.306 345.718 388.573 345.032Z" fill="#F2F2F2"/>
<path d="M395.826 266.059C397.277 263.77 400.712 263.388 402.544 265.372C403.499 266.402 404.186 268.042 405.865 267.928C406.972 267.852 407.774 267.012 408.614 266.402C409.911 265.448 411.362 264.418 413.042 264.647C414.874 264.914 416.363 266.936 418.348 266.173C419.378 265.792 420.065 264.8 420.981 264.227C421.974 263.579 423.119 263.159 424.264 262.93C427.013 262.358 429.57 262.968 431.937 264.38C433.922 265.601 434.571 264.151 436.327 263.235C438.961 261.862 442.281 262.396 444.419 264.342C444.954 264.838 445.793 264.037 445.221 263.541C443.503 262.015 441.327 261.213 439.037 261.366C438.044 261.442 437.09 261.633 436.212 262.053C434.647 262.74 433.998 263.922 432.051 263.121C429.685 262.167 427.776 261.366 425.142 261.633C423.043 261.862 421.058 262.625 419.416 263.96C418.424 264.723 417.622 265.41 416.134 264.8C415.523 264.571 415.027 264.113 414.454 263.884C413.614 263.503 412.774 263.388 411.82 263.503C410.484 263.693 409.301 264.456 408.232 265.219C407.698 265.601 407.125 266.249 406.514 266.478C404.873 267.127 404.529 266.059 403.689 265.067C401.323 262.205 396.818 262.205 394.757 265.486C394.452 266.097 395.444 266.669 395.826 266.059Z" fill="#F2F2F2"/>
<path d="M432.128 257.248C433.006 255.76 434.609 254.92 436.327 254.959C438.312 255.035 438.884 256.485 440.487 257.171C441.289 257.515 441.976 257.362 442.625 256.828C444.267 255.569 445.374 254.501 447.587 254.539C448.542 254.539 449.458 254.806 450.298 255.264C450.87 255.569 451.328 256.065 451.939 256.218C453.046 256.485 453.771 255.798 454.573 255.149C457.741 252.708 462.246 252.86 465.147 255.645C465.681 256.141 466.483 255.34 465.948 254.844C463.543 252.593 460.108 251.716 456.94 252.631C456.138 252.86 455.375 253.204 454.687 253.623C453.733 254.234 452.97 255.34 451.672 254.844C450.908 254.539 450.298 253.967 449.496 253.7C448.694 253.433 447.855 253.356 447.015 253.394C445.564 253.471 444.114 253.967 442.969 254.882C442.663 255.111 442.396 255.531 442.053 255.722C440.717 256.561 440.564 255.874 439.724 255.188C439.304 254.844 438.884 254.539 438.35 254.31C435.716 253.127 432.471 254.234 431.059 256.714C430.754 257.286 431.746 257.896 432.128 257.248Z" fill="#F2F2F2"/>
<path d="M152.937 262.551C143.928 271.402 134.767 281.321 125.644 292.346C98.6943 324.965 80.6771 357.622 68.4238 385.319C69.1491 387.189 72.1647 394.361 80.1427 398.519C89.8766 403.593 99.3432 400.122 100.794 399.549C111.062 379.33 125.148 355.905 144.386 331.832C155.647 317.716 166.984 305.546 177.749 295.131C169.504 284.297 161.22 273.424 152.937 262.551Z" fill="white" stroke="#161220" stroke-width="4" stroke-miterlimit="10"/>
<path opacity="0.14" d="M168.167 285.02C162.441 290.551 156.677 296.35 150.951 302.492C120.719 334.92 98.503 368.455 82.0508 399.395C84.0357 400.196 87.3949 401.226 91.6702 401.226C95.6782 401.226 98.8847 400.272 100.831 399.548C107.435 385.241 116.177 368.989 127.857 352.012C144.691 327.519 162.594 308.825 177.786 295.129C174.542 291.81 171.374 288.415 168.167 285.02Z" fill="#B3B3C3"/>
<path d="M265.888 330.419C336.491 330.419 393.727 273.216 393.727 202.653C393.727 132.09 336.491 74.8867 265.888 74.8867C195.285 74.8867 138.05 132.09 138.05 202.653C138.05 273.216 195.285 330.419 265.888 330.419Z" fill="white" stroke="#161220" stroke-width="4" stroke-miterlimit="10"/>
<path d="M264.476 322.483C330.23 322.483 383.535 269.209 383.535 203.492C383.535 137.774 330.23 84.5 264.476 84.5C198.721 84.5 145.417 137.774 145.417 203.492C145.417 269.209 198.721 322.483 264.476 322.483Z" fill="white" stroke="#161220" stroke-width="4" stroke-miterlimit="10"/>
<path d="M128.85 153.744C127.323 154.354 123.849 155.918 121.025 159.581C118.505 162.824 117.742 166.105 117.475 167.745C123.086 172.132 128.01 175.49 131.751 177.893C142.821 185.065 148.738 187.354 150.341 187.965C157.517 190.673 161.792 191.017 163.014 191.093C165.724 191.246 170.076 191.513 175 189.834C178.779 188.537 181.375 186.63 188.131 180.411C196.147 173.048 200.384 168.661 200.384 168.661C216.951 151.493 216.837 153.362 222.486 146.381C228.784 138.56 237.984 127.191 234.51 121.43C232.754 118.531 228.097 117.615 220.425 116.127C215.272 115.135 213.248 115.555 212.6 115.708C208.172 116.776 205.499 120.133 203.095 123.3C195.04 133.791 191.032 139.018 188.322 143.176C186.223 146.381 182.634 151.913 177.214 158.894C173.588 163.587 171.641 165.685 168.434 166.753C164.961 167.898 161.945 167.211 156.181 165.837C154.082 165.342 150.074 164.273 143.241 161.221C139.5 159.543 134.538 157.101 128.85 153.744Z" fill="white"/>
<path opacity="0.13" d="M220.769 126.352C219.013 128.793 216.456 132.379 213.326 136.69C206.149 146.533 202.294 151.836 197.179 158.055C189.354 167.592 185.46 172.399 179.925 176.1C175.688 178.961 169.924 182.853 161.87 183.692C154.693 184.417 148.853 182.128 137.478 177.473C132.477 175.451 125.53 172.323 117.514 167.707C120.529 170.11 124.957 173.391 130.492 177.015C141.448 184.15 148.242 188.499 158.129 190.33C162.671 191.169 169.771 192.39 177.024 189.033C179.238 188.003 181.07 186.515 184.658 183.539C193.972 175.833 200.347 168.775 202.637 166.219C208.516 159.581 211.455 156.262 213.555 152.675C216.379 147.945 220.349 139.323 220.769 126.352Z" fill="#B3B3C3"/>
<path d="M212.448 115.172C206.416 116.888 202.332 122.191 198.706 126.96C194.507 132.454 190.88 138.329 187.101 144.128C183.322 149.927 179.429 155.726 174.772 160.876C172.061 163.852 169.504 166.98 165.114 166.599C161.259 166.293 157.289 165.759 153.548 164.691C149.387 163.508 145.57 161.486 141.715 159.541C137.516 157.442 133.317 155.306 129.118 153.208C128.469 152.864 127.896 153.856 128.545 154.2C135.607 157.748 142.631 161.83 150.036 164.691C153.433 166.026 156.983 166.713 160.61 167.171C164.045 167.629 167.748 168.506 170.764 166.332C173.397 164.462 175.611 161.715 177.673 159.236C179.81 156.679 181.795 154.009 183.666 151.262C187.674 145.501 191.3 139.474 195.232 133.675C197.599 130.203 200.042 126.808 202.79 123.603C205.538 120.398 208.592 117.384 212.753 116.202C213.478 116.049 213.173 114.943 212.448 115.172Z" fill="#2E2640"/>
<path d="M117.208 168.202C125.186 173.887 133.049 180.258 141.791 184.798C149.272 188.727 158.052 191.818 166.603 191.894C170.84 191.932 174.848 190.94 178.436 188.689C182.024 186.438 185.269 183.615 188.475 180.868C195.003 175.26 201.034 169.118 206.569 162.556C212.829 155.117 218.402 147.105 223.212 138.674C223.594 138.025 222.601 137.453 222.219 138.102C213.974 152.523 203.515 165.646 191.262 176.863C188.246 179.61 185.116 182.242 181.91 184.76C178.092 187.736 174.161 190.177 169.236 190.635C160.571 191.436 151.181 188.232 143.547 184.416C134.309 179.838 126.102 173.162 117.78 167.172C117.208 166.791 116.635 167.783 117.208 168.202Z" fill="#2E2640"/>
<path d="M0.667969 85.1096C2.00399 89.2299 3.9126 94.8762 6.35561 101.476C14.7153 123.947 24.0293 143.022 32.5417 158.321C44.375 179.647 56.9718 197.806 68.8815 212.952C70.981 212.151 74.0729 210.778 77.4321 208.527C81.3256 205.894 83.6923 203.338 86.7079 200.134C90.6396 195.975 94.8004 192.008 98.7321 187.811C116.024 169.308 114.803 170.91 117.513 167.744C121.33 163.28 126.598 156.756 132.362 148.287C130.148 146.532 127.094 143.938 123.735 140.581C118.772 135.621 114.612 130.471 109.382 122.65C107.244 119.445 102.702 112.54 94.3805 97.1271C81.1348 72.52 78.6154 64.0887 77.5848 60.3499C75.9434 54.3603 75.1036 49.2863 74.6073 45.7383C65.446 49.6296 55.9794 54.017 46.2073 58.9384C29.3352 67.4459 14.1427 76.335 0.667969 85.1096Z" fill="white"/>
<path d="M0.0954683 85.2624C11.8525 121.505 28.61 156.07 49.8337 187.735C55.7122 196.509 61.9343 205.055 68.4617 213.372C68.9198 213.944 69.7214 213.143 69.2633 212.571C45.8257 182.737 26.5106 149.66 12.0815 114.6C8.07344 104.872 4.44709 94.9907 1.20246 84.9953C0.973427 84.2323 -0.133564 84.5375 0.0954683 85.2624Z" fill="#2E2640"/>
<path d="M0.859017 84.8417C24.373 70.2682 48.994 57.4496 74.4167 46.5385C75.1038 46.2333 74.493 45.2796 73.8441 45.5466C48.4215 56.4577 23.8005 69.2763 0.286435 83.8498C-0.362491 84.2313 0.210091 85.2232 0.859017 84.8417Z" fill="#2E2640"/>
<path d="M74.0349 45.739C75.6763 61.7622 82.8145 76.3357 90.1817 90.4133C97.2435 103.88 104.42 117.424 113.619 129.594C118.62 136.232 124.269 142.412 130.644 147.792C131.217 148.249 132.018 147.448 131.446 146.991C120.032 137.377 111.215 125.245 103.656 112.502C99.9156 106.246 96.4801 99.8364 93.0828 93.389C89.4564 86.4837 85.7919 79.6166 82.7 72.4443C79.0354 63.9368 76.1725 55.0095 75.2182 45.739C75.1037 45.0141 73.9586 45.0141 74.0349 45.739Z" fill="#2E2640"/>
<path d="M69.5303 213.067C74.6072 211.694 78.768 208.489 82.547 204.941C86.9368 200.821 91.1739 196.51 95.3347 192.161C103.962 183.233 112.245 173.963 120.185 164.425C124.536 159.198 128.773 153.896 132.896 148.516C133.049 148.326 132.972 147.982 132.82 147.83C132.4 147.41 131.98 146.99 131.598 146.571C131.064 146.037 130.262 146.838 130.797 147.372C131.216 147.791 131.636 148.211 132.018 148.631C131.98 148.402 131.942 148.173 131.942 147.944C122.628 160.076 112.741 171.826 102.358 183.081C97.2433 188.651 91.9755 194.106 86.5933 199.409C81.5546 204.407 76.3631 209.977 69.2631 211.923C68.4997 212.151 68.8051 213.258 69.5303 213.067Z" fill="#2E2640"/>
<path d="M32.8885 117.223C39.1563 114.51 41.4659 105.916 38.0472 98.0274C34.6284 90.139 26.7758 85.9439 20.508 88.6573C14.2402 91.3707 11.9307 99.9651 15.3494 107.853C18.7682 115.742 26.6207 119.937 32.8885 117.223Z" stroke="#2E2640" stroke-width="2" stroke-miterlimit="10"/>
<path d="M20.1738 99.0751C21.3189 101.25 24.1437 105.484 27.1974 103.768C30.0603 102.127 27.8464 97.1294 26.4722 95.2219C26.0523 94.6115 25.0598 95.1837 25.4797 95.7942C26.3958 97.0531 28.877 101.86 26.3577 102.89C24.1437 103.806 21.9679 99.9907 21.1662 98.5029C20.8227 97.8543 19.8302 98.4265 20.1738 99.0751Z" fill="#2E2640"/>
<path d="M25.7093 104.376C26.2056 104.91 23.7244 107.123 23.419 107.542C22.8464 108.343 22.541 109.259 22.3884 110.213C22.1211 112.349 22.9228 114.409 23.7244 116.393C23.9916 117.08 25.0986 116.775 24.8314 116.088C23.5335 112.883 22.7319 110.022 25.2513 107.237C26.1674 106.245 27.7324 104.91 26.5109 103.575C26.0147 103.04 25.2131 103.842 25.7093 104.376Z" fill="#2E2640"/>
<path d="M28.1518 102.391C29.1443 103.268 30.0986 103.879 31.4728 103.65C32.5416 103.497 33.4959 102.925 34.5647 103.078C36.0153 103.268 37.0078 104.565 37.8857 105.634C38.3438 106.206 39.1454 105.405 38.6873 104.832C37.6567 103.573 36.5115 102.238 34.7938 101.933C32.5416 101.551 31.0147 103.421 28.9534 101.59C28.419 101.094 27.6174 101.895 28.1518 102.391Z" fill="#2E2640"/>
<path d="M26.2435 105.444C27.8849 106.398 29.2591 104.834 29.8698 103.46C30.1752 102.812 29.1827 102.201 28.8773 102.888C28.5338 103.613 27.8085 105.063 26.816 104.452C26.1671 104.071 25.5945 105.063 26.2435 105.444Z" fill="#2E2640"/>
<path d="M23.4186 109.527C25.7471 110.939 26.8159 114.83 27.3885 117.31C27.5412 118.035 28.6482 117.729 28.4955 117.004C27.8466 114.181 26.6632 110.137 23.9912 108.535C23.3804 108.154 22.7697 109.145 23.4186 109.527Z" fill="#2E2640"/>
<path d="M33.4197 102.735C34.4122 105.558 36.0154 108.038 38.1912 110.098C38.7256 110.594 39.5273 109.793 38.9928 109.297C36.9316 107.39 35.4047 105.101 34.4885 102.43C34.2977 101.743 33.1907 102.049 33.4197 102.735Z" fill="#2E2640"/>
<path d="M20.6702 95.2968C21.5099 95.602 22.3497 95.8309 23.2277 95.9072C24.3729 96.0216 25.6325 95.6783 26.5868 96.5557C27.2358 97.1662 27.732 98.3488 28.2282 99.1118C28.9153 100.18 29.6024 101.248 30.2895 102.316C30.6713 102.927 31.6637 102.355 31.282 101.744C30.4804 100.485 29.6406 99.1881 28.839 97.9292C28.3046 97.128 27.8465 96.0216 27.1212 95.3731C26.5487 94.8771 25.8997 94.839 25.1745 94.839C23.6858 94.8008 22.4261 94.7627 21.0137 94.2286C20.2884 93.9234 19.9831 95.0297 20.6702 95.2968Z" fill="#2E2640"/>
<path d="M20.0975 94.3442C19.8685 95.7176 19.7921 97.091 19.8685 98.5026C19.9066 99.2274 21.0518 99.2274 21.0136 98.5026C20.9373 97.2055 20.9755 95.9465 21.2045 94.6494C21.319 93.9245 20.212 93.6193 20.0975 94.3442Z" fill="#2E2640"/>
<path d="M23.3036 108.192C20.5934 104.263 14.0278 94.9159 21.1278 91.8638C26.9681 89.3459 31.7778 98.3113 33.7246 102.508C34.03 103.195 35.0225 102.584 34.7171 101.936C32.5031 97.0905 27.0445 87.6673 20.4025 90.9482C12.8445 94.6488 19.2192 104.263 22.3493 108.765C22.731 109.375 23.7235 108.803 23.3036 108.192Z" fill="#2E2640"/>
<path d="M39.0693 86.1036C43.4209 83.8909 47.7725 81.6782 52.1241 79.4654C52.7731 79.1221 52.2005 78.1302 51.5516 78.4735C47.1999 80.6863 42.8483 82.899 38.4967 85.1117C37.8096 85.4551 38.3822 86.447 39.0693 86.1036Z" fill="#2E2640"/>
<path d="M40.0612 92.0534C50.2531 86.9031 60.2924 81.4857 70.179 75.8394C70.8279 75.4579 70.2553 74.466 69.6064 74.8475C59.7198 80.532 49.6805 85.9112 39.4886 91.0615C38.8397 91.3667 39.4122 92.3586 40.0612 92.0534Z" fill="#2E2640"/>
<path d="M43.9557 98.2333C48.9944 95.868 53.995 93.5027 58.6901 90.5269C59.3009 90.1454 58.7283 89.1535 58.1175 89.535C53.4224 92.5108 48.4218 94.9143 43.3831 97.2414C42.7342 97.5466 43.3068 98.5386 43.9557 98.2333Z" fill="#2E2640"/>
<path d="M46.4362 105.025C55.4066 100.409 64.3007 95.5637 73.0421 90.566C73.691 90.1845 73.1185 89.1926 72.4695 89.5741C63.69 94.61 54.834 99.4169 45.8636 104.033C45.2147 104.377 45.7872 105.368 46.4362 105.025Z" fill="#2E2640"/>
<path d="M32.2363 139.627C47.7723 130.738 63.3466 121.925 78.9971 113.227C79.6461 112.884 79.0735 111.892 78.4245 112.235C62.774 120.934 47.1998 129.746 31.6637 138.635C31.0148 139.017 31.6255 140.009 32.2363 139.627Z" fill="#2E2640"/>
<path d="M35.9011 147.524C42.6957 142.946 49.7194 138.673 56.9339 134.782C57.5828 134.439 57.0102 133.447 56.3613 133.79C49.1468 137.719 42.1231 141.954 35.3285 146.532C34.7177 146.952 35.2903 147.944 35.9011 147.524Z" fill="#2E2640"/>
<path d="M44.0319 155.46C55.2927 147.601 66.8207 140.124 78.6159 133.066C79.2648 132.684 78.654 131.693 78.0433 132.074C66.2863 139.132 54.7583 146.609 43.4594 154.468C42.8486 154.888 43.4212 155.88 44.0319 155.46Z" fill="#2E2640"/>
<path d="M49.6052 166.219C60.6369 158.208 71.8977 150.539 83.3875 143.214C83.9982 142.833 83.4257 141.841 82.8149 142.223C71.3251 149.547 60.0643 157.216 49.0326 165.227C48.4218 165.647 48.9944 166.639 49.6052 166.219Z" fill="#2E2640"/>
<path d="M56.9724 181.67C70.9815 171.103 84.9525 160.573 98.9617 150.005C99.5343 149.586 98.9617 148.556 98.3891 149.013C84.3799 159.581 70.4089 170.111 56.3998 180.678C55.789 181.136 56.3616 182.128 56.9724 181.67Z" fill="#2E2640"/>
<path d="M67.4693 188.689C77.0505 180.601 86.8989 172.857 97.0145 165.418C97.5871 164.998 97.0145 164.006 96.4419 164.426C86.25 171.903 76.3252 179.724 66.6677 187.85C66.0951 188.384 66.8967 189.185 67.4693 188.689Z" fill="#2E2640"/>
<path d="M104.419 113.418C104.763 112.846 105.221 112.007 105.641 110.939C105.985 110.023 106.366 108.535 106.29 103.766C106.214 99.1883 105.717 97.5097 105.145 96.2507C104.305 94.2669 103.58 93.9617 103.274 93.8472C101.976 93.3894 100.564 94.4195 98.3501 96.0981C93.9985 99.4172 92.6624 102.317 92.2044 103.537C91.7463 104.72 91.4028 105.598 91.8227 106.132C92.7006 107.276 96.2888 105.941 99.228 104.606C100.984 107.581 102.702 110.481 104.419 113.418Z" fill="white"/>
<path d="M105.832 112.616C107.13 107.428 107.397 101.591 105.794 96.4025C105.336 94.9146 104.382 93.2741 102.664 93.1215C100.717 92.9308 98.8086 95.0291 97.4344 96.1736C95.6785 97.6233 93.9989 99.2638 92.7774 101.209C92.0139 102.43 90.6016 104.796 91.2887 106.322C92.8155 109.793 99.8392 104.796 101.442 103.689C102.053 103.27 101.481 102.278 100.87 102.697C99.5338 103.651 98.1215 104.49 96.6328 105.177C95.8693 105.559 95.0295 105.94 94.1897 106.169C92.1284 106.665 92.4338 104.49 92.9682 103.308C94.1516 100.675 96.2892 98.5771 98.5032 96.784C99.9537 95.6013 102.778 92.8926 104.267 95.6395C105.145 97.2037 105.374 99.569 105.565 101.362C105.947 105.063 105.641 108.763 104.725 112.349C104.534 113.036 105.641 113.341 105.832 112.616Z" fill="#2E2640"/>
<path d="M250.314 246.486C250.199 247.021 250.352 246.448 249.817 255.299C248.863 271.78 247.794 284.484 246.878 295.663C246.496 300.164 245.962 306.383 245.275 313.784C258.177 317.179 273.904 319.163 291.234 316.683C293.41 316.378 295.509 315.997 297.571 315.577C297.494 307.565 297.38 299.554 297.303 291.542C301.121 298.524 304.976 305.505 308.793 312.487C314.481 310.77 322.268 307.756 330.551 302.263C339.522 296.311 345.629 289.673 349.447 284.828C342.385 271.551 338.109 260.297 335.476 252.209C331.926 241.336 329.215 229.624 319.405 217.301C316.695 213.906 315.359 212.227 313.527 211.045C296.044 199.828 255.2 220.849 250.314 246.486Z" fill="white"/>
<path opacity="0.19" d="M308.45 218.827C309.709 222.681 311.007 226.572 312.267 230.463C320.13 254.727 327.345 278.762 333.949 302.453C336.812 300.241 340.209 297.227 343.53 293.259C346.011 290.283 347.92 287.384 349.408 284.828C346.851 279.525 343.339 271.933 339.445 262.624C334.216 250.149 329.063 237.178 329.063 237.178C323.413 223.672 321.505 219.705 318.031 214.707C315.702 211.388 313.565 208.87 312.038 207.191C310.855 211.083 309.671 214.936 308.45 218.827Z" fill="#B3B3C3"/>
<path d="M249.741 246.485C248.558 268.574 246.878 290.625 244.702 312.638C244.626 313.363 245.771 313.363 245.848 312.638C248.023 290.625 249.703 268.574 250.886 246.485C250.924 245.76 249.779 245.76 249.741 246.485Z" fill="#2E2640"/>
<path d="M316.848 213.714C327.536 237.52 338.224 261.288 348.912 285.094C349.218 285.781 350.21 285.17 349.905 284.522C339.217 260.716 328.528 236.948 317.84 213.142C317.535 212.455 316.542 213.066 316.848 213.714Z" fill="#2E2640"/>
<path d="M275.202 265.754C280.355 265.64 284.134 269.417 286.692 273.499C289.173 277.467 291.272 281.739 293.525 285.86C298.296 294.634 303.106 303.409 307.877 312.222C308.221 312.87 309.213 312.298 308.87 311.649C303.602 301.959 298.334 292.307 293.067 282.617C289.211 275.559 284.898 264.419 275.202 264.648C274.439 264.61 274.439 265.754 275.202 265.754Z" fill="#2E2640"/>
<path d="M296.731 291.428C296.807 299.477 296.922 307.527 296.998 315.577C296.998 316.302 298.143 316.302 298.143 315.577C298.067 307.527 297.952 299.477 297.876 291.428C297.838 290.665 296.693 290.665 296.731 291.428Z" fill="#2E2640"/>
<path d="M229.357 103.614C222.486 108.154 212.905 114.487 208.782 126.39C205.919 134.63 206.95 141.841 208.401 152.103C208.935 155.766 210.653 166.448 217.218 181.136C222.448 192.848 226.341 197.197 232.296 207.231C237.564 216.082 244.282 229.091 249.932 246.564C257.108 247.556 262.719 246.907 266.46 246.182C271.194 245.267 280.202 242.787 308.755 220.469C312.649 217.417 315.817 214.861 317.954 213.106C311.847 187.24 304.327 156.681 295.166 121.621C292.074 109.832 288.905 98.2726 278.866 92.7789C260.773 82.8598 234.434 100.256 229.357 103.614Z" fill="#FF4545"/>
<path d="M282.951 104.221C282.379 104.679 281.157 105.823 279.439 112.576C276.004 125.891 278.065 131.88 278.867 133.902C280.928 146.759 280.928 159.883 282.302 172.816C283.715 186.435 283.257 199.636 282.264 226.074C281.806 238.702 281.348 242.441 279.936 273.228C279.592 280.667 279.325 286.81 279.172 290.854C275.431 293.181 272.263 294.63 269.973 295.546C267.568 296.538 265.927 296.958 264.247 298.484C262.071 300.429 261.117 302.947 260.659 304.817C259.552 305.427 257.872 306.305 255.773 307.296C250.2 310.005 249.703 309.814 248.177 310.997C245.123 313.324 244.016 316.529 242.68 320.039C241.649 322.786 240.199 327.898 241.458 328.584C242.489 329.157 244.932 326.562 246.459 324.96C249.054 322.213 249.856 320.42 251.307 318.551C252.833 316.605 255.429 314.125 260.01 312.218C258.407 313.057 253.94 315.728 252.337 320.878C251.345 324.006 251.803 326.868 252.185 329.309C252.757 332.857 253.94 335.604 254.895 337.359C255.62 337.283 256.689 337.092 257.796 336.482C259.972 335.261 260.659 333.315 262.186 330.301C263.598 327.516 265.163 324.388 267.453 321.908C269.248 319.962 271.309 318.627 273.408 317.673C272.912 320.115 272.607 322.213 272.378 323.777C272.301 324.35 271.614 329.08 272.072 334.727C272.187 335.986 272.339 337.397 273.141 337.702C274.057 338.046 275.241 336.901 275.431 336.711C277.264 334.994 276.996 332.743 277.493 329.805C278.371 324.579 281.005 320.878 281.959 319.543C283.219 317.788 283.219 318.284 286.654 314.354C289.288 311.302 290.624 309.738 291.426 308.327C292.456 306.495 293.983 302.795 292.952 296.576C294.441 289.938 296.35 281.201 298.296 270.863C299.938 262.05 302.572 247.82 304.786 228.897C306.351 215.315 307.038 205.015 307.42 199.025C308.298 185.367 308.832 177.05 308.565 165.3C308.221 151.223 307.267 155.038 306.465 136.954C306.465 136.954 306.045 127.684 303.106 116.506C302.763 115.208 301.885 112.004 299.48 108.608C297.953 106.434 296.312 104.107 293.22 102.924C290.013 101.741 285.776 101.894 282.951 104.221Z" fill="white"/>
<path opacity="0.25" d="M293.105 102.926C293.868 107.809 294.899 114.6 295.891 122.764C297.571 136.575 300.243 162.975 299.785 197.615C299.441 223.024 299.212 243.053 293.907 269.873C291.273 283.34 288.181 294.365 285.776 302.11C283.104 305.696 279.859 310.808 277.302 317.408C274.172 325.496 273.255 332.707 273.026 337.704C273.561 337.514 274.324 337.17 275.088 336.522C277.493 334.423 277.263 331.142 277.874 328.243C278.332 325.916 279.974 323.589 283.18 318.972C289.135 310.465 292.532 309.74 293.716 304.704C294.479 301.461 293.868 298.447 293.105 296.235C293.601 293.869 294.288 290.398 295.128 286.239C297.495 274.222 301.808 252.133 304.671 228.899C307.572 205.131 307.801 189.299 308.183 158.778C308.221 156.718 307 145.387 304.518 122.802C304.289 120.818 303.831 116.965 301.617 112.654C299.098 107.771 295.51 104.681 293.105 102.926Z" fill="#B3B3C3"/>
<path d="M282.455 104.297C277.035 113.453 277.493 124.44 278.332 134.665C279.401 147.14 280.966 159.539 281.653 172.052C283.066 197.27 281.921 222.564 280.623 247.781C279.897 261.897 279.172 275.975 278.447 290.09C278.409 290.815 279.554 290.815 279.592 290.09C280.89 265.14 282.455 240.189 283.18 215.239C283.524 202.878 283.6 190.479 283.104 178.118C282.608 165.834 281.31 153.626 280.088 141.379C278.905 129.362 276.958 115.818 283.409 104.869C283.791 104.221 282.799 103.648 282.455 104.297Z" fill="#2E2640"/>
<path d="M283.333 104.642C288.601 99.8729 295.701 104.031 298.907 108.991C302.343 114.217 303.717 120.589 304.595 126.693C306.542 140.236 307.229 154.047 307.42 167.743C307.839 195.402 305.396 223.061 301.121 250.377C298.754 265.599 295.777 280.745 292.456 295.814C292.303 296.539 293.41 296.844 293.563 296.119C299.9 267.659 304.786 238.855 307.114 209.785C308.297 195.211 308.794 180.561 308.527 165.911C308.374 158.663 308.068 151.414 307.496 144.166C306.961 137.222 306.427 130.203 305.167 123.335C304.022 116.964 301.999 109.83 297.228 105.176C293.296 101.323 286.845 99.8729 282.493 103.841C281.997 104.298 282.799 105.138 283.333 104.642Z" fill="#2E2640"/>
<path d="M278.828 290.359C276.652 291.885 274.362 293.22 271.881 294.212C270.201 294.899 268.407 295.242 266.766 296.005C263.216 297.608 261.193 301.118 260.048 304.704C259.819 305.391 260.926 305.696 261.155 305.009C262.491 301.003 264.743 297.76 268.942 296.463C272.721 295.319 276.156 293.602 279.401 291.351C280.012 290.931 279.439 289.94 278.828 290.359Z" fill="#2E2640"/>
<path d="M271.156 299.362C264.247 302.491 257.3 305.581 250.543 309.014C247.833 310.388 245.504 312.028 244.054 314.737C242.603 317.407 241.878 320.536 241.229 323.473C240.886 324.999 239.702 328.28 241.42 329.463C243.329 330.798 245.199 327.555 246.077 326.411C250.314 320.917 254.093 314.355 261.117 312.143C261.804 311.914 261.537 310.807 260.811 311.036C256.04 312.524 252.49 315.996 249.512 319.887C247.604 322.329 245.924 324.923 243.901 327.288C243.634 327.594 243.405 327.899 243.099 328.204C242.641 328.128 242.183 328.09 241.763 328.013C241.382 327.555 241.84 326.068 241.954 325.572C242.26 324.007 242.603 322.481 243.023 320.955C243.748 318.17 244.626 315.157 246.688 313.02C248.711 310.884 251.65 309.777 254.246 308.518C260.048 305.733 265.888 303.025 271.767 300.392C272.416 300.049 271.843 299.057 271.156 299.362Z" fill="#2E2640"/>
<path d="M261.651 310.426C257.299 313.325 252.337 316.835 251.344 322.367C250.81 325.419 251.421 328.7 251.917 331.714C252.299 334.117 252.642 336.635 254.665 338.199C255.009 338.466 255.391 338.161 255.505 337.856C257.032 334.117 257.147 330.073 258.33 326.258C259.704 321.909 262.987 319.124 266.499 316.453C267.071 316.034 266.499 315.004 265.926 315.461C262.72 317.865 259.475 320.421 257.872 324.198C256.04 328.471 256.154 333.278 254.398 337.551C254.665 337.436 254.971 337.322 255.238 337.207C253.291 335.719 253.177 332.591 252.833 330.378C252.413 327.517 251.841 324.351 252.681 321.489C254.017 316.873 258.406 313.935 262.185 311.418C262.834 310.998 262.262 310.006 261.651 310.426Z" fill="#2E2640"/>
<path d="M254.704 337.932C256.574 338.505 257.987 337.246 259.132 335.872C260.735 333.927 261.995 331.752 263.216 329.578C265.85 324.961 268.522 320.04 273.561 317.675C274.21 317.369 273.637 316.377 272.988 316.683C269.247 318.476 266.614 321.68 264.514 325.152C263.331 327.06 262.3 329.043 261.155 330.989C260.086 332.744 257.643 337.665 255.047 336.864C254.284 336.597 253.979 337.704 254.704 337.932Z" fill="#2E2640"/>
<path d="M292.265 295.891C292.456 298.753 292.647 301.69 292.074 304.513C291.54 307.222 290.204 309.511 288.41 311.609C285.28 315.234 281.615 318.171 279.478 322.559C278.447 324.695 277.683 326.984 276.996 329.273C276.653 330.494 276.309 331.753 275.966 333.012C275.584 334.347 275.431 336.903 273.523 336.636C271.729 336.407 272.492 328.739 272.568 327.518C272.759 324.237 273.217 321.033 273.943 317.828C274.095 317.103 272.988 316.798 272.836 317.523C272.072 321.032 271.576 324.619 271.385 328.243C271.309 329.883 271.309 331.562 271.347 333.203C271.385 334.385 271.385 335.759 272.072 336.789C272.95 338.048 274.706 338.467 275.737 337.208C276.576 336.216 276.729 334.538 277.073 333.317C277.493 331.753 277.912 330.189 278.371 328.663C279.401 325.229 280.775 321.872 283.028 319.049C284.86 316.76 287.112 314.814 289.021 312.639C290.815 310.617 292.265 308.405 292.952 305.772C293.83 302.568 293.601 299.172 293.41 295.891C293.372 295.166 292.227 295.166 292.265 295.891Z" fill="#2E2640"/>
<path d="M215.158 26.2424C207.752 31.1638 205.767 39.5188 203.362 49.8576C201.988 55.6564 197.217 76.1051 208.516 92.1284C210.882 95.4856 216.914 104.031 224.739 103.192C229.587 102.696 232.908 98.8047 234.32 96.9353C237.374 100.216 240.428 103.535 243.481 106.816C246.268 106.282 250.314 105.1 254.475 102.467C265.163 95.6382 268.331 84.1931 269.973 78.1271C271.538 72.4045 275.088 59.4715 268.484 46.6529C265.278 40.4344 261.04 36.8482 258.636 34.8644C248.291 26.2042 228.212 17.6203 215.158 26.2424Z" fill="white"/>
<path opacity="0.27" d="M240.466 41.2366C242.26 44.4794 244.741 49.9349 245.123 56.9546C245.734 67.5986 241.306 75.6865 237.259 83.0114C234.854 87.3987 230.846 93.6173 224.472 100.027C227.144 99.5306 230.541 98.615 234.282 96.8982C239.473 94.4566 243.176 91.3282 245.505 89.0392C246.001 90.5271 249.131 99.5306 253.482 99.4925C255.048 99.4543 256.231 98.2716 256.918 97.5086C272.53 80.6079 272.225 65.8055 272.225 65.8055C272.149 61.876 271.385 54.6656 266.995 47.6077C265.469 45.1279 263.751 42.4192 260.583 40.4736C252.452 35.514 241.993 40.5117 240.466 41.2366Z" fill="#B3B3C3"/>
<path d="M219.127 26.8153C220.654 26.1286 222.868 25.48 224.739 26.3575C228.212 27.9979 228.136 33.7587 229.014 37.383C230.235 42.5715 235.618 48.8663 253.52 53.9785C254.208 51.3079 256.192 49.286 258.559 48.8663C262.147 48.294 265.239 51.7276 265.812 54.7796C266.155 56.7253 265.43 58.2895 264.705 59.93C264.056 61.3797 262.453 64.8514 259.361 65.3092C258.101 65.4999 257.032 65.1184 256.421 64.8132C256.421 66.9878 256.307 70.1925 255.696 74.0457C254.284 82.744 251.345 87.8562 249.741 92.2053C248.138 96.5545 244.016 109.259 249.512 118.033C255.353 127.38 271.729 131.5 281.882 124.786C289.898 119.483 291.158 109.373 291.769 104.337C292.341 99.6065 292.112 94.6851 285.7 74.9231C280.89 60.0444 278.485 52.6432 273.561 42.5715C264.323 23.6488 257.758 18.8037 255.811 17.4302C253.215 15.599 247.527 11.7077 239.397 10.6776C225.884 8.96082 212.066 15.9424 204.775 26.1667C200.805 31.7749 199.736 40.3969 197.598 57.6028C196.911 63.2109 196.529 71.7566 195.804 88.8099C195.27 101.133 195.27 105.177 196.491 110.823C197.942 117.575 199.583 125.32 206.378 130.585C207.523 131.462 215.463 137.643 224.357 134.858C233.289 132.073 236.305 122.421 237.183 119.597C240.58 108.61 235.618 99.0724 234.396 96.8979C231.113 97.9279 227.869 98.9961 224.586 100.026C222.486 99.3013 219.433 97.9661 216.264 95.5244C210.691 91.2134 208.248 85.9868 207.256 83.8504C206.225 81.5995 205.08 78.3948 204.317 72.1763C203.21 63.0965 202.179 54.2837 206.111 44.3264C209.355 36.0859 214.776 30.3633 219.127 26.8153Z" fill="#2E2640"/>
<path d="M204.813 44.1371C203.019 55.6967 201.797 67.9431 205.5 79.3119C208.401 88.2392 214.394 96.4415 223.174 100.295C223.861 100.6 224.433 99.608 223.746 99.3028C215.043 95.4878 209.203 87.3617 206.416 78.4726C202.981 67.4853 204.164 55.6586 205.882 44.4423C206.034 43.7175 204.927 43.4123 204.813 44.1371Z" fill="#2E2640"/>
<path d="M223.899 100.448C232.755 99.0359 241 94.4197 247.337 88.1249C253.33 82.2115 257.872 74.1999 256.994 65.5397C256.918 64.8149 255.773 64.8149 255.849 65.5397C256.727 74.1236 252.108 81.9826 246.077 87.7434C239.893 93.6567 232.068 98.0059 223.555 99.3411C222.868 99.4556 223.174 100.562 223.899 100.448Z" fill="#2E2640"/>
<path d="M256.078 65.2708C258.864 67.0638 261.88 64.9274 263.636 62.6765C265.697 60.0441 266.766 56.4961 266.193 53.177C265.659 50.125 263.445 47.8741 260.239 47.9886C256.803 48.103 254.398 50.8117 252.986 53.673C252.681 54.3215 253.673 54.932 253.978 54.2452C255.085 51.9944 256.727 49.8198 259.322 49.2475C262.453 48.5608 264.705 50.7354 265.086 53.7111C265.392 56.1146 264.819 58.5944 263.598 60.6927C262.3 62.9054 259.399 66.1101 256.612 64.317C256.04 63.8973 255.467 64.8892 256.078 65.2708Z" fill="#2E2640"/>
<path d="M233.9 97.3158C236.19 100.253 238.671 103 241.343 105.594C242.069 106.281 243.061 107.655 244.168 107.693C245.313 107.731 246.802 106.586 247.795 106.09C248.444 105.747 247.871 104.793 247.222 105.098C245.695 105.861 244.435 106.663 242.87 105.48C241.802 104.679 240.924 103.572 240.007 102.619C238.137 100.673 236.381 98.6129 234.702 96.4764C234.282 95.9423 233.48 96.7435 233.9 97.3158Z" fill="#2E2640"/>
<path d="M217.715 79.6157C224.586 79.7683 228.708 73.8549 231.953 68.6665C232.335 68.0561 231.342 67.4457 230.961 68.0942C227.945 72.9393 224.128 78.6238 217.677 78.4712C216.99 78.4712 216.99 79.6157 217.715 79.6157Z" fill="#2E2640"/>
<path d="M229.93 58.0996C231.037 58.0996 231.037 56.3828 229.93 56.3828C228.823 56.3828 228.823 58.0996 229.93 58.0996Z" fill="#2E2640"/>
<path d="M235.427 55.5801C236.534 55.5801 236.534 53.8633 235.427 53.8633C234.32 53.8633 234.32 55.5801 235.427 55.5801Z" fill="#2E2640"/>
<path d="M234.969 61.0761C236.076 61.0761 236.076 59.3594 234.969 59.3594C233.862 59.3594 233.862 61.0761 234.969 61.0761Z" fill="#2E2640"/>
<path d="M207.294 62.866V62.7134C207.294 62.2556 206.912 61.8359 206.416 61.8359C205.958 61.8741 205.538 62.2174 205.538 62.7134V62.866C205.538 63.3238 205.92 63.7435 206.416 63.7435C206.912 63.7053 207.294 63.362 207.294 62.866Z" fill="#2E2640"/>
<path d="M209.89 62.4863C210.997 62.4863 210.997 60.7695 209.89 60.7695C208.783 60.7695 208.783 62.4863 209.89 62.4863Z" fill="#2E2640"/>
<path d="M209.737 69.3926C210.844 69.3926 210.844 67.6758 209.737 67.6758C208.63 67.6758 208.63 69.3926 209.737 69.3926Z" fill="#2E2640"/>
<path d="M214.89 42.496C214.165 52.8348 213.86 63.1736 213.974 73.5124C213.974 74.1228 214.738 74.2373 215.043 73.8176C216.455 71.9101 217.829 70.0026 219.242 68.095C219.662 67.4846 218.669 66.9124 218.249 67.5228C216.837 69.4303 215.463 71.3378 214.05 73.2453C214.394 73.3598 214.776 73.4361 215.119 73.5505C215.005 63.2117 215.31 52.8729 216.035 42.5341C216.112 41.7711 214.967 41.7711 214.89 42.496Z" fill="#2E2640"/>
<path d="M209.89 56.9561C210.585 56.9561 211.149 55.2652 211.149 53.1792C211.149 51.0933 210.585 49.4023 209.89 49.4023C209.194 49.4023 208.63 51.0933 208.63 53.1792C208.63 55.2652 209.194 56.9561 209.89 56.9561Z" fill="#2E2640"/>
<path d="M228.403 52.378C229.099 52.378 229.663 50.6871 229.663 48.6011C229.663 46.5152 229.099 44.8242 228.403 44.8242C227.708 44.8242 227.144 46.5152 227.144 48.6011C227.144 50.6871 227.708 52.378 228.403 52.378Z" fill="#2E2640"/>
<path d="M207.485 45.6243C208.21 44.1746 209.737 41.7711 211.645 43.0301C212.256 43.4497 212.829 42.4578 212.218 42.0382C209.699 40.3977 207.485 42.9919 206.492 45.052C206.149 45.7006 207.141 46.2729 207.485 45.6243Z" fill="#2E2640"/>
<path d="M224.51 38.9456C225.807 35.1687 230.35 34.3676 232.984 37.3052C233.48 37.8393 234.282 37.0381 233.785 36.504C230.541 32.8797 224.968 34.1005 223.403 38.6404C223.135 39.3271 224.242 39.6323 224.51 38.9456Z" fill="#2E2640"/>
</g>
<defs>
<clipPath id="clip0_217_1193">
<rect width="489" height="402" fill="white"/>
</clipPath>
</defs>
</svg>
