<svg width="592" height="436" viewBox="0 0 592 436" fill="none" xmlns="http://www.w3.org/2000/svg">
<path d="M382.21 108.128C385.541 108.128 388.241 105.476 388.241 102.206C388.241 98.9347 385.541 96.2832 382.21 96.2832C378.879 96.2832 376.179 98.9347 376.179 102.206C376.179 105.476 378.879 108.128 382.21 108.128Z" fill="#FF4545"/>
<path d="M388.611 91.7053C390.164 91.7053 391.423 90.469 391.423 88.944C391.423 87.4189 390.164 86.1826 388.611 86.1826C387.058 86.1826 385.799 87.4189 385.799 88.944C385.799 90.469 387.058 91.7053 388.611 91.7053Z" fill="#FF4545"/>
<path d="M204.24 55.7715C205.834 55.7715 207.126 54.5027 207.126 52.9375C207.126 51.3723 205.834 50.1035 204.24 50.1035C202.646 50.1035 201.354 51.3723 201.354 52.9375C201.354 54.5027 202.646 55.7715 204.24 55.7715Z" fill="#FF4545"/>
<path d="M393.088 387.459C395.785 387.459 397.972 385.311 397.972 382.663C397.972 380.014 395.785 377.867 393.088 377.867C390.391 377.867 388.204 380.014 388.204 382.663C388.204 385.311 390.391 387.459 393.088 387.459Z" fill="#FF4545"/>
<path d="M170.829 403.881C172.076 403.881 173.086 402.889 173.086 401.665C173.086 400.441 172.076 399.449 170.829 399.449C169.583 399.449 168.572 400.441 168.572 401.665C168.572 402.889 169.583 403.881 170.829 403.881Z" fill="#FF4545"/>
<path d="M199.022 240.163C200.31 240.163 201.353 239.139 201.353 237.874C201.353 236.61 200.31 235.585 199.022 235.585C197.735 235.585 196.691 236.61 196.691 237.874C196.691 239.139 197.735 240.163 199.022 240.163Z" fill="#FF4545"/>
<path d="M203.611 251.826C204.858 251.826 205.868 250.834 205.868 249.61C205.868 248.386 204.858 247.394 203.611 247.394C202.365 247.394 201.354 248.386 201.354 249.61C201.354 250.834 202.365 251.826 203.611 251.826Z" fill="#FF4545"/>
<path d="M200.909 313.593C203.239 313.593 205.127 311.739 205.127 309.451C205.127 307.164 203.239 305.309 200.909 305.309C198.58 305.309 196.691 307.164 196.691 309.451C196.691 311.739 198.58 313.593 200.909 313.593Z" fill="#FF4545"/>
<path d="M378.843 78.1895C380.314 78.1895 381.507 77.0183 381.507 75.5735C381.507 74.1287 380.314 72.9575 378.843 72.9575C377.372 72.9575 376.179 74.1287 376.179 75.5735C376.179 77.0183 377.372 78.1895 378.843 78.1895Z" fill="#FF4545"/>
<path d="M277.5 82.7675C278.787 82.7675 279.831 81.7426 279.831 80.4785C279.831 79.2143 278.787 78.1895 277.5 78.1895C276.213 78.1895 275.169 79.2143 275.169 80.4785C275.169 81.7426 276.213 82.7675 277.5 82.7675Z" fill="#FF4545"/>
<path d="M69.6705 261.818C70.6514 261.818 71.4465 261.037 71.4465 260.074C71.4465 259.111 70.6514 258.33 69.6705 258.33C68.6897 258.33 67.8945 259.111 67.8945 260.074C67.8945 261.037 68.6897 261.818 69.6705 261.818Z" fill="#FF4545"/>
<path d="M386.909 399.449C389.361 399.449 391.349 397.496 391.349 395.089C391.349 392.681 389.361 390.729 386.909 390.729C384.456 390.729 382.469 392.681 382.469 395.089C382.469 397.496 384.456 399.449 386.909 399.449Z" fill="#FF4545"/>
<path d="M434.454 26.16C435.741 26.16 436.785 25.1352 436.785 23.871C436.785 22.6068 435.741 21.582 434.454 21.582C433.167 21.582 432.123 22.6068 432.123 23.871C432.123 25.1352 433.167 26.16 434.454 26.16Z" fill="#FF4545"/>
<path d="M207.977 126.767C207.607 124.514 207.274 120.009 210.937 120.372C212.269 120.518 213.009 121.68 214.489 121.172C217.264 120.227 216.635 116.703 217.782 114.668C219.669 111.398 223.332 116.158 226.144 114.595C227.069 114.087 227.291 113.142 227.254 112.161C227.18 108.491 230.473 108.746 233.174 109.472C233.877 109.654 234.173 108.6 233.47 108.419C230.732 107.692 226.181 107.438 226.07 111.325C226.033 112.27 226.551 113.215 225.145 113.796C224.701 113.978 223.961 113.76 223.554 113.651C222.592 113.36 221.741 112.706 220.742 112.452C219.447 112.088 218.189 112.343 217.301 113.36C216.191 114.668 216.228 116.448 215.71 117.974C215.155 119.609 214.082 120.554 212.269 119.755C211.529 119.428 210.863 119.137 210.012 119.246C206.201 119.755 206.386 124.296 206.867 127.058C207.015 127.748 208.088 127.457 207.977 126.767Z" fill="#FF4545"/>
<path d="M212.343 128.874C212.639 126.622 214.489 125.641 216.635 125.641C217.782 125.641 218.929 125.822 220.039 125.423C222.555 124.478 222.074 121.789 222.666 119.682C223.776 115.685 228.919 118.156 231.768 117.502C233.692 117.03 235.32 115.14 234.506 113.142C234.247 112.488 233.174 112.779 233.433 113.433C234.691 116.448 230.399 116.63 228.586 116.412C227.254 116.267 225.959 116.049 224.627 116.376C222.518 116.921 221.704 118.447 221.408 120.409C221.149 122.225 221.186 124.224 218.781 124.514C217.486 124.66 216.191 124.296 214.896 124.587C212.824 125.059 211.492 126.767 211.233 128.802C211.122 129.565 212.232 129.565 212.343 128.874Z" fill="#FF4545"/>
<path d="M288.786 39.6398C287.491 41.2384 286.122 43.2004 286.751 45.3441C287.269 47.0881 288.675 47.7421 290.377 47.6331C291.376 47.5604 292.412 47.3061 293.226 48.1781C293.855 48.8321 293.448 50.2128 293.263 50.9394C292.967 52.0658 292.412 53.1558 292.523 54.3548C292.708 55.9898 294.04 57.2614 295.742 56.8981C296.445 56.7528 296.149 55.6991 295.446 55.8444C292.227 56.5711 294.447 51.3028 294.595 50.0311C294.706 48.9774 294.521 47.8148 293.707 47.0518C292.893 46.2888 291.894 46.3614 290.858 46.4704C289.23 46.6521 287.713 46.1434 287.639 44.2178C287.602 42.7644 288.638 41.4564 289.526 40.3664C290.044 39.8941 289.23 39.0948 288.786 39.6398Z" fill="#FF4545"/>
<path d="M297.517 39.0948C295.778 39.8214 294.668 41.6018 295.112 43.4548C295.334 44.2904 295.852 45.0898 296.592 45.5984C297.48 46.2524 298.516 46.1071 299.404 46.6521C301.069 47.6331 299.737 49.5588 299.811 51.0848C299.848 51.8478 300.033 52.5381 300.699 53.0104C301.698 53.7734 303.178 53.5191 303.585 52.2838C303.807 51.6298 302.734 51.3391 302.512 51.9931C301.106 51.8114 300.625 51.1938 301.032 50.1401C301.106 49.7768 301.18 49.4134 301.254 49.0501C301.328 48.6868 301.365 48.3234 301.365 47.9601C301.365 47.1971 301.143 46.3978 300.551 45.8528C299.663 45.0534 298.294 45.3804 297.332 44.7264C295.371 43.3821 296.074 40.8388 298.072 40.0031C298.738 39.7488 298.146 38.8404 297.517 39.0948Z" fill="#FF4545"/>
<path d="M55.5739 253.861C54.7229 252.553 54.7229 250.954 55.5739 249.61C56.4249 248.302 57.6089 248.266 58.9779 247.757C60.8649 246.994 60.9019 245.068 60.7909 243.324C60.7539 242.707 60.7169 242.053 60.9019 241.435C61.3829 239.982 62.6409 240.381 63.7879 240.563C64.4539 240.672 65.0829 240.563 65.6379 240.2C66.3409 239.727 66.7849 238.892 67.0069 238.092C67.1919 237.438 67.2289 236.748 67.3769 236.094C67.4509 235.622 67.5989 235.186 67.8209 234.786C68.4129 233.878 69.1159 233.805 69.9669 234.604C70.1519 235.295 71.2249 235.004 71.0399 234.314C70.3739 231.952 67.4139 233.006 66.6739 234.677C66.3409 235.44 66.3039 236.276 66.1189 237.075C66.0079 237.547 65.9339 238.056 65.6749 238.492C65.1199 239.473 64.0839 239.291 63.1219 239.182C61.9749 239.073 61.0869 238.964 60.3469 240.018C59.4959 241.217 59.7179 242.634 59.7179 244.015C59.7549 245.686 59.3849 246.34 57.7199 246.885C57.0539 247.103 56.4989 247.212 55.9069 247.648C53.7609 249.138 53.2059 252.226 54.6119 254.37C54.9819 254.987 55.9439 254.442 55.5739 253.861Z" fill="#FF4545"/>
<path d="M60.1986 256.368C58.6446 256.15 59.2366 254.479 59.9396 253.825C60.4576 253.352 61.1606 253.062 61.8266 252.735C62.6406 252.335 63.4546 251.863 64.0466 251.172C65.6376 249.21 63.3436 246.594 65.5636 245.032C67.7836 243.506 73.7406 242.816 72.0016 238.746C71.7426 238.092 70.7806 238.674 71.0396 239.291C72.2976 242.234 66.1926 243.106 64.6386 244.342C64.0836 244.778 63.6026 245.359 63.3806 246.049C62.9366 247.575 64.2316 249.138 63.0846 250.591C61.7526 252.19 58.9036 252.19 58.2376 254.442C57.8306 255.714 58.5336 257.24 59.9396 257.458C60.6056 257.531 60.9016 256.477 60.1986 256.368Z" fill="#FF4545"/>
<path d="M465.793 171.93C465.312 171.094 465.386 170.186 465.904 169.386C466.718 168.224 467.68 168.478 468.938 168.587C469.789 168.66 470.566 168.841 471.38 168.369C472.823 167.497 472.601 165.68 472.86 164.3C473.452 161.066 476.301 164.009 478.225 162.992C478.928 162.628 479.187 161.938 479.335 161.211C479.594 159.794 479.668 155.58 482.443 157.287C483.035 157.651 483.627 156.706 482.998 156.343C480.519 154.853 478.521 157.324 478.299 159.613C478.151 160.921 478.299 162.192 476.523 162.011C475.894 161.938 475.265 161.611 474.636 161.538C473.637 161.429 472.749 161.72 472.194 162.592C471.565 163.609 471.787 164.881 471.528 165.971C470.973 168.442 468.827 167.061 467.088 167.352C464.757 167.751 463.684 170.513 464.794 172.438C465.164 173.092 466.126 172.547 465.793 171.93Z" fill="#FF4545"/>
<path d="M471.305 174.218C470.676 172.547 472.637 170.694 474.339 171.566C474.561 171.675 474.857 171.675 475.005 171.493C475.856 170.585 476.078 169.531 476.448 168.369C477.114 166.261 478.705 165.971 480.629 165.389C482.516 164.808 484.625 163.282 483.848 161.102C483.589 160.448 482.516 160.739 482.775 161.393C483.848 164.263 478.594 164.481 477.04 165.535C475.153 166.843 475.708 169.204 474.265 170.73C474.487 170.694 474.709 170.658 474.931 170.658C472.452 169.386 469.307 171.893 470.269 174.545C470.491 175.163 471.564 174.909 471.305 174.218Z" fill="#FF4545"/>
<path d="M321.863 183.738C321.937 183.738 322.751 185.7 323.084 185.954C323.602 186.354 324.231 186.39 324.86 186.281C325.97 186.099 326.673 185.3 327.635 184.791C329.707 183.629 329.707 185.627 330.521 186.753C331.446 188.098 332.445 187.444 333.518 186.79C334.221 186.354 334.887 186.063 335.516 186.681C335.849 187.008 336.071 187.553 336.33 187.952C336.737 188.534 337.181 189.006 337.847 189.297C338.476 189.587 339.068 188.643 338.402 188.352C336.885 187.698 336.7 185.227 334.887 184.973C334.036 184.864 333.666 185.336 333 185.7C332.186 186.172 331.705 186.499 331.187 185.591C330.965 185.227 330.928 184.719 330.669 184.355C329.485 182.43 327.635 183.483 326.155 184.428C325.896 184.61 325.637 184.791 325.341 184.937C324.712 184.755 324.046 184.573 323.417 184.392C323.158 184.137 323.158 183.52 322.936 183.193C322.566 182.684 322.196 182.539 321.604 182.648C320.864 182.793 321.16 183.847 321.863 183.738Z" fill="#FF4545"/>
<path d="M330.557 180.25C331.667 178.542 334.22 182.103 335.256 182.539C335.885 182.793 336.477 182.793 337.143 182.611C337.439 182.539 337.698 182.393 337.957 182.284C338.956 181.885 339.807 182.139 340.621 182.829C341.805 183.81 342.138 185.118 343.84 185.482C344.839 185.7 345.764 185.409 346.208 184.464C346.504 183.847 345.542 183.265 345.246 183.919C344.21 186.099 341.361 181.812 340.621 181.34C339.252 180.468 338.401 181.194 337.032 181.485C334.849 181.921 334.146 179.523 332.333 178.942C331.26 178.578 330.224 178.76 329.632 179.741C329.188 180.322 330.15 180.867 330.557 180.25Z" fill="#FF4545"/>
<path d="M468.826 243.76C488.473 243.76 508.12 243.76 527.804 243.76C528.507 243.76 528.507 242.67 527.804 242.67C508.157 242.67 488.51 242.67 468.826 242.67C468.123 242.67 468.123 243.76 468.826 243.76Z" fill="#F2F2F2"/>
<path d="M484.921 243.506C484.921 249.138 484.921 254.733 484.921 260.365C484.921 261.055 486.031 261.055 486.031 260.365C486.031 254.733 486.031 249.138 486.031 243.506C486.031 242.816 484.921 242.816 484.921 243.506Z" fill="#F2F2F2"/>
<path d="M512.375 242.961C512.375 235.113 512.375 227.265 512.375 219.417C512.375 218.727 511.265 218.727 511.265 219.417C511.265 227.265 511.265 235.113 511.265 242.961C511.265 243.688 512.375 243.688 512.375 242.961Z" fill="#F2F2F2"/>
<path d="M499.314 219.853C506.751 219.853 514.188 219.853 521.625 219.853C522.328 219.853 522.328 218.763 521.625 218.763C514.188 218.763 506.751 218.763 499.314 218.763C498.611 218.763 498.611 219.853 499.314 219.853Z" fill="#F2F2F2"/>
<path d="M484.699 89.0168C484.699 95.8111 484.699 102.605 484.699 109.363C484.699 110.054 485.809 110.054 485.809 109.363C485.809 102.569 485.809 95.7748 485.809 89.0168C485.809 88.3264 484.699 88.3264 484.699 89.0168Z" fill="#F2F2F2"/>
<path d="M467.42 110.926C480.777 110.926 494.097 110.926 507.454 110.926C508.157 110.926 508.157 109.836 507.454 109.836C494.097 109.836 480.777 109.836 467.42 109.836C466.68 109.836 466.68 110.926 467.42 110.926Z" fill="#F2F2F2"/>
<path d="M507.085 110.78C507.085 115.286 507.085 119.791 507.085 124.296C507.085 124.987 508.195 124.987 508.195 124.296C508.195 119.791 508.195 115.286 508.195 110.78C508.195 110.09 507.085 110.09 507.085 110.78Z" fill="#F2F2F2"/>
<path d="M135.493 67.8346C148.554 67.8346 161.652 67.8346 174.713 67.8346C175.416 67.8346 175.416 66.7446 174.713 66.7446C161.652 66.7446 148.554 66.7446 135.493 66.7446C134.79 66.7446 134.753 67.8346 135.493 67.8346Z" fill="#F2F2F2"/>
<path d="M173.086 67.7257C173.086 71.2137 173.086 74.7017 173.086 78.1897C173.086 78.88 174.196 78.88 174.196 78.1897C174.196 74.7017 174.196 71.2137 174.196 67.7257C174.196 66.999 173.086 66.999 173.086 67.7257Z" fill="#F2F2F2"/>
<path d="M161.209 66.8534C161.209 61.258 161.209 55.699 161.209 50.1037C161.209 49.4134 160.099 49.4134 160.099 50.1037C160.099 55.699 160.099 61.258 160.099 66.8534C160.099 67.58 161.209 67.58 161.209 66.8534Z" fill="#F2F2F2"/>
<path d="M57.9042 179.814C66.9322 179.814 75.9602 179.814 84.9882 179.814C85.6912 179.814 85.6912 178.724 84.9882 178.724C75.9602 178.724 66.9322 178.724 57.9042 178.724C57.2012 178.724 57.2012 179.814 57.9042 179.814Z" fill="#F2F2F2"/>
<path d="M74.4432 168.878C74.4432 172.148 74.4432 175.418 74.4432 178.688C74.4432 179.378 75.5532 179.378 75.5532 178.688C75.5532 175.418 75.5532 172.148 75.5532 168.878C75.5532 168.187 74.4432 168.187 74.4432 168.878Z" fill="#F2F2F2"/>
<path d="M67.9312 169.423C72.7412 169.423 77.5512 169.423 82.3612 169.423C83.0642 169.423 83.0642 168.333 82.3612 168.333C77.5512 168.333 72.7412 168.333 67.9312 168.333C67.1912 168.333 67.1912 169.423 67.9312 169.423Z" fill="#F2F2F2"/>
<path d="M230.879 398.504C242.941 398.504 255.003 398.504 267.065 398.504C267.768 398.504 267.768 397.414 267.065 397.414C255.003 397.414 242.941 397.414 230.879 397.414C230.139 397.414 230.139 398.504 230.879 398.504Z" fill="#F2F2F2"/>
<path d="M253.153 397.414C253.153 394.871 253.153 392.327 253.153 389.748C253.153 389.057 252.043 389.057 252.043 389.748C252.043 392.291 252.043 394.834 252.043 397.414C252.043 398.141 253.153 398.141 253.153 397.414Z" fill="#F2F2F2"/>
<path d="M249.786 389.784C254.781 389.784 259.813 389.784 264.808 389.784C265.511 389.784 265.511 388.694 264.808 388.694C259.813 388.694 254.781 388.694 249.786 388.694C249.083 388.694 249.083 389.784 249.786 389.784Z" fill="#F2F2F2"/>
<path d="M58.7548 379.393C70.8168 379.393 82.8788 379.393 94.9408 379.393C95.6438 379.393 95.6438 378.303 94.9408 378.303C82.8788 378.303 70.8168 378.303 58.7548 378.303C58.0518 378.303 58.0518 379.393 58.7548 379.393Z" fill="#F2F2F2"/>
<path d="M75.4785 365.15C75.4785 369.328 75.4785 373.543 75.4785 377.721C75.4785 378.412 76.5885 378.412 76.5885 377.721C76.5885 373.543 76.5885 369.328 76.5885 365.15C76.5885 364.46 75.4785 364.46 75.4785 365.15Z" fill="#F2F2F2"/>
<path d="M75.4787 363.515C70.6687 363.515 65.8217 363.515 61.0117 363.515C60.3087 363.515 60.3087 364.605 61.0117 364.605C65.8217 364.605 70.6687 364.605 75.4787 364.605C76.1817 364.605 76.1817 363.515 75.4787 363.515Z" fill="#F2F2F2"/>
<path d="M460.982 347.419C459.761 346.22 460.057 343.895 461.944 343.495C462.943 343.277 463.905 343.895 464.867 344.004C465.607 344.113 466.384 344.04 466.865 343.386C467.605 342.442 467.013 341.352 466.976 340.298C466.902 336.992 470.898 337.21 472.896 338.372C473.34 338.627 473.821 338.191 473.71 337.755C472.748 333.213 478.039 330.088 481.665 333.104C482.22 333.54 482.997 332.777 482.442 332.341C477.965 328.635 471.416 332.414 472.637 338.082C472.896 337.864 473.192 337.682 473.451 337.464C471.749 336.447 469.566 335.938 467.753 337.064C467.087 337.464 466.495 338.082 466.199 338.808C465.977 339.317 465.866 339.789 465.903 340.334C465.94 341.315 466.273 341.243 465.533 342.187C464.719 343.241 464.645 342.769 463.498 342.514C463.091 342.405 462.721 342.333 462.277 342.369C461.352 342.405 460.501 342.841 459.909 343.495C458.614 344.912 458.947 346.911 460.242 348.182C460.723 348.691 461.5 347.928 460.982 347.419Z" fill="#F2F2F2"/>
<path d="M468.198 348.509C467.791 345.203 473.304 345.167 474.858 342.878C475.265 342.296 475.413 341.642 475.672 341.025C476.153 339.898 477.004 339.172 478.262 338.845C480.297 338.336 482.406 339.244 484.256 340.007C484.922 340.262 485.218 339.208 484.552 338.954C481.148 337.573 476.56 336.52 474.673 340.589C474.007 342.042 473.785 342.841 472.231 343.604C471.306 344.04 470.344 344.295 469.456 344.803C468.05 345.603 466.94 346.838 467.125 348.509C467.199 349.2 468.309 349.2 468.198 348.509Z" fill="#F2F2F2"/>
<path d="M309.06 242.852C309.8 244.669 310.54 246.522 311.28 248.338C311.354 248.12 311.465 247.939 311.539 247.721C311.132 247.975 310.725 248.229 310.318 248.52C309.689 247.067 309.948 246.703 311.132 247.357C311.835 247.793 312.168 248.738 312.316 249.501C312.649 251.245 312.279 253.062 311.687 254.733C311.539 255.169 311.983 255.46 312.353 255.387C314.573 254.951 315.461 257.567 315.017 259.202C314.684 260.401 314.018 261.455 313.352 262.508C312.982 263.09 313.944 263.635 314.314 263.053C315.498 261.237 316.867 258.984 316.053 256.731C315.424 255.06 313.87 254.006 312.057 254.333C312.279 254.551 312.501 254.769 312.723 254.987C313.463 252.88 313.944 250.228 313.019 248.084C312.39 246.667 310.947 245.577 309.319 246.049C308.061 246.413 307.432 247.648 308.024 248.847C309.023 250.845 310.762 249.501 312.057 248.665C312.242 248.556 312.39 248.266 312.316 248.048C311.576 246.231 310.836 244.378 310.096 242.561C309.874 241.944 308.801 242.198 309.06 242.852Z" fill="#F2F2F2"/>
<path d="M90.2421 70.9592C89.5391 69.2152 91.9071 68.7428 93.0171 69.3605C93.8681 69.8328 94.4231 70.6685 94.9411 71.4315C95.4221 72.1218 95.9401 72.8848 96.1991 73.6842C96.4951 74.3745 96.4581 75.0285 96.0881 75.6825C94.7931 76.2638 94.1271 76.1185 94.0901 75.2828C93.7571 74.0838 95.0521 73.2845 96.1621 73.3208C97.3091 73.3572 98.3821 74.0112 99.1591 74.8105C100.491 76.1912 100.972 78.0078 100.787 79.8608C101.12 79.7518 101.49 79.6792 101.823 79.5702C101.083 78.5165 101.786 77.3902 102.785 76.8452C103.636 76.4092 104.598 76.5182 105.412 76.9542C106.744 77.6445 107.669 78.9162 108.52 80.0788C108.927 80.6602 109.889 80.1152 109.482 79.5338C108.076 77.6082 105.967 74.9195 103.192 75.5372C101.157 75.9732 99.5291 78.2985 100.861 80.1152C101.194 80.5875 101.823 80.3695 101.897 79.8245C102.23 76.3728 99.6401 71.6495 95.4961 72.2308C94.0161 72.4488 92.9431 73.4662 92.9431 74.9558C92.9431 76.1185 93.6831 77.3175 94.9411 77.3902C96.4211 77.4992 97.4201 76.0822 97.4941 74.7742C97.6051 72.9575 96.1621 70.9955 95.0521 69.6512C94.0161 68.4522 92.4991 67.4348 90.8711 68.0525C89.5391 68.5248 88.6511 69.8328 89.2061 71.1772C89.4281 71.9038 90.5011 71.6132 90.2421 70.9592Z" fill="#F2F2F2"/>
<path d="M285.158 124.26C283.604 123.352 284.714 120.663 286.453 121.789C288.118 122.879 285.898 124.732 284.825 123.461C284.381 122.916 283.604 123.679 284.048 124.224C284.899 125.241 286.527 125.168 287.489 124.333C288.599 123.352 288.303 121.753 287.156 120.954C286.009 120.154 284.344 120.3 283.641 121.608C282.938 122.843 283.419 124.514 284.64 125.205C285.195 125.532 285.75 124.623 285.158 124.26Z" fill="#F2F2F2"/>
<path d="M403.04 44.7992C402.226 43.6729 403.632 41.9652 404.927 42.4739C404.816 42.4012 404.705 42.2922 404.594 42.2195C405.297 43.4185 404.261 45.0535 402.892 44.9809C403.077 45.1262 403.262 45.2352 403.41 45.3805C403.188 44.7629 402.929 44.1089 402.707 43.4912C402.448 42.8372 401.375 43.1279 401.634 43.7819C401.856 44.3995 402.115 45.0535 402.337 45.6712C402.411 45.9255 402.596 46.0709 402.855 46.0709C404.039 46.1435 405.075 45.4169 405.593 44.3995C406 43.6002 406.222 41.9289 405.223 41.4202C403.04 40.3665 400.783 43.5639 402.078 45.3442C402.485 45.9255 403.447 45.3805 403.04 44.7992Z" fill="#F2F2F2"/>
<path d="M433.159 98.8269C432.974 97.9913 433.603 97.0829 434.454 96.9013C435.231 96.7559 435.934 97.3736 436.119 98.0639C436.6 99.6989 434.417 100.462 433.381 99.3356C432.9 98.8269 432.123 99.5899 432.604 100.099C434.528 102.206 438.228 100.135 437.044 97.4463C436.526 96.2473 435.231 95.4843 433.936 95.8839C432.567 96.3199 431.753 97.7369 432.049 99.1176C432.271 99.8079 433.344 99.5173 433.159 98.8269Z" fill="#F2F2F2"/>
<path d="M313.056 399.558C311.65 398.904 311.761 397.014 313.056 396.288C314.314 395.597 315.498 396.215 316.645 396.724C317.607 397.16 318.717 397.559 319.568 396.724C320.345 395.997 320.197 394.871 320.234 393.926C320.382 390.256 324.008 390.983 326.487 391.891C327.153 392.146 327.449 391.092 326.783 390.838C324.6 390.002 321.566 389.203 319.827 391.31C319.309 391.928 319.161 392.654 319.124 393.417C319.087 393.926 319.309 395.052 319.013 395.525C318.199 396.724 317.089 395.634 316.238 395.27C314.61 394.58 312.279 394.762 311.28 396.433C310.429 397.85 310.947 399.776 312.464 400.466C313.13 400.793 313.685 399.848 313.056 399.558Z" fill="#F2F2F2"/>
<path d="M330.966 313.92C329.856 327.254 330.448 340.625 332.742 353.814C332.853 354.504 333.926 354.214 333.815 353.523C331.558 340.443 330.966 327.145 332.076 313.92C332.15 313.23 331.04 313.23 330.966 313.92Z" fill="#F2F2F2"/>
<path d="M331.705 314.756C337.477 316.718 343.434 318.026 349.502 318.68C355.2 319.261 361.749 319.879 367.225 317.772C367.891 317.517 367.595 316.464 366.929 316.718C361.601 318.789 355.126 318.171 349.502 317.59C343.545 316.972 337.662 315.628 332.001 313.702C331.298 313.448 331.039 314.502 331.705 314.756Z" fill="#F2F2F2"/>
<path d="M340.511 316.246C338.587 313.303 336.996 310.178 335.886 306.835C335.368 305.237 334.924 303.638 334.591 302.003C334.406 301.022 334.221 300.041 334.11 299.06C334.11 298.951 333.703 296.371 334.48 296.735C334.85 296.916 335.479 296.589 335.294 296.117C333.259 291.067 332.149 285.762 332.038 280.312C331.853 280.494 331.668 280.675 331.483 280.857C331.779 280.966 332.038 281.075 332.334 281.184C332.704 281.62 333.407 281.148 333.259 280.639C332.519 278.314 332.038 275.916 331.89 273.445C331.853 272.864 331.964 266.324 332.371 266.433C332.815 266.542 333.111 266.142 333.037 265.779C332.334 261.673 332.001 257.495 332.186 253.353C332.26 251.282 332.445 249.247 332.778 247.212C333.074 245.359 333.222 243.107 334.702 241.762C334.406 241.726 334.11 241.69 333.814 241.653C336.922 247.394 338.661 253.68 340.252 259.929C341.806 266.069 343.175 272.282 344.359 278.532C346.764 291.43 348.281 304.474 348.947 317.59C348.984 318.28 350.094 318.28 350.057 317.59C349.391 304.401 347.874 291.248 345.432 278.241C344.211 271.774 342.805 265.343 341.177 258.948C339.586 252.808 337.847 246.704 334.776 241.072C334.591 240.745 334.147 240.745 333.888 240.963C332.63 242.089 332.26 243.579 331.964 245.141C331.557 247.358 331.261 249.647 331.113 251.899C330.817 256.623 331.113 261.346 331.927 266.033C332.149 265.815 332.371 265.597 332.593 265.379C330.447 264.798 330.706 269.339 330.669 270.357C330.521 273.917 331.076 277.478 332.149 280.893C332.445 280.712 332.778 280.53 333.074 280.348C332.593 279.803 332.186 279.622 331.446 279.694C331.15 279.731 330.891 279.912 330.891 280.239C331.002 285.762 332.112 291.176 334.184 296.335C334.443 296.117 334.739 295.935 334.998 295.717C331.298 293.973 333.444 302.185 333.74 303.42C334.85 308.143 336.848 312.649 339.512 316.718C339.956 317.372 340.918 316.827 340.511 316.246Z" fill="#F2F2F2"/>
<path d="M346.394 279.949C346.061 277.623 345.987 275.262 346.283 272.936C346.357 272.355 347.763 265.524 348.466 265.815C348.836 265.997 349.28 265.779 349.317 265.343C349.539 260.692 351.019 256.55 352.758 252.263C354.497 248.012 356.199 243.906 359.085 240.236C358.826 240.236 358.567 240.236 358.308 240.236C360.417 242.598 360.158 246.195 360.269 249.138C360.417 252.444 360.528 255.751 360.565 259.057C360.639 265.561 360.528 272.064 360.232 278.568C359.603 291.866 358.086 305.128 355.792 318.244C355.681 318.934 356.754 319.225 356.865 318.535C359.27 304.873 360.787 291.03 361.416 277.151C361.712 270.175 361.786 263.199 361.638 256.223C361.564 252.735 361.49 249.247 361.231 245.759C361.083 243.47 360.713 241.217 359.085 239.437C358.9 239.219 358.493 239.219 358.308 239.437C355.459 243.07 353.683 247.067 351.981 251.318C350.094 255.896 348.503 260.329 348.244 265.343C348.54 265.197 348.799 265.016 349.095 264.87C346.838 263.889 346.098 268.613 345.802 269.884C344.988 273.3 344.914 276.751 345.432 280.203C345.395 280.93 346.468 280.639 346.394 279.949Z" fill="#F2F2F2"/>
<path d="M333.259 354.723C344.84 358.392 357.383 358.211 368.853 354.214C369.519 353.996 369.223 352.942 368.557 353.16C357.272 357.084 344.951 357.266 333.555 353.669C332.852 353.451 332.556 354.505 333.259 354.723Z" fill="#F2F2F2"/>
<path d="M367.077 317.408C367.521 323.294 368.002 329.18 368.409 335.066C368.816 341.061 368.964 347.129 367.965 353.088C367.854 353.778 368.927 354.069 369.038 353.378C370.037 347.529 369.963 341.643 369.556 335.757C369.149 329.653 368.668 323.512 368.187 317.408C368.15 316.718 367.04 316.718 367.077 317.408Z" fill="#F2F2F2"/>
<path d="M169.607 364.06C177.155 360.099 184.74 356.139 192.288 352.179C195.84 352.76 200.724 353.523 206.57 354.322C218.262 355.921 237.095 358.501 260.923 359.191C284.751 359.881 302.622 358.392 309.43 357.738C325.821 356.212 335.737 354.141 343.84 351.997C351.203 350.035 357.271 347.891 361.6 346.256C365.152 347.419 369.111 348.981 373.329 351.125C375.734 352.36 377.954 353.632 379.915 354.904C372.959 356.866 363.598 359.373 352.461 361.916C329.003 367.293 311.021 369.837 307.247 370.382C285.676 373.397 254.929 377.648 216.264 373.252C204.239 371.835 188.218 369.255 169.607 364.06Z" fill="white"/>
<path d="M169.201 364.096C169.386 365.622 169.608 367.112 169.793 368.638C172.568 369.401 176.638 370.491 181.67 371.581C191.29 373.688 201.058 375.141 213.823 376.122C260.961 379.756 298.627 376.522 298.627 376.522C317.46 374.887 335.738 373.216 359.344 366.458C368.224 363.914 375.476 361.335 380.656 359.336C380.249 357.629 379.842 355.921 379.435 354.213C377.992 354.795 375.846 355.63 373.219 356.575C355.385 362.97 340.696 365.077 327.598 366.639C298.812 370.127 284.419 371.835 263.292 372.162C239.242 372.562 206.978 371.145 169.201 364.096Z" fill="#2E2640"/>
<path d="M168.941 364.786C168.941 365.949 168.941 367.112 168.941 368.274C168.941 368.965 170.051 368.965 170.051 368.274C170.051 367.112 170.051 365.949 170.051 364.786C170.051 364.06 168.941 364.06 168.941 364.786Z" fill="#2E2640"/>
<path d="M169.348 369.292C196.987 376.631 225.847 377.576 254.3 377.975C281.643 378.339 309.171 377.176 336.107 372.271C351.277 369.51 366.225 365.477 380.655 359.99C381.321 359.736 381.025 358.682 380.359 358.937C354.903 368.638 327.856 373.579 300.661 375.65C273.244 377.721 245.568 377.249 218.151 375.614C201.76 374.596 185.517 372.489 169.644 368.274C168.941 368.056 168.645 369.11 169.348 369.292Z" fill="#2E2640"/>
<path d="M380.655 359.227C380.877 357.701 380.951 356.139 380.803 354.613C380.729 353.923 379.619 353.923 379.693 354.613C379.804 356.066 379.804 357.52 379.582 358.937C379.471 359.591 380.544 359.918 380.655 359.227Z" fill="#2E2640"/>
<path d="M169.83 364.677C177.6 361.044 185.222 357.156 192.696 352.942C193.325 352.578 192.77 351.67 192.141 351.997C184.667 356.175 177.045 360.099 169.275 363.733C168.609 364.023 169.164 364.968 169.83 364.677Z" fill="#2E2640"/>
<path d="M192.399 352.433C236.54 360.681 282.42 362.207 326.931 355.958C338.771 354.286 350.537 351.707 361.489 346.911C362.155 346.62 361.563 345.675 360.934 345.966C351.092 350.253 340.584 352.76 329.965 354.395C319.161 356.067 308.246 357.084 297.331 357.774C275.168 359.155 252.894 358.792 230.805 356.721C218.003 355.522 205.312 353.705 192.695 351.38C191.992 351.271 191.696 352.324 192.399 352.433Z" fill="#2E2640"/>
<path d="M361.267 346.729C367.853 348.836 374.032 351.779 379.804 355.521C380.396 355.921 380.951 354.976 380.359 354.577C374.513 350.798 368.223 347.819 361.563 345.675C360.86 345.457 360.564 346.511 361.267 346.729Z" fill="#2E2640"/>
<path d="M169.904 364.096C182.965 368.42 196.581 370.455 210.271 371.545C224.146 372.635 238.132 372.962 252.044 372.962C279.683 372.962 307.396 371.109 334.628 366.24C350.094 363.479 365.411 359.736 380.322 354.831C380.988 354.613 380.692 353.56 380.026 353.778C353.793 362.352 326.524 367.366 298.996 369.837C271.616 372.308 243.94 372.453 216.486 370.854C200.798 369.91 185.074 367.984 170.126 363.043C169.534 362.825 169.238 363.878 169.904 364.096Z" fill="#2E2640"/>
<path d="M191.216 156.597C236.43 146.314 282.976 144.062 329.226 143.626C342.324 143.48 355.422 143.517 368.52 143.517C369.223 143.517 369.223 142.427 368.52 142.427C322.122 142.354 275.502 142.318 229.437 148.603C216.487 150.384 203.648 152.636 190.92 155.543C190.217 155.725 190.513 156.778 191.216 156.597Z" fill="#2E2640"/>
<path d="M370.814 142.535C371.295 159.43 371.591 179.014 371.48 200.778C371.406 213.422 371.295 207.39 370.148 260.001C369.482 290.303 369.297 301.712 367.114 319.224C365.708 330.633 364.006 340.007 362.748 346.365C372.294 348.981 381.396 351.452 389.388 353.632C401.746 357.011 405.039 357.919 409.96 358.61C417.582 359.627 426.869 359.772 437.599 357.629C441.558 325.801 443.741 298.66 444.999 277.877C449.513 204.847 445.295 171.202 443.667 159.394C441.447 143.48 438.709 130.4 436.6 121.353C428.682 122.843 422.244 124.441 417.73 125.64C402.227 129.819 389.943 134.724 379.657 138.866C375.846 140.428 372.775 141.7 370.814 142.535Z" fill="white"/>
<path d="M115.735 122.007C115.439 125.132 115.106 128.983 114.81 132.326C108.668 201.105 105.598 235.513 104.599 257.64C103.563 281.402 103.488 315.846 108.631 358.683C109.038 359.555 109.778 360.754 111.11 361.735C112.849 363.006 114.44 362.97 117.585 363.842C120.064 364.532 121.36 365.223 122.544 365.659C125.948 366.967 133.57 368.456 143.264 368.093C157.176 367.548 167.868 363.37 175.712 360.209C183.075 357.266 188.958 354.105 193.029 351.707C190.734 331.469 189.032 310.105 188.07 287.687C186.109 240.018 188.071 196.236 192.104 157.214C190.401 156.56 187.922 155.652 184.999 154.489C179.967 152.491 167.905 147.659 146.667 137.485C138.268 133.489 127.76 128.293 115.735 122.007Z" fill="white"/>
<path d="M436.377 121.208C436.821 123.606 437.413 126.912 438.079 130.873C439.004 136.504 441.076 149.839 442.593 167.351C444.147 185.591 444.517 201.287 444.554 213.785C444.665 239.146 443.703 257.749 441.187 301.131C440.41 314.647 439.263 334.448 437.82 358.61C439.337 358.501 440.817 358.428 442.334 358.319C443.074 352.288 444.073 343.314 444.85 332.341C445.442 324.42 445.701 318.643 445.96 312.43C447.255 283.945 447.477 284.272 447.921 272.645C448.809 249.719 448.624 232.097 448.476 216.256C448.365 205.32 448.032 194.965 447.366 174.255C446.885 160.157 446.404 147.659 443.148 131.418C442.297 127.276 441.483 123.824 440.891 121.462C439.374 121.39 437.894 121.317 436.377 121.208Z" fill="#2E2640"/>
<path d="M110.074 122.661C109.815 123.933 109.408 125.895 109.001 128.293C107.817 135.232 107.521 140.464 107.41 142.172C106.596 154.525 104.968 160.557 102.6 187.988C102.156 193.002 101.823 197.399 101.157 206.228C99.7881 224.249 99.1221 233.26 98.6411 243.433C98.1231 254.805 98.0491 262.835 97.9381 278.894C97.8271 292.774 97.7531 302.802 98.1231 315.918C98.4191 326.382 99.0111 340.588 100.454 357.52C103.451 358.392 106.411 359.264 109.408 360.136C109.371 358.501 109.26 355.558 109.038 351.888C108.15 335.574 106.707 328.962 106.374 315.373C106.263 311.195 106.337 308.433 106.374 304.473C106.781 276.06 106.3 263.089 106.559 244.632C107.003 214.512 109.075 190.968 110.851 170.912C112.516 151.946 114.403 135.705 116.031 122.988C113.996 122.879 112.035 122.77 110.074 122.661Z" fill="#2E2640"/>
<path d="M369.925 143.153C371.294 169.822 371.109 196.563 370.739 223.232C370.332 249.319 370.147 275.479 368.112 301.53C366.965 316.354 365.152 331.142 362.34 345.784C362.192 346.474 363.265 346.765 363.413 346.075C368.334 320.46 370.147 294.409 370.961 268.394C371.812 241.834 372.182 215.202 372.145 188.606C372.108 173.455 371.849 158.304 371.072 143.153C370.998 142.463 369.888 142.463 369.925 143.153Z" fill="#2E2640"/>
<path d="M371.295 143.153C391.83 133.161 413.623 125.967 436.119 121.716C436.822 121.571 436.526 120.517 435.823 120.663C413.253 124.95 391.349 132.217 370.74 142.208C370.111 142.535 370.666 143.48 371.295 143.153Z" fill="#2E2640"/>
<path d="M435.749 121.39C441.854 151.583 443.704 182.43 443.667 213.168C443.593 243.906 441.743 274.571 440.226 305.273C439.338 322.967 438.45 340.625 437.562 358.319C437.525 359.01 438.635 359.01 438.672 358.319C440.263 327 441.928 295.681 443.371 264.325C444.777 233.587 445.665 202.776 443.556 172.075C442.372 154.962 440.263 137.921 436.859 121.135C436.674 120.409 435.601 120.699 435.749 121.39Z" fill="#2E2640"/>
<path d="M362.525 346.002C364.19 347.891 367.15 348.255 369.481 348.945C372.663 349.89 375.882 350.834 379.064 351.779C385.502 353.668 391.903 355.667 398.415 357.265C411.143 360.317 424.204 360.935 437.117 358.755C437.82 358.646 437.524 357.592 436.821 357.701C424.093 359.845 411.217 359.227 398.711 356.212C392.754 354.795 386.908 352.978 381.062 351.234C378.102 350.362 375.142 349.49 372.182 348.618C370.702 348.182 369.222 347.746 367.742 347.31C366.188 346.838 364.449 346.511 363.339 345.239C362.821 344.73 362.044 345.493 362.525 346.002Z" fill="#2E2640"/>
<path d="M436.489 121.426C437.858 121.753 439.227 122.08 440.633 122.407C441.336 122.588 441.632 121.535 440.929 121.353C439.56 121.026 438.191 120.699 436.785 120.372C436.082 120.227 435.786 121.28 436.489 121.426Z" fill="#2E2640"/>
<path d="M440.558 122.043C444.258 136.722 445.257 152.055 446.33 167.133C447.44 182.538 448.032 197.98 448.291 213.458C448.735 244.16 447.662 274.861 445.886 305.527C444.887 322.894 443.629 340.261 442.334 357.629C442.297 358.319 443.407 358.319 443.444 357.629C445.775 326.745 447.884 295.862 448.883 264.906C449.882 234.023 449.808 203.067 447.81 172.183C446.737 155.397 445.775 138.175 441.668 121.789C441.446 121.062 440.373 121.353 440.558 122.043Z" fill="#2E2640"/>
<path d="M438.153 358.937C439.781 358.791 441.372 358.646 443 358.501C443.703 358.428 443.703 357.338 443 357.411C441.372 357.556 439.781 357.701 438.153 357.847C437.45 357.919 437.45 359.009 438.153 358.937Z" fill="#2E2640"/>
<path d="M191.178 156.924C188.699 182.103 187.219 207.354 186.738 232.642C186.257 258.039 186.775 283.473 188.329 308.833C189.18 323.076 190.401 337.282 191.881 351.452C191.955 352.143 193.065 352.143 192.991 351.452C190.327 326.31 188.662 301.058 187.996 275.77C187.33 250.373 187.663 224.94 189.032 199.579C189.809 185.336 190.882 171.13 192.251 156.924C192.362 156.233 191.252 156.233 191.178 156.924Z" fill="#2E2640"/>
<path d="M116.439 122.879C140.452 135.995 165.39 147.477 190.994 157.25C191.66 157.505 191.956 156.451 191.29 156.197C165.76 146.459 140.933 135.014 116.994 121.934C116.365 121.571 115.81 122.516 116.439 122.879Z" fill="#2E2640"/>
<path d="M115.292 122.625C111.185 153.363 108.336 184.282 106.782 215.275C105.228 246.267 105.006 277.296 106.042 308.288C106.634 325.692 107.633 343.095 109.039 360.463C109.113 361.153 110.223 361.153 110.149 360.463C107.633 329.543 106.449 298.514 106.523 267.522C106.597 236.493 108.003 205.501 110.667 174.581C112.184 157.214 114.108 139.919 116.402 122.625C116.476 121.934 115.366 121.934 115.292 122.625Z" fill="#2E2640"/>
<path d="M109.002 361.153C129.611 372.162 154.29 369.8 175.232 361.08C181.522 358.464 187.59 355.303 193.436 351.852C194.028 351.488 193.473 350.544 192.881 350.907C173.382 362.497 150.516 370.6 127.465 366.385C121.212 365.259 115.144 363.188 109.557 360.208C108.965 359.881 108.373 360.826 109.002 361.153Z" fill="#2E2640"/>
<path d="M100.824 358.137C103.414 359.336 106.078 360.354 108.779 361.262C109.445 361.48 109.741 360.426 109.075 360.208C106.448 359.336 103.895 358.355 101.379 357.193C100.713 356.902 100.158 357.847 100.824 358.137Z" fill="#2E2640"/>
<path d="M109.335 122.879C105.339 153.327 102.009 183.847 99.8255 214.476C97.6795 244.959 96.6435 275.516 97.3095 306.072C97.6795 323.367 98.5675 340.661 100.085 357.883C100.159 358.574 101.269 358.574 101.195 357.883C98.5305 327.327 97.7535 296.662 98.4935 265.996C99.1965 235.44 101.343 204.92 104.414 174.473C106.153 157.251 108.188 140.029 110.445 122.843C110.556 122.189 109.446 122.189 109.335 122.879Z" fill="#2E2640"/>
<path d="M109.964 123.642C112.11 123.206 114.256 123.061 116.476 123.17C117.179 123.206 117.179 122.116 116.476 122.08C114.182 121.971 111.925 122.152 109.668 122.588C108.965 122.734 109.261 123.787 109.964 123.642Z" fill="#2E2640"/>
<path d="M384.097 145.624C385.651 187.77 385.577 229.953 383.801 272.1C383.32 283.908 382.691 295.68 381.914 307.489C381.877 308.179 382.987 308.179 383.024 307.489C385.725 265.415 386.761 223.232 386.132 181.049C385.947 169.24 385.651 157.432 385.207 145.624C385.17 144.933 384.06 144.933 384.097 145.624Z" fill="#2E2640"/>
<path d="M402.042 130.509C403.522 159.83 404.262 189.224 404.225 218.581C404.225 247.938 403.485 277.332 402.005 306.653C401.191 323.257 400.118 339.825 398.823 356.393C398.786 357.084 399.896 357.084 399.933 356.393C402.227 327.109 403.781 297.788 404.632 268.43C405.446 239.073 405.557 209.679 404.928 180.322C404.558 163.718 403.966 147.113 403.152 130.509C403.115 129.819 402.005 129.819 402.042 130.509Z" fill="#2E2640"/>
<path d="M423.576 124.042C425.648 154.525 426.906 185.082 427.239 215.674C427.572 246.376 427.054 277.041 425.648 307.707C424.871 324.892 423.798 342.078 422.429 359.227C422.392 359.918 423.502 359.918 423.539 359.227C425.907 328.744 427.461 298.187 428.09 267.631C428.719 236.966 428.497 206.264 427.387 175.562C426.758 158.377 425.87 141.191 424.686 124.005C424.649 123.315 423.539 123.315 423.576 124.042Z" fill="#2E2640"/>
<path d="M380.286 321.114C379.435 330.633 377.881 340.08 375.624 349.381C375.476 350.072 376.512 350.362 376.697 349.672C378.991 340.262 380.545 330.742 381.396 321.114C381.47 320.424 380.36 320.424 380.286 321.114Z" fill="#2E2640"/>
<path d="M128.575 129.964C124.135 160.448 122.248 191.258 121.952 222.033C121.693 252.989 122.988 283.908 124.912 314.792C125.985 332.268 127.243 349.708 128.501 367.184C128.538 367.875 129.648 367.875 129.611 367.184C127.391 336.41 125.171 305.636 123.95 274.825C122.729 244.087 122.544 213.276 124.357 182.538C125.393 165.062 127.095 147.586 129.611 130.255C129.759 129.601 128.686 129.274 128.575 129.964Z" fill="#2E2640"/>
<path d="M149.849 140.137C147.037 169.604 145.15 199.179 144.521 228.791C143.929 258.366 144.632 287.941 147.111 317.444C148.48 333.83 150.404 350.144 152.92 366.385C153.031 367.075 154.104 366.785 153.993 366.094C149.479 336.81 146.889 307.234 145.927 277.623C144.965 248.411 145.52 219.126 147.148 189.95C148.073 173.346 149.368 156.742 150.959 140.174C151.033 139.447 149.923 139.447 149.849 140.137Z" fill="#2E2640"/>
<path d="M171.161 148.821C167.535 176.326 165.426 204.012 164.871 231.734C164.316 259.456 165.278 287.215 167.757 314.828C169.163 330.234 171.013 345.566 173.344 360.863C173.455 361.553 174.528 361.262 174.417 360.572C170.236 333.177 167.572 305.6 166.425 277.95C165.278 250.373 165.685 222.723 167.572 195.146C168.645 179.668 170.199 164.19 172.234 148.785C172.382 148.131 171.272 148.131 171.161 148.821Z" fill="#2E2640"/>
<path opacity="0.12" d="M415.287 126.512C419.394 142.971 422.724 162.264 423.834 183.883C426.609 238.891 413.437 283.836 401.967 312.684C393.864 325.437 385.798 338.19 377.695 350.943C385.576 354.286 397.268 358.174 411.846 359.336C421.91 360.136 430.642 359.409 437.45 358.319C437.524 356.72 438.745 332.413 438.819 330.815C442.852 249.392 443.111 243.833 443.259 238.237C443.925 215.456 443.814 182.756 439.855 141.954C438.486 135.014 437.117 128.075 435.748 121.171C428.977 122.915 422.132 124.696 415.287 126.512Z" fill="#2E2640"/>
<path opacity="0.13" d="M157.065 144.279C156.103 148.24 154.66 154.162 152.958 161.392C145.41 193.656 139.86 217.382 136.9 239.219C131.646 277.696 126.576 314.973 148.185 345.566C154.475 354.468 161.357 360.463 165.945 364.024C161.505 365.731 155.992 367.294 149.554 368.057C131.646 370.128 117.29 364.423 110.259 361.008C107.595 336.919 105.746 311.122 105.154 283.836C103.822 223.45 108.817 169.168 116.439 122.479C129.944 129.746 143.486 137.013 157.065 144.279Z" fill="#2E2640"/>
<path d="M118.252 105.185C117.771 105.548 118.141 106.965 118.807 109.4C119.066 110.344 119.325 111.071 119.473 111.543C119.177 113.505 118.918 115.467 118.622 117.429C118.03 117.502 116.513 117.829 115.107 119.028C113.812 120.154 113.294 121.462 113.109 122.044C114.293 122.153 115.736 122.407 117.29 122.879C119.547 123.57 121.323 124.514 122.618 125.314C122.618 125.75 122.692 126.585 123.284 127.203C123.802 127.712 124.431 127.784 124.801 127.857C126.133 128.075 127.724 128.366 129.759 128.802C130.647 129.31 132.127 130.146 133.94 131.127C140.082 134.397 142.302 134.942 148.444 138.139C152.403 140.21 152.07 140.283 154.845 141.591C159.1 143.626 162.763 144.825 165.242 145.515C166.278 144.389 167.943 142.209 168.868 139.048C169.608 136.541 169.571 134.361 169.423 132.944C170.052 133.271 171.051 133.634 172.198 133.489C175.158 133.162 177.045 129.855 177.637 127.494C178.155 125.423 177.674 124.115 177.267 121.68C176.342 116.23 175.528 111.362 177.822 108.273C179.746 105.694 183.705 104.495 186.887 101.043C187.183 100.716 187.738 100.098 187.553 99.8078C187.22 99.2628 184.63 100.207 183.372 100.752C182.558 101.116 176.453 103.877 174.603 110.126C174.307 111.107 174.27 113.941 174.233 119.573C174.196 123.679 174.27 126.004 172.605 127.348C171.754 128.039 170.496 128.438 169.349 128.184C167.647 127.821 166.833 126.186 166.093 125.096C164.169 122.225 161.431 121.026 158.064 119.391C155.437 118.12 153.18 117.647 148.629 116.666C144.337 115.758 143.042 115.867 141.192 114.523C139.12 112.997 137.973 110.853 137.381 109.654C136.789 108.528 135.864 106.747 135.457 104.204C135.235 102.714 135.272 101.661 134.902 101.588C134.236 101.443 133.903 104.458 131.646 105.512C130.277 106.166 129.389 105.548 126.984 105.621C125.43 105.657 123.654 105.984 121.656 106.856C120.99 106.384 118.918 104.713 118.252 105.185Z" fill="#2E2640"/>
<path d="M119.362 117.139C118.585 111.144 124.135 105.694 130.277 106.311C136.086 106.893 139.934 113.832 139.749 119.028C139.712 119.718 140.822 119.718 140.859 119.028C141.044 113.287 136.678 105.73 130.277 105.221C123.543 104.676 117.401 110.526 118.252 117.139C118.363 117.793 119.473 117.829 119.362 117.139Z" fill="#2E2640"/>
<path d="M119.251 120.918C121.508 125.241 126.355 128.293 131.424 127.639C136.049 127.022 139.971 123.352 140.674 118.81C140.785 118.12 139.712 117.829 139.601 118.52C138.972 122.662 135.494 126.004 131.276 126.549C126.651 127.167 122.285 124.333 120.213 120.373C119.88 119.755 118.918 120.3 119.251 120.918Z" fill="#2E2640"/>
<path d="M123.247 126.186C123.136 124.805 127.132 124.224 128.131 124.006C129.944 123.606 131.794 123.388 133.644 123.388C137.085 123.388 140.378 124.26 143.301 126.041C143.893 126.404 144.485 125.459 143.856 125.096C140.082 122.807 135.679 122.008 131.313 122.407C129.019 122.625 126.762 123.098 124.579 123.824C123.395 124.224 121.989 124.733 122.1 126.186C122.174 126.876 123.321 126.876 123.247 126.186Z" fill="#2E2640"/>
<path d="M139.157 113.615C141.488 116.376 145.262 117.03 148.629 117.757C153.106 118.774 157.731 119.682 161.653 122.117C169.756 127.131 171.273 138.067 164.872 145.079C164.391 145.588 165.168 146.387 165.649 145.842C171.347 139.629 171.495 130.11 165.612 123.933C162.504 120.663 158.064 118.956 153.735 117.829C149.332 116.703 143.005 116.521 139.897 112.815C139.49 112.307 138.713 113.07 139.157 113.615Z" fill="#2E2640"/>
<path d="M165.058 132.617C163.208 130.219 159.952 129.383 157.103 130.546C153.588 131.963 153.403 136.214 153.81 139.448C153.884 140.138 154.994 140.138 154.92 139.448C154.587 136.904 154.55 132.98 157.214 131.709C159.508 130.582 162.505 131.164 164.059 133.198C164.503 133.743 165.465 133.198 165.058 132.617Z" fill="#2E2640"/>
<path d="M154.771 138.939C152.736 137.413 150.627 136.105 148 136.795C147.704 136.868 147.556 137.195 147.63 137.449C148.296 139.993 152.366 141.046 154.512 141.955C157.805 143.372 161.172 144.571 164.576 145.624C165.242 145.842 165.538 144.789 164.872 144.571C162.134 143.735 159.47 142.827 156.806 141.737C155.363 141.155 153.957 140.538 152.551 139.884C151.293 139.302 149.036 138.612 148.666 137.159C148.555 137.377 148.407 137.595 148.296 137.813C150.59 137.195 152.477 138.539 154.179 139.847C154.771 140.32 155.326 139.375 154.771 138.939Z" fill="#2E2640"/>
<path d="M122.247 126.077C123.69 128.402 126.613 128.802 129.166 129.165C132.94 129.71 136.714 129.71 140.488 129.311C141.191 129.238 141.191 128.148 140.488 128.221C137.454 128.548 134.42 128.62 131.386 128.33C128.833 128.075 124.726 127.93 123.172 125.532C122.839 124.914 121.877 125.459 122.247 126.077Z" fill="#2E2640"/>
<path d="M113.627 122.371C114.108 119.827 116.365 118.519 118.881 118.41C118.696 118.265 118.511 118.156 118.363 118.011C118.548 118.883 118.807 119.718 119.177 120.518C119.436 121.172 120.509 120.881 120.25 120.227C119.917 119.391 119.658 118.592 119.436 117.72C119.399 117.502 119.14 117.32 118.918 117.32C115.958 117.466 113.146 119.064 112.591 122.08C112.443 122.77 113.516 123.061 113.627 122.371Z" fill="#2E2640"/>
<path d="M120.065 111.107C119.51 109.545 119.103 107.91 118.955 106.239C118.955 106.093 118.918 105.948 118.918 105.803C118.881 105.476 118.918 105.512 119.066 105.912C119.399 106.13 119.732 106.384 120.065 106.638C120.62 107.111 121.138 107.619 121.582 108.164C122.063 108.709 122.84 107.91 122.359 107.401C121.73 106.675 119.103 103.695 117.993 104.858C117.438 105.439 117.845 106.784 117.956 107.438C118.141 108.782 118.511 110.126 118.955 111.398C119.251 112.052 120.324 111.798 120.065 111.107Z" fill="#2E2640"/>
<path d="M132.571 106.021C132.904 105.44 133.237 104.858 133.607 104.277C133.755 104.023 133.903 103.805 134.014 103.55C134.236 103.187 134.236 102.86 134.68 102.969C135.198 103.078 135.013 104.277 135.013 104.713C135.013 105.403 135.05 106.094 135.05 106.784C135.05 107.474 136.16 107.474 136.16 106.784C136.16 105.658 136.197 104.531 136.123 103.405C136.086 102.678 135.827 101.879 135.013 101.625C134.273 101.407 133.755 101.879 133.385 102.424C132.756 103.405 132.201 104.459 131.609 105.44C131.239 106.094 132.201 106.639 132.571 106.021Z" fill="#2E2640"/>
<path d="M168.017 129.783C168.239 132.544 171.384 133.452 173.567 132.108C176.786 130.146 177.489 125.713 177.082 122.371C176.527 117.793 175.417 113.542 177.008 109C178.525 104.676 182.299 101.152 187.072 100.861C187.775 100.825 187.775 99.7351 187.072 99.7714C180.56 100.171 176.12 105.621 175.195 111.652C174.64 115.249 175.454 118.592 175.935 122.116C176.231 124.442 176.083 126.658 175.01 128.802C174.529 129.71 173.863 130.618 172.975 131.2C171.606 132.035 169.238 131.781 169.09 129.819C169.09 129.092 167.98 129.056 168.017 129.783Z" fill="#2E2640"/>
<path d="M168.608 131.745C169.755 134.76 173.751 133.416 175.49 131.672C178.339 128.838 177.71 124.115 177.488 120.518C177.451 119.827 176.341 119.827 176.378 120.518C176.526 122.807 176.748 125.277 176.341 127.566C176.156 128.656 175.749 129.674 175.009 130.546C174.195 131.527 170.643 133.997 169.681 131.454C169.422 130.8 168.349 131.091 168.608 131.745Z" fill="#2E2640"/>
<path d="M187.109 99.7351C182.891 101.334 178.636 103.586 176.934 107.946C174.973 112.96 176.379 118.41 176.268 123.606C176.268 124.296 177.378 124.296 177.378 123.606C177.489 119.064 176.379 114.414 177.489 109.908C178.71 104.967 182.891 102.496 187.405 100.789C188.071 100.534 187.775 99.4808 187.109 99.7351Z" fill="#2E2640"/>
<path d="M186.258 100.353C182.373 102.097 178.821 105.149 177.008 109.036C176.046 111.071 176.194 113.324 176.194 115.54C176.194 118.374 176.305 121.244 176.527 124.078C176.564 124.769 177.674 124.769 177.637 124.078C177.489 121.789 177.378 119.537 177.341 117.248C177.304 114.85 176.971 112.016 177.896 109.763C179.487 105.948 183.076 103.005 186.813 101.297C187.479 101.007 186.924 100.062 186.258 100.353Z" fill="#2E2640"/>
<path d="M121.545 113.506C122.581 115.286 125.208 114.668 125.467 112.706C125.504 112.343 124.949 112.379 124.912 112.706C124.727 114.196 122.803 114.487 122.026 113.251C121.841 112.924 121.36 113.215 121.545 113.506Z" fill="white"/>
<path d="M129.389 112.088C130.536 114.014 133.459 113.251 133.496 111.035C133.496 110.671 132.941 110.671 132.941 111.035C132.904 112.742 130.758 113.287 129.87 111.834C129.685 111.507 129.204 111.761 129.389 112.088Z" fill="white"/>
<path d="M127.169 114.486C127.428 115.54 127.206 116.594 126.54 117.466C126.318 117.756 126.799 118.011 127.021 117.756C127.761 116.775 127.983 115.54 127.724 114.341C127.613 114.014 127.058 114.159 127.169 114.486Z" fill="white"/>
<path d="M127.391 114.45C127.28 115.831 128.057 117.139 129.352 117.72C129.685 117.866 129.944 117.393 129.648 117.248C128.538 116.739 127.835 115.649 127.946 114.45C127.946 114.087 127.391 114.087 127.391 114.45Z" fill="white"/>
<path d="M118.363 117.684C121.619 117.429 123.691 120.045 125.874 121.971C126.133 122.189 126.54 121.826 126.281 121.571C123.987 119.537 121.767 116.884 118.363 117.102C118.03 117.139 118.03 117.684 118.363 117.684Z" fill="white"/>
<path d="M124.431 124.078C128.612 121.462 133.57 120.59 138.417 121.644C138.75 121.717 138.898 121.208 138.565 121.135C133.57 120.082 128.464 120.954 124.172 123.642C123.839 123.788 124.135 124.26 124.431 124.078Z" fill="white"/>
<path d="M134.939 129.056C138.38 129.274 141.636 128.221 144.263 126.004C144.522 125.786 144.152 125.387 143.856 125.605C141.34 127.712 138.232 128.729 134.939 128.511C134.606 128.511 134.606 129.056 134.939 129.056Z" fill="white"/>
<path d="M133.94 103.26C133.126 104.604 132.941 106.166 133.422 107.656C133.533 107.983 134.051 107.838 133.94 107.511C133.496 106.166 133.644 104.749 134.384 103.55C134.606 103.223 134.125 102.933 133.94 103.26Z" fill="white"/>
<path d="M119.288 106.639C120.176 107.184 120.731 108.019 120.953 109C121.027 109.327 121.545 109.182 121.471 108.855C121.212 107.729 120.546 106.784 119.547 106.166C119.251 105.985 118.992 106.457 119.288 106.639Z" fill="white"/>
<path d="M138.861 112.452C139.564 113.287 140.378 114.014 141.303 114.559C141.599 114.741 141.895 114.268 141.599 114.087C140.711 113.542 139.897 112.851 139.268 112.052C139.009 111.798 138.639 112.197 138.861 112.452Z" fill="white"/>
<path d="M161.69 130.291C160.913 128.366 157.176 129.674 155.955 130.437C153.772 131.854 152.81 134.506 153.624 136.94C153.735 137.267 154.253 137.122 154.142 136.795C153.513 134.869 154.031 132.798 155.585 131.381C156.251 130.764 157.139 130.328 158.027 130.11C158.656 129.928 160.802 129.528 161.135 130.4C161.283 130.764 161.801 130.618 161.69 130.291Z" fill="white"/>
<path d="M154.068 136.977C151.182 135.778 148.111 135.669 145.114 136.577C144.781 136.686 144.929 137.195 145.262 137.086C148.185 136.177 151.108 136.323 153.92 137.485C154.253 137.631 154.401 137.086 154.068 136.977Z" fill="white"/>
<path d="M255.707 288.087C254.19 291.648 254.19 294.3 253.968 301.131C253.709 309.56 252.969 317.953 252.895 326.346C252.821 333.431 252.71 344.149 252.414 358.101C264.254 358.755 277.352 358.901 291.56 358.21C305.102 357.556 317.608 356.212 328.893 354.541C323.565 336.846 320.05 323.948 317.534 313.956C316.202 308.615 314.241 300.622 308.839 291.284C305.879 286.161 302.808 282.31 300.551 279.73C299.959 279.222 286.898 268.431 271.802 273.517C271.062 273.808 260.073 277.732 255.707 288.087Z" fill="#FF4545"/>
<path d="M277.5 309.269C279.979 313.593 282.458 317.917 284.9 322.24C285.233 322.858 286.195 322.313 285.862 321.695C283.383 317.372 280.904 313.048 278.462 308.724C278.129 308.107 277.167 308.652 277.5 309.269Z" fill="#FF4545"/>
<path d="M277.204 309.052C282.902 316.028 286.195 323.985 287.971 332.705C289.636 340.952 290.709 349.309 291.338 357.702C291.375 358.392 292.485 358.392 292.448 357.702C291.782 349.091 290.672 340.48 288.97 332.014C287.194 323.258 283.716 315.265 278.018 308.289C277.574 307.707 276.76 308.507 277.204 309.052Z" fill="#FF4545"/>
<path opacity="0.19" d="M286.121 272.682C287.416 275.225 289.266 278.967 291.338 283.473C297.369 296.625 303.622 310.505 306.952 327.581C308.321 334.485 309.616 344.476 309.061 356.939C312.169 356.793 315.462 356.539 318.903 356.176C322.344 355.812 325.637 355.376 328.745 354.868C327.783 351.67 326.229 346.584 324.49 340.298C319.643 322.713 318.977 317.226 314.833 305.636C311.762 297.025 308.913 291.175 304.806 285.58C301.106 280.53 297.628 277.369 293.225 275.152C290.487 273.772 287.934 273.081 286.121 272.682Z" fill="#2E2640"/>
<path opacity="0.11" d="M277.278 309.451C278.721 314.756 279.979 321.078 280.571 328.199C281.607 340.516 280.275 351.017 278.647 358.865C282.902 358.61 287.12 358.356 291.375 358.101C290.931 349.854 289.969 342.914 289.044 337.646C286.713 324.239 284.271 319.261 282.31 316.064C280.46 313.121 278.61 310.905 277.278 309.451Z" fill="#2E2640"/>
<path d="M229.881 226.175C228.66 226.974 227.92 228.5 226.477 231.516C225.293 233.986 224.738 235.912 223.85 238.782C221.408 246.921 221.667 245.54 220.816 248.629C219.706 252.734 217.708 259.928 216.598 269.411C215.525 278.604 215.747 285.689 215.784 287.396C216.191 298.187 218.115 306.217 219.41 311.376C221.704 320.641 224.775 328.344 230.88 343.713C232.212 347.019 233.322 349.744 234.099 351.634C233.544 351.706 232.656 351.815 231.583 351.961C225.996 352.615 225.219 352.469 222.962 352.942C220.076 353.559 217.486 354.177 216.487 356.321C216.043 357.302 215.858 358.682 216.413 359.155C217.116 359.736 218.485 358.428 220.853 357.665C222.851 357.048 224.627 357.084 225.848 357.265C224.886 359.118 224.331 360.79 223.998 361.989C223.184 364.75 222.555 367.003 223.591 368.601C224.109 369.401 225.108 370.127 225.922 369.909C226.366 369.8 226.773 369.401 227.883 366.53C228.956 363.66 229.03 362.752 229.918 361.625C230.695 360.681 231.583 360.172 232.175 359.881C231.879 360.79 231.546 362.134 231.398 363.769C231.324 364.75 231.213 365.658 231.398 366.821C231.546 367.875 231.879 370.127 233.581 371.363C233.877 371.581 235.098 372.489 235.838 372.017C236.467 371.654 236.282 370.636 236.541 367.366C236.763 364.605 236.985 363.842 237.17 363.406C237.651 362.134 238.391 361.226 238.946 360.681C238.761 363.297 238.798 365.477 238.872 367.075C239.02 369.655 239.279 370.818 240.13 371.544C240.611 371.944 241.425 372.344 242.091 372.053C242.757 371.762 242.979 370.854 243.164 369.728C243.978 365.477 243.497 364.241 244.422 362.098C244.792 361.262 245.199 360.245 246.198 359.518C248.307 357.992 251.304 358.9 251.711 359.009C253.487 359.554 254.153 360.499 255.041 360.099C255.781 359.772 256.188 358.719 256.225 357.847C256.262 355.703 253.857 354.068 251.785 352.724C250.749 352.033 249.195 351.125 247.123 350.398C245.31 346.874 243.016 341.751 241.129 335.247C239.871 330.887 239.279 327.545 238.724 324.384C236.763 313.302 237.466 309.051 235.283 298.042C234.765 295.39 234.247 293.283 233.951 292.084C234.099 290.267 234.358 287.433 234.728 283.981C235.949 272.718 236.763 265.669 239.242 257.385C241.203 250.882 243.201 245.54 243.201 245.54C245.717 238.891 246.531 237.983 246.235 235.839C245.199 229.081 234.432 223.195 229.881 226.175Z" fill="white"/>
<path d="M227.032 229.627C220.446 244.56 216.302 260.51 215.414 276.787C214.489 293.392 217.412 309.633 222.888 325.329C225.996 334.303 229.77 343.023 233.618 351.743C233.914 352.397 234.839 351.816 234.58 351.198C227.92 336.083 221.408 320.751 218.3 304.546C215.229 288.559 215.858 272.028 219.41 256.15C221.408 247.248 224.294 238.565 227.994 230.208C228.253 229.554 227.328 228.973 227.032 229.627Z" fill="#2E2640"/>
<path d="M240.833 250.373C236.171 264.216 233.729 278.713 233.47 293.282C233.47 293.973 234.58 293.973 234.58 293.282C234.839 278.785 237.281 264.434 241.906 250.663C242.128 250.009 241.055 249.719 240.833 250.373Z" fill="#2E2640"/>
<path d="M229.586 286.67C232.879 291.175 234.211 296.552 234.988 301.93C235.802 307.416 236.172 312.975 236.986 318.461C238.614 329.616 241.278 340.734 246.643 350.725C246.976 351.343 247.938 350.798 247.605 350.18C242.018 339.789 239.391 328.199 237.837 316.645C236.468 306.508 236.875 294.772 230.548 286.125C230.141 285.58 229.179 286.125 229.586 286.67Z" fill="#2E2640"/>
<path d="M233.47 351.234C230.029 351.416 226.588 351.743 223.221 352.361C220.816 352.833 218.263 353.596 216.598 355.485C215.636 356.612 214.415 359.3 216.524 360.063C217.449 360.39 218.263 359.773 219.04 359.337C220.964 358.247 222.962 357.12 225.256 357.738C225.959 357.92 226.255 356.866 225.552 356.684C223.665 356.176 221.963 356.612 220.261 357.447C219.743 357.702 219.262 357.956 218.781 358.247C218.485 358.392 218.226 358.574 217.93 358.755C217.597 358.174 217.227 357.593 216.894 357.011C216.968 356.103 218.818 355.049 219.484 354.686C221.297 353.741 223.406 353.414 225.404 353.124C228.105 352.724 230.806 352.47 233.507 352.324C234.21 352.288 234.21 351.198 233.47 351.234Z" fill="#2E2640"/>
<path d="M230.435 354.468C227.512 354.94 225.107 356.902 223.997 359.555C222.813 362.316 221.814 366.422 223.183 369.256C224.219 371.399 226.772 372.162 227.734 369.546C228.326 367.911 228.215 366.131 228.807 364.496C229.547 362.461 230.805 360.717 232.655 359.518C233.247 359.119 232.692 358.174 232.1 358.574C230.361 359.7 229.066 361.226 228.215 363.079C227.771 364.024 227.438 365.005 227.216 366.022C227.031 366.858 226.92 371.072 224.885 369.837C223.738 369.147 223.627 366.93 223.664 365.804C223.738 364.133 224.182 362.207 224.737 360.608C225.662 357.92 227.845 355.994 230.694 355.522C231.434 355.413 231.138 354.359 230.435 354.468Z" fill="#2E2640"/>
<path d="M233.915 357.157C231.621 358.61 230.807 361.771 230.585 364.314C230.363 367.039 231.14 369.982 233.212 371.908C234.433 373.034 236.32 373.616 236.653 371.508C237.208 367.984 235.765 363.006 239.687 360.899C240.316 360.572 239.761 359.627 239.132 359.954C237.726 360.717 236.838 361.953 236.283 363.442C235.506 365.622 235.95 367.839 235.617 370.091C235.469 371.109 235.173 372.199 234.026 371.145C233.619 370.782 233.249 370.309 232.953 369.837C232.25 368.747 231.843 367.512 231.732 366.24C231.473 363.697 232.139 359.627 234.507 358.101C235.062 357.702 234.507 356.757 233.915 357.157Z" fill="#2E2640"/>
<path d="M239.168 360.063C238.465 362.679 237.799 365.404 238.243 368.129C238.428 369.437 239.205 372.635 240.907 372.962C242.831 373.325 243.608 369.982 243.793 368.747C244.2 366.058 243.682 362.825 245.828 360.754C246.346 360.245 245.569 359.482 245.051 359.991C242.461 362.498 243.349 366.131 242.572 369.328C242.313 370.491 241.573 372.235 240.352 370.891C239.686 370.2 239.501 368.856 239.353 367.948C238.983 365.404 239.612 362.861 240.278 360.39C240.426 359.7 239.353 359.409 239.168 360.063Z" fill="#2E2640"/>
<path d="M247.161 351.343C249.344 352.215 251.601 353.16 253.303 354.831C254.08 355.594 255.042 356.757 255.264 357.847C255.819 360.862 253.525 358.937 252.674 358.573C250.343 357.556 245.718 358.283 244.386 360.608C244.053 361.226 245.015 361.771 245.348 361.153C246.051 359.881 247.975 359.554 249.307 359.373C250.121 359.264 251.046 359.191 251.823 359.409C252.711 359.663 253.266 360.426 254.117 360.681C255.338 361.044 256.263 360.208 256.448 359.046C256.781 357.156 255.116 355.049 253.821 353.814C252.008 352.106 249.677 351.161 247.383 350.253C246.791 350.035 246.532 351.089 247.161 351.343Z" fill="#2E2640"/>
<path opacity="0.13" d="M239.686 238.637C235.431 238.891 232.878 249.573 231.472 255.496C229.881 262.145 228.438 271.301 228.734 284.635C228.993 296.552 230.547 305.636 231.065 308.797C233.396 322.385 237.059 333.794 240.648 342.732C241.832 346.002 242.979 349.272 244.163 352.506C243.497 355.194 242.831 357.956 242.202 360.826C241.388 364.605 240.648 368.311 240.056 371.871C240.759 371.944 241.721 371.908 242.387 371.254C243.238 370.418 243.127 369.074 243.164 367.911C243.201 366.821 243.312 361.553 245.717 359.591C247.197 358.392 249.565 358.392 251.193 358.973C252.858 359.591 253.598 360.79 254.708 360.426C255.559 360.172 256.151 359.155 256.262 358.355C256.632 355.703 251.452 352.978 250.601 352.542C248.936 351.67 248.159 351.561 247.086 350.471C245.754 349.09 245.31 347.455 245.125 346.729C242.054 335.247 240.537 335.974 238.465 322.785C236.911 312.83 237.91 313.411 236.319 305.49C235.209 299.895 234.284 297.606 233.988 292.774C233.655 287.469 234.284 283.327 234.95 279.657C237.725 264.652 243.053 246.485 244.348 242.161C243.164 240.345 241.536 238.528 239.686 238.637Z" fill="#2E2640"/>
<path d="M315.204 89.2709C314.057 89.2346 313.169 91.2693 312.947 91.8143C312.614 92.6136 312.096 94.1759 312.466 96.3923C312.466 96.3923 312.688 97.9183 313.428 107.147C313.613 109.218 313.65 112.234 313.095 116.012C311.615 120.009 310.209 123.134 309.247 125.168C305.991 131.999 303.808 134.724 299.257 143.371C297.555 146.605 297.407 147.114 295.409 151.11C290.414 161.029 286.751 167.242 283.014 173.891C279.721 179.705 275.096 188.243 269.657 199.216C269.398 200.16 268.103 205.211 271.1 209.643C274.282 214.33 280.942 216.438 287.38 214.403C288.379 213.022 289.785 210.879 291.08 208.081C292.338 205.356 292.93 203.249 293.337 201.904C293.744 200.56 295.372 196.018 298.665 186.862C299.701 184.028 300.959 180.649 303.512 174.037C307.397 163.9 309.321 158.849 310.616 155.688C313.539 148.494 315.759 143.517 320.125 133.852C322.419 128.765 325.231 122.625 328.487 115.649C330.374 114.595 332.964 112.96 335.739 110.599C339.735 107.22 341.733 104.349 345.581 98.8993C348.06 95.3386 349.947 92.2139 349.429 89.0893C349.355 88.6533 349.17 87.3816 348.467 87.1999C347.579 86.9456 346.469 88.6896 345.248 90.2156C343.99 91.7779 342.103 93.8126 339.291 95.9199C340.253 93.3039 341.215 91.2693 341.881 89.9249C343.398 86.8729 344.656 84.9109 345.433 81.5319C346.284 77.9349 345.507 77.2809 345.285 77.0993C344.286 76.3726 342.584 77.7533 341.585 76.9539C340.697 76.1909 341.474 74.5196 340.771 74.1199C340.068 73.7203 338.514 74.9193 337.404 76.1909C335.48 78.3709 335.036 80.4783 334.333 82.5129C333.667 84.5113 332.446 87.2363 330.152 90.2519C329.597 90.3246 328.857 90.3609 328.524 89.9249C328.154 89.4163 328.672 88.5806 329.153 87.2363C329.264 86.9093 329.19 87.0909 329.967 83.7483C330.263 82.4766 330.818 80.1149 331.262 78.2256C331.891 75.5006 332.187 74.3743 331.595 73.1753C331.484 72.9209 331.003 71.9399 330.3 71.9036C329.486 71.8673 328.857 73.1389 328.376 74.1199C326.415 78.0803 325.416 80.0786 325.157 80.7689C323.862 84.2206 322.123 89.4889 321.864 91.3056C321.827 91.5236 321.753 92.2866 321.383 93.2676C321.198 93.7399 321.087 93.9216 320.976 94.2123C320.051 96.2469 320.828 97.5913 319.866 98.3179C319.755 98.3906 319.2 98.7903 318.756 98.6449C318.275 98.4996 318.053 97.8819 317.794 95.8109C317.424 92.9769 317.646 92.1413 316.98 90.9059C316.536 90.3609 315.981 89.3073 315.204 89.2709Z" fill="white"/>
<path d="M313.427 106.093C313.686 103.441 313.279 100.861 313.131 98.209C313.057 96.9373 313.057 95.6293 313.242 94.3577C313.353 93.631 313.502 92.9043 313.724 92.214C314.094 91.1603 314.13 90.2883 315.314 90.252C316.424 90.2157 316.35 90.8697 316.535 91.778C316.72 92.5773 316.757 93.413 316.794 94.2123C316.868 95.3387 316.905 96.5013 317.164 97.5913C317.423 98.7177 318.126 99.6623 319.421 99.2627C320.087 99.0447 319.828 97.991 319.125 98.209C317.83 98.5723 317.941 94.285 317.867 93.5583C317.756 92.3957 317.645 91.1967 317.201 90.1067C316.572 88.5807 315.13 87.8177 313.909 89.2347C312.318 91.0513 311.984 94.3213 311.984 96.574C311.984 99.7713 312.613 102.896 312.317 106.093C312.28 106.784 313.39 106.784 313.427 106.093Z" fill="#2E2640"/>
<path d="M319.865 98.8265C321.715 95.3022 322.27 91.3055 323.343 87.5269C324.49 83.4575 325.933 79.4609 328.079 75.8275C328.56 75.0282 329.041 73.9019 329.744 73.2842C331.113 72.0489 331.113 74.4105 331.002 75.4279C330.78 77.6805 330.188 79.9695 329.67 82.1859C329.189 84.2205 328.523 86.1825 328.042 88.2172C327.783 89.3435 327.783 90.3245 328.597 91.1965C329.078 91.7052 329.855 90.9422 329.374 90.4335C328.449 89.4525 329.411 87.4905 329.707 86.4369C330.04 85.2379 330.373 84.0389 330.632 82.8399C331.15 80.6235 331.668 78.3709 332.001 76.0819C332.186 74.8829 332.445 72.7755 331.372 71.8672C330.447 71.1042 329.522 71.8309 328.893 72.5575C326.192 75.8639 324.527 80.2239 323.195 84.2205C321.678 88.8349 321.197 93.9942 318.903 98.3179C318.57 98.8992 319.532 99.4442 319.865 98.8265Z" fill="#2E2640"/>
<path d="M328.857 91.3053C329.967 91.4143 330.374 90.615 330.892 89.743C331.706 88.3623 332.446 86.909 333.149 85.492C334.518 82.7306 335.48 79.715 337.145 77.1353C337.515 76.554 337.959 75.8273 338.551 75.3913C339.032 74.8463 339.661 74.6646 340.475 74.919C340.586 75.4276 340.66 75.9363 340.66 76.445C340.697 78.2253 340.105 80.0056 339.476 81.677C338.218 84.9833 336.812 88.2533 335.443 91.5596C335.184 92.2136 336.257 92.5043 336.516 91.8503C337.293 89.961 345.285 73.393 340.068 73.284C339.032 73.2476 337.848 74.5193 337.256 75.2096C336.22 76.4086 335.48 77.7893 334.814 79.2063C334.037 80.914 333.334 82.6216 332.52 84.293C332.039 85.3103 331.484 86.364 330.966 87.345C330.633 87.999 329.819 90.2516 328.894 90.179C328.154 90.1426 328.154 91.2326 328.857 91.3053Z" fill="#2E2640"/>
<path d="M341.954 77.9349C342.361 75.8276 344.692 77.2809 344.988 78.6253C345.247 79.7516 344.803 80.8779 344.433 81.9316C343.878 83.5303 343.249 85.0926 342.583 86.6186C341.288 89.5979 339.771 92.4319 338.069 95.2296C337.699 95.8473 338.661 96.3923 339.031 95.7746C340.622 93.1949 342.028 90.5063 343.286 87.7813C344.359 85.4196 345.654 82.8036 346.061 80.2239C346.32 78.5889 345.839 76.4816 343.989 75.9003C342.62 75.4643 341.14 76.2999 340.881 77.6806C340.77 78.3346 341.843 78.6253 341.954 77.9349Z" fill="#2E2640"/>
<path d="M339.809 96.2105C341.215 94.6482 342.584 93.0859 343.99 91.5235C344.73 90.6879 345.396 89.7795 346.21 89.0529C346.469 88.8349 346.728 88.6532 346.95 88.4352C347.579 88.6532 348.208 88.8712 348.874 89.0892C349.059 89.4162 348.615 90.3609 348.504 90.6515C347.357 94.1032 345.692 97.3732 343.731 100.425C339.772 106.566 334.333 111.725 327.969 115.467C327.34 115.831 327.932 116.775 328.524 116.412C336.442 111.761 342.954 104.931 347.061 96.8282C348.06 94.8662 349.022 92.7952 349.651 90.6879C350.021 89.4525 350.243 87.7812 348.8 87.1272C347.394 86.4732 345.914 87.7449 345.026 88.6532C342.917 90.7969 340.993 93.1949 338.995 95.4475C338.551 95.9562 339.328 96.7192 339.809 96.2105Z" fill="#2E2640"/>
<path d="M312.465 104.967C312.724 108.31 312.983 111.725 312.428 115.068C311.873 118.374 310.467 121.426 308.913 124.405C305.768 130.437 302.475 136.395 299.256 142.39C292.818 154.38 286.38 166.334 279.942 178.324C276.242 185.191 272.542 192.094 268.842 198.961C268.509 199.579 269.471 200.124 269.804 199.506C283.087 174.763 296.629 150.129 309.69 125.241C311.244 122.298 312.687 119.282 313.316 116.049C314.056 112.379 313.797 108.673 313.501 104.967C313.538 104.277 312.428 104.277 312.465 104.967Z" fill="#2E2640"/>
<path d="M327.895 115.213C316.055 139.774 305.732 164.917 296.63 190.568C293.966 198.016 291.301 205.465 288.082 212.695C287.786 213.349 288.749 213.894 289.045 213.24C294.558 200.923 298.591 188.025 303.327 175.453C308.174 162.519 313.428 149.693 319.015 137.049C322.197 129.891 325.453 122.806 328.857 115.758C329.153 115.14 328.191 114.595 327.895 115.213Z" fill="#2E2640"/>
<path opacity="0.1" d="M344.619 77.4989C343.102 77.2809 341.067 83.3848 339.883 86.4368C336.294 95.8108 333.26 96.9009 325.564 109.618C322.715 114.305 318.793 121.353 314.834 130.546C302.994 155.034 291.191 179.559 279.351 204.048C282.237 207.499 285.086 210.988 287.972 214.439C289.415 210.406 291.524 204.484 294.151 197.326C298.924 184.428 305.103 167.824 313.835 147.622C317.313 139.629 322.123 128.838 328.302 116.158C330.004 115.104 332.372 113.469 334.962 111.216C338.44 108.237 343.028 104.204 346.173 97.6275C347.172 95.5929 348.43 92.4682 349.096 88.3625C348.615 88.1445 347.912 87.8902 347.135 88.0355C345.803 88.2899 345.1 89.5615 344.545 90.4335C342.399 93.6672 339.254 95.8108 338.847 95.5565C338.625 95.3748 339.254 94.3212 340.956 90.9058C344.434 83.8935 342.991 85.7465 344.36 83.3848C345.137 82.0405 345.914 80.8778 345.655 79.3882C345.655 78.7342 345.248 77.6079 344.619 77.4989Z" fill="#2E2640"/>
<path opacity="0.13" d="M342.362 102.278C340.512 103.441 337.885 105.149 334.888 107.401C331.447 109.945 327.747 112.706 324.639 116.194C320.421 120.917 318.571 125.604 317.461 128.329C307.286 153.835 295.187 181.521 291.746 189.224C289.859 193.439 286.899 199.797 282.977 207.427C284.753 209.716 286.566 212.005 288.342 214.294C293.448 198.998 299.331 182.975 306.065 166.37C313.317 148.531 320.828 131.854 328.376 116.339C330.411 114.995 332.705 113.287 335.036 111.071C338.329 107.983 340.697 104.858 342.362 102.278Z" fill="#2E2640"/>
<path d="M243.979 207.463C242.61 208.372 239.539 210.479 236.394 213.894C233.138 217.419 231.251 220.725 229.697 223.523C228.476 225.666 227.588 227.556 226.959 228.936C227.921 230.753 229.475 233.551 231.621 236.893C235.432 242.816 238.392 246.013 243.498 252.444C245.644 255.133 248.752 259.166 252.452 264.252C253.044 266.977 253.562 269.848 254.006 272.863C254.894 279.04 255.227 284.781 255.227 289.94C256.596 291.393 258.964 293.501 262.442 294.99C268.214 297.497 273.468 296.771 276.206 296.335C282.274 295.426 286.418 292.774 289.267 290.921C294.447 287.578 297.962 283.582 300.293 280.275C299.812 274.607 299.183 268.758 298.406 262.69C297.74 257.531 297 252.517 296.186 247.648C296.112 243.833 295.742 238.637 294.484 232.606C293.448 227.556 292.19 221.67 288.453 214.694C283.791 206.01 277.982 200.742 275.725 198.816C273.727 197.108 271.914 195.837 270.582 194.928C265.18 198.307 260.518 200.415 257.336 201.686C251.416 204.084 248.641 204.448 243.979 207.463Z" fill="white"/>
<path d="M227.55 229.082C228.697 224.794 231.879 220.797 234.617 217.309C237.503 213.676 240.759 210.37 244.644 207.718C245.236 207.318 244.681 206.373 244.089 206.773C240.093 209.498 236.726 212.877 233.766 216.619C230.917 220.216 227.698 224.285 226.514 228.754C226.329 229.481 227.402 229.736 227.55 229.082Z" fill="#2E2640"/>
<path d="M226.736 229.445C234.358 242.525 243.386 254.806 253.635 266.033C254.116 266.541 254.893 265.778 254.412 265.27C244.237 254.115 235.283 241.907 227.698 228.9C227.328 228.282 226.366 228.827 226.736 229.445Z" fill="#2E2640"/>
<path d="M258.039 202.195C262.183 199.325 266.733 197.181 271.58 195.8C272.283 195.619 271.987 194.565 271.284 194.747C266.326 196.164 261.702 198.344 257.484 201.25C256.892 201.65 257.447 202.595 258.039 202.195Z" fill="#2E2640"/>
<path d="M270.655 196.091C288.341 208.19 295.926 229.409 295.075 249.937C295.038 250.627 296.148 250.627 296.185 249.937C297.073 228.973 289.229 207.463 271.21 195.146C270.655 194.747 270.1 195.691 270.655 196.091Z" fill="#2E2640"/>
<path d="M251.231 263.889C253.155 267.777 253.377 272.609 253.784 276.824C254.228 281.111 254.376 285.435 254.376 289.758C254.376 290.449 255.486 290.449 255.486 289.758C255.523 284.962 255.301 280.166 254.746 275.407C254.302 271.374 254.006 267.014 252.193 263.308C251.86 262.69 250.935 263.235 251.231 263.889Z" fill="#2E2640"/>
<path d="M255.078 289.976C260.628 296.662 270.1 298.551 278.351 296.48C282.939 295.317 287.194 293.101 291.005 290.34C294.816 287.578 298.442 284.381 300.588 280.166C300.921 279.549 299.959 279.004 299.626 279.621C297.554 283.654 294.076 286.743 290.413 289.395C286.861 291.975 282.902 294.082 278.61 295.281C270.544 297.497 261.257 295.79 255.818 289.213C255.411 288.668 254.634 289.431 255.078 289.976Z" fill="#2E2640"/>
<path d="M295.483 248.302C297.296 258.947 299.072 269.593 299.701 280.348C299.738 281.038 300.848 281.038 300.811 280.348C300.145 269.484 298.369 258.729 296.556 248.011C296.445 247.321 295.372 247.611 295.483 248.302Z" fill="#2E2640"/>
<path opacity="0.13" d="M259.444 200.741C263.551 205.501 269.175 212.913 273.874 222.941C280.756 237.62 282.125 250.3 283.161 261.091C283.975 269.302 284.419 280.747 282.791 294.409C285.936 293.064 290.376 290.739 294.668 286.706C297.036 284.453 298.812 282.201 300.144 280.239C298.923 270.102 297.702 259.928 296.481 249.791C296.703 241.435 295.371 234.677 294.113 230.099C290.228 215.929 282.754 206.809 280.238 203.939C276.797 199.978 273.43 197.072 270.951 195.146C267.103 197.035 263.292 198.888 259.444 200.741Z" fill="#2E2640"/>
<path opacity="0.14" d="M287.009 213.458C286.343 213.64 287.897 219.562 289.377 228.319C289.377 228.319 291.634 241.617 292.115 254.479C292.448 262.981 292.004 275.407 288.119 290.848C289.895 289.976 292.078 288.705 294.335 286.924C297.073 284.744 299.034 282.455 300.366 280.639C299.885 265.996 298.627 258.403 297.443 254.115C297.221 253.28 296.629 251.318 296.148 248.556C295.26 243.397 295.704 241.181 295.223 236.893C294.853 233.478 294.15 231.225 292.855 227.047C290.894 220.761 287.749 213.24 287.009 213.458Z" fill="#2E2640"/>
<path d="M243.461 147.695C241.019 149.039 237.911 151.074 234.914 154.162C228.698 160.666 226.7 167.933 225.997 171.53C225.442 171.457 223.925 171.348 222.704 172.293C220.891 173.673 220.854 176.398 221.557 177.997C221.816 178.578 222.186 179.051 222.963 179.995C223.888 181.122 224.48 181.812 225.442 182.212C225.849 182.393 226.774 182.648 228.106 182.357C228.513 183.556 229.179 185.227 230.178 187.153C231.473 189.624 233.434 193.293 237.356 196.491C238.503 197.435 240.279 198.671 242.684 199.797C243.572 200.923 245.2 203.285 245.385 206.482C245.755 212.114 241.574 216.801 237.615 218.872C230.733 222.469 223.259 218.872 220.521 217.528C219.041 216.801 211.604 213.022 208.496 204.738C204.722 194.747 209.643 184.755 212.566 178.796C215.526 172.801 216.895 173.201 219.152 167.351C222.149 159.612 220.558 156.887 223.999 150.965C225.331 148.64 228.032 143.989 233.693 141.809C238.54 139.956 243.017 140.901 244.941 141.446C246.532 140.501 249.344 139.157 252.896 139.157C261.332 139.157 266.734 147.005 268.029 148.894C271.877 154.453 269.842 156.161 273.283 163.972C277.612 173.819 281.83 173.237 285.715 182.466C287.602 186.971 290.747 194.42 287.269 201.541C283.68 208.88 275.503 211.024 274.467 211.278C272.58 211.751 267.511 212.986 262.442 210.334C261.961 210.079 255.597 206.664 255.079 200.814C254.894 198.671 255.523 196.672 255.671 196.236C256.448 193.875 257.78 192.349 258.187 191.84C259.778 189.914 261.702 186.354 263.034 179.269C263.663 179.232 264.699 179.087 265.735 178.506C267.918 177.27 268.954 174.763 268.843 172.583C268.806 172.075 268.658 169.168 266.512 168.187C265.624 167.787 264.699 167.896 264.181 168.005C257.299 161.175 250.38 154.453 243.461 147.695Z" fill="#FF4545"/>
<path d="M243.461 147.659C239.354 150.02 236.505 152.636 234.692 154.562C228.661 160.993 226.737 167.715 226.33 169.277C226.071 170.258 225.886 171.057 225.812 171.639C225.405 171.493 224.48 171.239 223.555 171.639C222.149 172.256 221.853 173.928 221.705 174.763C221.335 176.689 222.075 178.215 222.371 178.796C222.778 179.632 223.444 180.976 225.035 181.667C226.33 182.248 227.551 182.03 228.069 181.921C228.587 183.229 229.327 185.046 230.474 187.117C232.213 190.387 233.841 193.402 236.986 196.091C238.207 197.145 240.205 198.598 243.091 199.724C243.683 200.633 244.497 202.05 244.941 203.903C245.311 205.356 245.385 206.591 245.348 207.536C246.31 208.008 248.123 208.735 250.38 208.699C254.709 208.626 257.558 205.974 258.224 205.32C257.521 203.249 256.892 200.705 256.633 197.762C256.522 196.418 256.485 195.146 256.485 193.984C257.632 192.785 259.038 191.077 260.185 188.788C262.22 184.828 262.553 181.158 262.59 179.014C263.108 179.087 264.144 179.196 265.254 178.76C266.808 178.142 267.511 176.798 267.918 176.035C268.029 175.853 269.583 172.729 268.177 169.64C267.844 168.95 267.289 167.678 266.179 167.569C265.365 167.497 264.699 168.114 264.44 168.369C262.923 166.588 260.074 163.282 256.078 158.74C252.637 154.78 250.454 152.309 246.791 149.766C245.459 148.821 244.275 148.131 243.461 147.659Z" fill="white"/>
<path d="M238.354 186.208C237.984 187.044 239.723 188.534 240.537 189.151C242.239 190.387 244.052 190.568 244.718 190.605C245.495 190.677 248.048 190.859 250.379 189.224C250.934 188.824 252.488 187.771 253.08 185.809C253.487 184.392 253.376 182.43 252.599 182.103C252.007 181.885 251.452 182.611 250.194 183.483C247.974 184.973 245.68 185.336 243.719 185.627C240.389 186.136 238.724 185.482 238.354 186.208Z" fill="#2E2640"/>
<path d="M226.625 177.815C227.957 183.265 230.103 188.606 233.655 193.039C236.8 196.999 241.462 200.814 246.901 200.306C251.933 199.833 256.04 195.982 258.704 192.058C261.849 187.48 263.366 181.994 263.218 176.471C263.181 175.781 262.071 175.781 262.108 176.471C262.256 181.521 260.924 186.463 258.223 190.75C255.67 194.783 251.452 199.034 246.309 199.252C240.87 199.47 236.393 195.11 233.507 191.041C230.621 186.971 228.845 182.284 227.661 177.488C227.513 176.834 226.44 177.125 226.625 177.815Z" fill="#2E2640"/>
<path d="M242.351 199.797C243.905 202.123 244.682 204.666 244.682 207.464C244.682 208.154 245.792 208.154 245.792 207.464C245.792 204.521 244.941 201.723 243.313 199.252C242.943 198.635 241.981 199.18 242.351 199.797Z" fill="#2E2640"/>
<path d="M245.2 207.899C249.714 210.443 255.56 209.207 258.631 205.138C259.075 204.593 258.113 204.048 257.669 204.593C254.931 208.19 249.677 209.207 245.755 206.955C245.126 206.628 244.571 207.572 245.2 207.899Z" fill="#2E2640"/>
<path d="M255.855 194.928C255.892 198.235 256.41 201.505 257.483 204.666C257.705 205.32 258.778 205.029 258.556 204.375C257.557 201.287 257.002 198.162 256.965 194.928C256.965 194.202 255.855 194.202 255.855 194.928Z" fill="#2E2640"/>
<path d="M227.735 181.267C227.254 181.776 226.07 181.594 225.515 181.304C225.071 181.086 224.664 180.759 224.331 180.432C223.591 179.741 222.999 178.906 222.629 177.997C221.889 176.29 221.556 171.385 224.849 172.257C225.552 172.438 225.848 171.385 225.145 171.203C221.075 170.149 220.446 175.454 221.482 178.106C222.296 180.25 226.033 184.683 228.549 182.03C228.993 181.522 228.216 180.759 227.735 181.267Z" fill="#2E2640"/>
<path d="M264.92 168.55C265.364 167.097 267.288 169.895 267.51 170.403C267.954 171.566 268.102 172.838 267.917 174.073C267.621 176.544 265.623 178.905 262.848 178.215C262.145 178.033 261.849 179.087 262.552 179.269C267.029 180.395 269.434 175.817 269.027 172.075C268.842 170.44 268.176 168.332 266.585 167.46C265.549 166.915 264.217 167.061 263.847 168.223C263.625 168.95 264.698 169.204 264.92 168.55Z" fill="#2E2640"/>
<path d="M231.694 160.848C232.915 158.559 235.061 157.069 237.651 156.706C238.354 156.597 238.058 155.543 237.355 155.652C234.506 156.052 232.064 157.796 230.732 160.303C230.399 160.92 231.361 161.465 231.694 160.848Z" fill="#2E2640"/>
<path d="M248.789 155.253C251.897 154.526 255.005 156.052 256.411 158.813C256.744 159.431 257.669 158.886 257.373 158.268C255.745 155.035 252.045 153.363 248.493 154.199C247.79 154.381 248.086 155.434 248.789 155.253Z" fill="#2E2640"/>
<path d="M240.723 159.722C241.426 163.573 241.611 167.533 241.204 171.457C241.056 172.656 240.464 174.364 241.019 175.563C241.611 176.871 243.202 177.997 244.201 179.015C244.682 179.523 245.496 178.76 244.978 178.252C244.312 177.561 243.646 176.907 242.98 176.217C241.944 175.163 241.833 174.836 242.055 173.31C242.24 171.93 242.425 170.513 242.499 169.096C242.647 165.862 242.388 162.628 241.796 159.467C241.685 158.741 240.612 159.031 240.723 159.722Z" fill="#2E2640"/>
<path d="M236.061 169.059C235.506 168.187 235.247 167.242 235.321 166.225C235.321 166.007 235.469 165.062 235.654 165.026C235.765 165.026 235.95 166.298 235.987 166.443C236.061 166.915 236.098 167.424 236.098 167.896C236.098 168.042 236.061 169.241 236.061 168.514C236.024 167.46 236.098 166.407 236.135 165.353C235.765 165.389 235.395 165.462 235.062 165.498C235.247 166.625 235.358 167.751 235.358 168.914C235.728 168.914 236.098 168.914 236.468 168.914C236.468 168.768 236.468 168.623 236.468 168.478C236.468 167.787 235.358 167.787 235.358 168.478C235.358 168.623 235.358 168.768 235.358 168.914C235.358 169.604 236.468 169.604 236.468 168.914C236.468 167.678 236.357 166.443 236.135 165.208C236.024 164.59 235.062 164.772 235.062 165.353C235.025 166.516 234.877 167.787 235.025 168.95C235.099 169.495 235.358 170.004 235.987 170.113C237.837 170.476 237.282 166.915 237.134 166.043C237.023 165.353 236.912 164.299 236.246 163.9C235.691 163.573 235.099 163.9 234.766 164.408C233.841 165.934 234.359 168.187 235.21 169.568C235.469 170.185 236.431 169.64 236.061 169.059Z" fill="#2E2640"/>
<path d="M253.155 167.133C252.6 166.261 252.341 165.317 252.415 164.299C252.415 164.081 252.563 163.137 252.748 163.1C252.859 163.1 253.044 164.372 253.081 164.517C253.155 164.99 253.192 165.498 253.192 165.971C253.192 166.116 253.155 167.315 253.155 166.588C253.118 165.535 253.192 164.481 253.229 163.427C252.859 163.464 252.489 163.536 252.156 163.573C252.341 164.699 252.452 165.825 252.452 166.988C252.822 166.988 253.192 166.988 253.562 166.988C253.562 166.843 253.562 166.697 253.562 166.552C253.562 165.862 252.452 165.862 252.452 166.552C252.452 166.697 252.452 166.843 252.452 166.988C252.452 167.678 253.562 167.678 253.562 166.988C253.562 165.753 253.451 164.517 253.229 163.282C253.118 162.664 252.156 162.846 252.156 163.427C252.119 164.59 251.971 165.862 252.119 167.024C252.193 167.569 252.452 168.078 253.081 168.187C254.931 168.55 254.376 164.99 254.228 164.118C254.117 163.427 254.006 162.374 253.34 161.974C252.785 161.647 252.193 161.974 251.86 162.483C250.935 164.009 251.453 166.261 252.304 167.642C252.563 168.296 253.525 167.751 253.155 167.133Z" fill="#2E2640"/>
<path d="M230.585 172.402C231.288 172.402 231.288 171.312 230.585 171.312C229.882 171.312 229.882 172.402 230.585 172.402Z" fill="#2E2640"/>
<path d="M234.951 173.201C234.988 173.201 235.025 173.201 235.099 173.201C235.395 173.201 235.654 172.947 235.654 172.656C235.654 172.366 235.395 172.111 235.099 172.111C235.062 172.111 235.025 172.111 234.951 172.111C234.655 172.111 234.396 172.366 234.396 172.656C234.396 172.947 234.618 173.201 234.951 173.201Z" fill="#2E2640"/>
<path d="M232.361 176.544C233.064 176.544 233.064 175.454 232.361 175.454C231.658 175.454 231.621 176.544 232.361 176.544Z" fill="#2E2640"/>
<path d="M253.376 171.857C253.413 171.857 253.45 171.857 253.524 171.857C253.82 171.857 254.079 171.602 254.079 171.312C254.079 171.021 253.82 170.767 253.524 170.767C253.487 170.767 253.45 170.767 253.376 170.767C253.08 170.767 252.821 171.021 252.821 171.312C252.821 171.602 253.043 171.857 253.376 171.857Z" fill="#2E2640"/>
<path d="M257.446 169.168C258.149 169.168 258.149 168.078 257.446 168.078C256.743 168.078 256.743 169.168 257.446 169.168Z" fill="#2E2640"/>
<path d="M256.892 172.111C256.929 172.111 256.966 172.111 257.04 172.111C257.336 172.111 257.595 171.857 257.595 171.566C257.595 171.275 257.336 171.021 257.04 171.021C257.003 171.021 256.966 171.021 256.892 171.021C256.596 171.021 256.337 171.275 256.337 171.566C256.374 171.857 256.596 172.111 256.892 172.111Z" fill="#2E2640"/>
<path d="M239.279 187.044C238.687 186.208 237.725 185.009 238.132 183.919C238.613 182.684 240.13 182.866 241.129 183.011C242.35 183.193 243.349 183.411 244.533 183.047C245.495 182.757 246.346 182.139 247.234 181.667C249.343 180.504 251.822 180.395 252.488 183.12C254.375 190.568 240.981 192.676 238.909 186.136C238.687 185.482 237.614 185.736 237.836 186.426C240.389 194.456 256.225 191.477 253.45 182.575C252.969 181.085 251.822 179.814 250.194 179.632C247.53 179.378 245.791 181.994 243.238 182.175C241.351 182.321 239.057 180.904 237.54 182.648C236.171 184.21 237.281 186.208 238.28 187.589C238.724 188.17 239.686 187.625 239.279 187.044Z" fill="#2E2640"/>
<path d="M237.134 184.973C237.948 187.189 242.018 186.499 243.794 186.245C247.198 185.736 250.306 184.283 252.933 182.139C253.488 181.703 252.711 180.904 252.156 181.376C250.232 182.975 248.012 184.137 245.57 184.791C244.497 185.082 238.836 186.317 238.244 184.719C237.948 184.028 236.875 184.319 237.134 184.973Z" fill="#2E2640"/>
<path d="M243.719 200.923C248.048 202.013 253.82 199.325 256.262 195.8C256.669 195.219 255.707 194.674 255.3 195.255C253.154 198.344 247.789 200.814 244.015 199.87C243.312 199.688 243.016 200.742 243.719 200.923Z" fill="#2E2640"/>
<path d="M244.126 201.25C247.974 203.612 254.301 200.269 256.151 196.672C256.484 196.055 255.522 195.51 255.189 196.127C253.635 199.179 247.974 202.34 244.681 200.342C244.052 199.942 243.497 200.887 244.126 201.25Z" fill="#2E2640"/>
<path opacity="0.2" d="M259.481 162.737C259.74 164.045 260.073 166.116 260.295 168.623C260.813 175.309 261.701 186.499 254.819 193.948C253.339 195.546 250.194 198.38 244.385 199.979C246.235 199.906 248.492 199.688 250.934 199.071C252.155 198.78 253.265 198.417 254.264 198.017C254.412 201.251 254.523 204.484 254.671 207.718C255.929 206.919 257.15 206.156 258.408 205.356C256.706 201.65 256.706 198.78 256.928 196.963C257.261 194.42 258.223 192.349 259.185 190.278C260.036 188.461 260.924 187.008 261.627 185.991C261.701 186.754 261.886 187.553 262.404 188.316C264.661 191.622 271.728 191.949 276.168 189.115C280.275 186.499 282.273 181.195 281.237 175.745C281.94 176.326 282.68 177.016 283.383 177.852C283.938 178.506 285.381 180.395 287.379 187.044C288.008 189.115 288.304 190.169 288.489 191.223C288.711 192.676 289.118 195.437 288.341 198.562C287.009 203.939 283.05 207.028 281.866 207.9C281.015 208.517 278.425 210.37 274.54 211.242C272.69 211.642 267.14 212.95 261.923 209.971C259.962 208.844 258.889 208.009 258.297 206.991C257.668 205.865 257.594 204.811 257.52 204.012C257.187 199.034 257.039 196.527 257.372 194.82C258.371 189.878 260.628 189.37 261.886 183.738C262.33 181.703 262.441 179.996 262.478 178.906C262.959 178.978 263.699 179.051 264.587 178.833C266.437 178.361 267.362 176.871 267.695 176.326C269.027 174.255 269.619 170.549 267.547 168.841C267.251 168.587 266.215 167.824 264.217 167.969C262.7 166.225 261.109 164.481 259.481 162.737Z" fill="#2E2640"/>
<path opacity="0.13" d="M241.943 174.509C243.83 175.054 245.754 175.636 247.641 176.181C247.16 176.617 246.679 177.016 246.161 177.452C245.68 177.852 245.236 178.179 244.755 178.542C244.163 178.106 243.312 177.343 242.646 176.181C242.276 175.563 242.054 174.982 241.943 174.509Z" fill="#2E2640"/>
<path opacity="0.16" d="M212.269 179.051C208.236 193.039 211.233 204.339 217.264 206.81C222 208.735 230.547 206.01 232.138 201.251C232.36 200.633 232.582 199.543 231.731 196.2C230.991 193.257 229.474 188.825 226.07 183.774C225.478 183.411 224.701 182.83 223.961 181.958C222.666 180.395 222.296 178.724 222.185 177.925C223.258 179.015 224.812 180.395 225.811 179.959C226.773 179.523 227.365 178.215 227.032 176.907C227.365 178.579 227.883 180.868 228.845 183.52C230.103 187.044 231.361 190.46 234.284 193.693C235.616 195.183 238.243 197.617 242.683 199.361C243.423 200.27 244.792 202.232 245.236 205.102C245.31 205.538 245.569 207.536 244.903 210.043C244.755 210.625 243.867 213.786 240.944 216.511C237.54 219.708 233.47 220.289 232.138 220.471C222.111 221.779 214.341 213.168 212.972 211.678C211.603 210.152 209.346 207.609 208.051 203.685C205.979 197.436 207.57 191.804 208.717 187.698C209.79 183.847 211.233 180.94 212.269 179.051Z" fill="#2E2640"/>
</svg>
