<?xml version="1.0" standalone="no"?>
<!DOCTYPE svg PUBLIC "-//W3C//DTD SVG 20010904//EN"
 "http://www.w3.org/TR/2001/REC-SVG-20010904/DTD/svg10.dtd">
<svg version="1.0" xmlns="http://www.w3.org/2000/svg"
 width="32.000000pt" height="32.000000pt" viewBox="0 0 32.000000 32.000000"
 preserveAspectRatio="xMidYMid meet">

<g transform="translate(0.000000,32.000000) scale(0.100000,-0.100000)"
fill="#000000" stroke="none">
<path d="M165 231 c24 -5 30 -12 30 -31 0 -20 -6 -26 -28 -28 -17 -2 -29 2
-33 12 -3 9 -11 13 -16 10 -6 -4 -13 -2 -17 4 -3 5 -6 -10 -7 -34 -1 -55 -15
-73 -41 -53 -10 7 -7 1 6 -14 17 -18 28 -24 35 -17 14 14 119 12 135 -2 10
-11 11 -9 5 6 -6 16 -4 18 11 13 15 -6 16 -5 6 7 -7 8 -18 13 -26 10 -7 -3
-20 5 -29 18 -9 12 -16 18 -16 14 0 -5 7 -18 17 -28 15 -17 14 -18 -35 -18
-58 0 -66 8 -57 51 8 35 30 33 30 -3 0 -17 5 -24 20 -25 11 -1 14 1 8 4 -18 7
-16 33 2 33 17 0 57 20 67 34 3 5 18 2 33 -8 15 -10 24 -13 21 -7 -10 16 -110
61 -132 60 -10 -1 -5 -4 11 -8z m-65 -135 c0 -3 -4 -8 -10 -11 -5 -3 -10 -1
-10 4 0 6 5 11 10 11 6 0 10 -2 10 -4z"/>
<path d="M36 175 c-3 -9 -6 -24 -5 -33 0 -9 5 -4 10 12 9 32 6 48 -5 21z"/>
<path d="M282 128 c-10 -30 -10 -31 3 -14 13 17 21 46 12 46 -1 0 -8 -15 -15
-32z"/>
</g>
</svg>
